<?xml version="1.0" encoding="UTF-8"?>
<svg version="1.1" xmlns="http://www.w3.org/2000/svg" width="606" height="680">
<path d="M0 0 C199.98 0 399.96 0 606 0 C606 224.4 606 448.8 606 680 C406.02 680 206.04 680 0 680 C0 455.6 0 231.2 0 0 Z " fill="#F1F1F1" transform="translate(0,0)"/>
<path d="M0 0 C2.5079778 -0.00500824 5.01594533 -0.00862398 7.52392578 -0.01147461 C8.22322708 -0.01301292 8.92252838 -0.01455124 9.64302063 -0.01613617 C16.72675599 -0.02214649 23.79578172 0.1811175 30.875 0.4375 C32.74478516 0.49647461 32.74478516 0.49647461 34.65234375 0.55664062 C35.83699219 0.59853516 37.02164063 0.64042969 38.2421875 0.68359375 C39.83329346 0.73858032 39.83329346 0.73858032 41.45654297 0.79467773 C44 1 44 1 46 2 C48.77763561 2.01682499 51.52624521 1.97120226 54.30078125 1.87890625 C56.06152217 1.83003239 57.82226442 1.78120641 59.58300781 1.73242188 C60.98226501 1.69072876 60.98226501 1.69072876 62.40979004 1.64819336 C77.52637867 1.20192374 92.62707242 0.92405607 107.75 1 C119.94973692 1.05633512 132.11866287 0.87473203 144.3125 0.5 C161.33297748 -0.01717834 178.34721897 -0.11314418 195.375 -0.125 C196.64437408 -0.12749756 197.91374817 -0.12999512 199.22158813 -0.13256836 C202.82223307 -0.13841304 206.4227918 -0.13699482 210.0234375 -0.1328125 C211.11938736 -0.13479645 212.21533722 -0.1367804 213.34449768 -0.13882446 C214.34117966 -0.13571259 215.33786163 -0.13260071 216.36474609 -0.12939453 C217.23972748 -0.12859894 218.11470886 -0.12780334 219.01620483 -0.12698364 C221 0 221 0 222 1 C222.09348767 4.00843375 222.1200934 6.99367141 222.10534668 10.00236511 C222.10414054 11.44862107 222.10414054 11.44862107 222.10291004 12.92409432 C222.09885088 16.21008431 222.08747585 19.49600989 222.07617188 22.78198242 C222.07158141 25.15859244 222.06739939 27.53520329 222.063591 29.91181469 C222.05277576 35.8297528 222.0369829 41.74766599 222.01887688 47.66558519 C222.00375982 52.63218762 221.99059662 57.59879191 221.97866821 62.56540298 C221.9304039 82.57117704 221.87055463 102.5769042 221.80645761 122.58263325 C221.77780795 131.53321018 221.75013636 140.48379008 221.72249681 149.43437018 C221.67322263 165.38308802 221.62322968 181.33180351 221.57275391 197.28051758 C221.52385956 212.73006064 221.4753229 228.17960476 221.42724609 243.62915039 C221.4242591 244.5889866 221.4212721 245.54882282 221.41819459 246.53774498 C221.40320486 251.35520856 221.38822193 256.17267217 221.37324238 260.99013579 C221.24988282 300.66009386 221.12534389 340.33004815 221 380 C216.86649167 380.64975248 212.73215473 381.29408059 208.59765625 381.9375 C207.43770142 382.11990234 206.27774658 382.30230469 205.0826416 382.49023438 C198.54463405 383.50477267 192.02581483 384.39278249 185.4375 385 C171.96448546 386.30541114 158.62282129 388.63955282 145.30078125 391.0078125 C133.19676579 393.13791008 121.08264657 394.7946964 108.875 396.1875 C108.13791809 396.27217529 107.40083618 396.35685059 106.64141846 396.4440918 C97.10461633 397.53163822 87.58147688 398.39843407 78 399 C78 399.66 78 400.32 78 401 C77.19256348 401.08564209 76.38512695 401.17128418 75.55322266 401.25952148 C71.91004344 401.64819375 68.26752768 402.04277044 64.625 402.4375 C63.35398438 402.57220703 62.08296875 402.70691406 60.7734375 402.84570312 C59.56171875 402.97783203 58.35 403.10996094 57.1015625 403.24609375 C55.98088379 403.36654053 54.86020508 403.4869873 53.70556641 403.61108398 C51.03858134 403.84929233 51.03858134 403.84929233 49 405 C45.62401521 405.47263787 43.09081488 405.67300794 40.11328125 403.8359375 C38.79689047 402.7945736 37.49261794 401.73775472 36.19921875 400.66796875 C32.46431952 397.83528319 28.23869469 395.96300205 24 394 C24 393.34 24 392.68 24 392 C21.69 391.34 19.38 390.68 17 390 C17 389.34 17 388.68 17 388 C16.030625 387.79375 15.06125 387.5875 14.0625 387.375 C9.13128901 385.9833699 4.99406313 383.15410994 1 380 C-0.39034629 377.21930743 -0.12407798 374.9636467 -0.12304783 371.85053825 C-0.12420167 371.21002531 -0.12535552 370.56951237 -0.12654433 369.90958995 C-0.12921135 367.74275082 -0.12468813 365.57598459 -0.12025452 363.40914917 C-0.1206902 361.84824834 -0.12156506 360.28734759 -0.12284368 358.72644722 C-0.12508919 354.42116175 -0.1210666 350.11590096 -0.11606562 345.81061864 C-0.11176211 341.17393699 -0.11320747 336.53725682 -0.1139679 331.90057373 C-0.11449319 323.86187279 -0.11134578 315.82317995 -0.10573006 307.78448105 C-0.09761585 296.16175661 -0.09499992 284.5390361 -0.09374207 272.91630913 C-0.09155142 254.06090309 -0.084891 235.20550136 -0.07543945 216.35009766 C-0.06626566 198.02978538 -0.05918466 179.70947427 -0.05493164 161.38916016 C-0.05466892 160.26060127 -0.05440619 159.13204239 -0.05413551 157.96928476 C-0.05283051 152.3078471 -0.05156679 146.64640943 -0.05032361 140.98497176 C-0.03995061 93.98997818 -0.02233195 46.99498931 0 0 Z " fill="#D1C5B8" transform="translate(187,141)"/>
<path d="M0 0 C1.63237483 0.03556326 3.26462414 0.07719236 4.89672852 0.12353516 C6.1859597 0.15539413 6.1859597 0.15539413 7.50123596 0.18789673 C9.32299239 0.23424681 11.14468457 0.28318188 12.96630859 0.33447266 C15.76003575 0.41216386 18.55387623 0.47937272 21.34790039 0.54541016 C23.11419307 0.59165411 24.88046988 0.63850879 26.64672852 0.68603516 C27.48634628 0.7058847 28.32596405 0.72573425 29.19102478 0.7461853 C35.10804809 0.92255432 35.10804809 0.92255432 37.33813477 2.03759766 C39.31590618 10.34931861 38.47552192 19.54300084 38.45838928 28.04605103 C38.45882588 29.66335389 38.45970242 31.28065669 38.46097845 32.89795911 C38.46320595 37.32198853 38.45922608 41.74599356 38.45420039 46.17001987 C38.44987095 50.94834817 38.45134408 55.72667517 38.45210266 60.50500488 C38.45262632 68.77710926 38.44949605 77.04920574 38.44386482 85.32130814 C38.43572838 97.28129366 38.4331324 109.24127537 38.43187683 121.20126335 C38.42968969 140.60683398 38.42303874 160.0124004 38.41357422 179.41796875 C38.40439138 198.26562479 38.39731481 217.11327968 38.39306641 235.9609375 C38.39280368 237.12323854 38.39254096 238.28553958 38.39227027 239.48306186 C38.39096521 245.3141433 38.38970151 251.14522475 38.38845837 256.9763062 C38.37809626 305.33007293 38.36048711 353.68383509 38.33813477 402.03759766 C34.02767984 401.41799724 31.70069755 400.80162427 28.33813477 398.03759766 C26.60673863 397.1063164 24.85575189 396.2106481 23.08813477 395.35009766 C22.19610352 394.91310547 21.30407227 394.47611328 20.38500977 394.02587891 C19.70954102 393.69974609 19.03407227 393.37361328 18.33813477 393.03759766 C18.33813477 392.37759766 18.33813477 391.71759766 18.33813477 391.03759766 C16.02813477 390.37759766 13.71813477 389.71759766 11.33813477 389.03759766 C11.33813477 388.37759766 11.33813477 387.71759766 11.33813477 387.03759766 C10.36875977 386.83134766 9.39938477 386.62509766 8.40063477 386.41259766 C3.46942378 385.02096756 -0.6678021 382.1917076 -4.66186523 379.03759766 C-6.0490516 376.26322492 -5.77991752 374.0283407 -5.772089 370.92216396 C-5.77121336 369.60904183 -5.77033771 368.29591969 -5.76943552 366.94300598 C-5.76334334 365.47180483 -5.7571564 364.00060408 -5.75088501 362.52940369 C-5.74790907 360.97746609 -5.74537181 359.4255276 -5.74323785 357.87358862 C-5.73605439 353.59302665 -5.72255144 349.3125039 -5.70804691 345.03196132 C-5.69350417 340.42185368 -5.68472421 335.81173466 -5.67521667 331.20161438 C-5.65563148 322.16436978 -5.63058588 313.1271481 -5.60361363 304.08992284 C-5.58180133 296.74873495 -5.56194395 289.40754422 -5.54349899 282.06634712 C-5.54087686 281.023371 -5.53825474 279.98039488 -5.53555315 278.90581341 C-5.53023578 276.78735022 -5.524923 274.66888702 -5.51961474 272.55042381 C-5.46955614 252.66488559 -5.41333001 232.77936843 -5.355009 212.89385296 C-5.305053 195.81181408 -5.26034722 178.72976804 -5.21948242 161.64770508 C-5.17208027 141.83403748 -5.12146091 122.02038247 -5.06565702 102.20673662 C-5.05972154 100.09616857 -5.05379019 97.9856005 -5.04786301 95.87503242 C-5.04494462 94.83645765 -5.04202624 93.79788288 -5.03901941 92.72783614 C-5.01862502 85.39051608 -5.00055024 78.05319237 -4.98335648 70.71586418 C-4.96235651 61.78130624 -4.93783057 52.84676644 -4.90871002 43.91223114 C-4.89392752 39.34916973 -4.88077532 34.78611859 -4.87190437 30.22304153 C-4.86375184 26.05281095 -4.85106168 21.88262072 -4.83461921 17.71241481 C-4.82946136 16.19699396 -4.82601723 14.6815662 -4.82438202 13.16613745 C-4.82192734 11.11981114 -4.81283477 9.07349589 -4.80332375 7.02719021 C-4.79852357 5.31608788 -4.79852357 5.31608788 -4.79362643 3.57041782 C-4.58469729 -0.44578692 -4.19472708 0.04306874 0 0 Z " fill="#B4A291" transform="translate(192.661865234375,141.96240234375)"/>
<path d="M0 0 C0.88602402 0.00222061 1.77204803 0.00444122 2.68492126 0.00672913 C3.69993713 0.00684998 4.714953 0.00697083 5.76072693 0.00709534 C7.37243774 0.01476929 7.37243774 0.01476929 9.01670837 0.02259827 C9.99861145 0.02360535 10.98051453 0.02461243 11.99217224 0.02565002 C15.676144 0.03090007 19.36009918 0.04486119 23.04405212 0.05775452 C31.27342712 0.07837952 39.50280212 0.09900452 47.98155212 0.12025452 C47.98155212 29.16025452 47.98155212 58.20025452 47.98155212 88.12025452 C31.48155212 88.45025452 14.98155212 88.78025452 -2.01844788 89.12025452 C-2.01844788 81.12025452 -2.01844788 81.12025452 -0.01844788 76.12025452 C-0.67844788 75.13025452 -1.33844788 74.14025452 -2.01844788 73.12025452 C-2.25895691 70.48165894 -2.25895691 70.48165894 -2.24549866 67.27186584 C-2.24527206 65.47033806 -2.24527206 65.47033806 -2.24504089 63.63241577 C-2.23471832 62.33547287 -2.22439575 61.03852997 -2.21376038 59.70228577 C-2.21002943 58.36136079 -2.20718284 57.02043308 -2.20518494 55.67950439 C-2.19755487 52.15310619 -2.1779119 48.62687318 -2.15577698 45.10054016 C-2.13530497 41.50101455 -2.12618033 37.90146221 -2.11610413 34.30189514 C-2.0946653 27.2412743 -2.05948834 20.18079258 -2.01844788 13.12025452 C-5.64844788 13.12025452 -9.27844788 13.12025452 -13.01844788 13.12025452 C-13.01844788 9.49025452 -13.01844788 5.86025452 -13.01844788 2.12025452 C-9.161026 1.77845764 -9.161026 1.77845764 -5.30360413 1.43666077 C-2.81024017 1.09142576 -2.43956488 0.14534371 0 0 Z " fill="#B39A82" transform="translate(353.01844787597656,150.87974548339844)"/>
<path d="M0 0 C0 29.04 0 58.08 0 88 C-10.56 88.99 -21.12 89.98 -32 91 C-36.455 91.495 -36.455 91.495 -41 92 C-43.02004839 92.060049 -45.04172117 92.08807948 -47.0625 92.0625 C-48.47208984 92.04896484 -48.47208984 92.04896484 -49.91015625 92.03515625 C-50.59980469 92.02355469 -51.28945313 92.01195312 -52 92 C-51.93216309 90.79690186 -51.86432617 89.59380371 -51.79443359 88.35424805 C-51.19078044 76.88926956 -50.89504118 65.43644929 -50.7890625 53.95703125 C-50.77475865 52.54914224 -50.76033339 51.14125446 -50.74578857 49.73336792 C-50.68742316 43.94281703 -50.6314403 38.15233211 -50.59863281 32.36157227 C-50.57773818 28.76339058 -50.54255273 25.16559435 -50.49787521 21.56763268 C-50.47694516 19.55630434 -50.47167933 17.54483257 -50.46670532 15.53340149 C-50.45013885 14.32330917 -50.43357239 13.11321686 -50.41650391 11.86645508 C-50.40841705 10.80252029 -50.4003302 9.73858551 -50.39199829 8.64241028 C-50 6 -50 6 -48.68148804 4.16313171 C-45.93413753 2.26271349 -43.15464221 2.50295319 -39.875 2.375 C-35.61808686 2.58284708 -35.61808686 2.58284708 -32 1 C-29.63930243 0.75390411 -27.30523767 0.57388527 -24.9375 0.4375 C-23.64714844 0.35371094 -22.35679687 0.26992188 -21.02734375 0.18359375 C-14.02263133 -0.0722116 -7.00938174 0 0 0 Z " fill="#B39B83" transform="translate(400,335)"/>
<path d="M0 0 C0 28.71 0 57.42 0 87 C-8.17507494 88.88655576 -15.4172863 90.45954153 -23.625 91.0625 C-30.11731872 91.60352656 -36.46479339 92.25070523 -42.84375 93.6328125 C-45.27723111 94.04720964 -47.53607155 94.12657167 -50 94 C-52.26742403 91.73257597 -51.85040429 87.10878579 -52 84 C-51.83236079 80.64197706 -51.43225676 77.33306415 -51 74 C-50.80949025 72.33367468 -50.62183392 70.66701981 -50.4375 69 C-50.31181641 67.9171875 -50.31181641 67.9171875 -50.18359375 66.8125 C-49.87565808 63.7724542 -50.01954083 60.71730756 -50.04760742 57.6640625 C-50.10156096 51.45382216 -50.13624046 45.24360824 -50.16479492 39.03320312 C-50.17824434 36.34429681 -50.19917603 33.65559902 -50.22631836 30.96679688 C-50.26256107 27.10280268 -50.27969162 23.23913265 -50.29296875 19.375 C-50.30845261 18.16666504 -50.32393646 16.95833008 -50.33988953 15.71337891 C-50.34011612 14.59882324 -50.34034271 13.48426758 -50.34057617 12.3359375 C-50.34723801 11.35157715 -50.35389984 10.3672168 -50.36076355 9.35302734 C-50.24171158 8.57652832 -50.12265961 7.8000293 -50 7 C-47 5 -47 5 -45 5 C-42.45771017 4.8400357 -39.91636496 4.67348801 -37.375 4.5 C-36.66859375 4.45230469 -35.9621875 4.40460938 -35.234375 4.35546875 C-33.48954299 4.2375747 -31.74476614 4.11886485 -30 4 C-30 3.34 -30 2.68 -30 2 C-26.3129484 1.6615815 -22.62529741 1.33018392 -18.9375 1 C-17.89916016 0.90460938 -16.86082031 0.80921875 -15.79101562 0.7109375 C-14.77587891 0.62070312 -13.76074219 0.53046875 -12.71484375 0.4375 C-11.78792725 0.35371094 -10.86101074 0.26992188 -9.90600586 0.18359375 C-6.61000808 -0.02463866 -3.30256901 0 0 0 Z " fill="#B1987F" transform="translate(400,426)"/>
<path d="M0 0 C0 28.38 0 56.76 0 86 C-24.15709459 88.30067568 -24.15709459 88.30067568 -36.3125 88.625 C-37.55322266 88.66367187 -38.79394531 88.70234375 -40.07226562 88.7421875 C-43.04805416 88.83410375 -46.02386909 88.92009951 -49 89 C-50.0234743 83.93293833 -50.14508937 79.09187931 -50.1328125 73.94921875 C-50.13492737 72.62950325 -50.13492737 72.62950325 -50.13708496 71.28312683 C-50.13921952 68.41787702 -50.13292539 65.55273861 -50.125 62.6875 C-50.1234491 61.71323059 -50.12189819 60.73896118 -50.12030029 59.73516846 C-50.09682491 47.1613903 -50.00804755 34.58862793 -49.68060303 22.01870728 C-49.64364392 20.59379373 -49.60964981 19.16880008 -49.57867432 17.7437439 C-49.53415096 15.78462927 -49.47453827 13.8258746 -49.4140625 11.8671875 C-49.3826416 10.77519043 -49.3512207 9.68319336 -49.31884766 8.55810547 C-49 6 -49 6 -47 4 C-46.67 5.98 -46.34 7.96 -46 10 C-46.04125 8.88625 -46.0825 7.7725 -46.125 6.625 C-46 3 -46 3 -44 1 C-29.36682797 -0.04522657 -14.67045406 0 0 0 Z " fill="#B39B82" transform="translate(400,244)"/>
<path d="M0 0 C0 29.7 0 59.4 0 90 C-34 94 -34 94 -48 94 C-48.02687864 90.54161528 -48.04677983 87.08343775 -48.0625 83.625 C-48.07087891 82.64015625 -48.07925781 81.6553125 -48.08789062 80.640625 C-48.09111328 79.69960938 -48.09433594 78.75859375 -48.09765625 77.7890625 C-48.10289307 76.91975098 -48.10812988 76.05043945 -48.11352539 75.15478516 C-48 73 -48 73 -47 71 C-46.87913832 68.81525817 -46.8225238 66.62687 -46.79467773 64.43896484 C-46.78477814 63.76567642 -46.77487854 63.092388 -46.76467896 62.3986969 C-46.73304885 60.16947974 -46.70830066 57.94024126 -46.68359375 55.7109375 C-46.66302552 54.16679322 -46.64202908 52.62265459 -46.62062073 51.07852173 C-46.56538651 47.01135833 -46.51598322 42.94414401 -46.46777344 38.87689209 C-46.41756825 34.72777771 -46.36187707 30.57873741 -46.30664062 26.4296875 C-46.19904254 18.28652095 -46.09760126 10.14329248 -46 2 C-41.86021325 1.70853669 -37.72001309 1.4241109 -33.5793457 1.14550781 C-32.17817948 1.05031859 -30.77713048 0.95338384 -29.3762207 0.85449219 C-27.33314888 0.71060355 -25.28970151 0.57354197 -23.24609375 0.4375 C-22.02591553 0.35371094 -20.8057373 0.26992188 -19.54858398 0.18359375 C-13.03740367 -0.07921595 -6.51648203 0 0 0 Z " fill="#AE947D" transform="translate(320,341)"/>
<path d="M0 0 C15.18 0 30.36 0 46 0 C46 30.03 46 60.06 46 91 C30.35144654 91.82360808 14.67021236 92 -1 92 C-0.67 61.64 -0.34 31.28 0 0 Z " fill="#AE947C" transform="translate(274,152)"/>
<path d="M0 0 C0 30.03 0 60.06 0 91 C-31 93 -31 93 -46 93 C-46 62.97 -46 32.94 -46 2 C-40.86858305 1.14476384 -36.04310547 0.68730542 -30.875 0.4375 C-30.11574219 0.39431641 -29.35648437 0.35113281 -28.57421875 0.30664062 C-19.03361624 -0.1711479 -9.58598917 0 0 0 Z " fill="#AF967E" transform="translate(320,246)"/>
<path d="M0 0 C0 29.04 0 58.08 0 88 C-3.64893127 89.45957251 -5.98264297 90.30069408 -9.6953125 90.81640625 C-11.00870605 91.0023938 -11.00870605 91.0023938 -12.34863281 91.19213867 C-13.72293457 91.37546753 -13.72293457 91.37546753 -15.125 91.5625 C-16.06698242 91.69180908 -17.00896484 91.82111816 -17.97949219 91.9543457 C-27.41912982 93.22933305 -36.45259505 94 -46 94 C-46 84.1 -46 74.2 -46 64 C-45.34 64 -44.68 64 -44 64 C-44.16081055 62.74751465 -44.32162109 61.4950293 -44.48730469 60.20458984 C-45.09494651 54.70807155 -45.17950091 49.25241579 -45.203125 43.7265625 C-45.20882507 42.68100189 -45.21452515 41.63544128 -45.22039795 40.55819702 C-45.22978687 38.36481726 -45.2363574 36.17142378 -45.24023438 33.97802734 C-45.25003199 30.61401479 -45.28114893 27.2505907 -45.3125 23.88671875 C-45.31902237 21.75000361 -45.32427583 19.61328413 -45.328125 17.4765625 C-45.3404718 16.47033844 -45.3528186 15.46411438 -45.36553955 14.42739868 C-45.36253845 13.49567841 -45.35953735 12.56395813 -45.35644531 11.60400391 C-45.36009094 10.78509674 -45.36373657 9.96618958 -45.36749268 9.12246704 C-44.90905583 6.47474868 -44.11962116 5.607443 -42 4 C-39.27612305 3.39990234 -39.27612305 3.39990234 -36.01171875 3.0859375 C-34.83029297 2.96476562 -33.64886719 2.84359375 -32.43164062 2.71875 C-31.19607422 2.6053125 -29.96050781 2.491875 -28.6875 2.375 C-26.25378211 2.13406321 -23.82018364 1.89191631 -21.38671875 1.6484375 C-20.30608154 1.54708496 -19.22544434 1.44573242 -18.11206055 1.34130859 C-15.03414805 1.04519983 -15.03414805 1.04519983 -12.16333008 0.45947266 C-8.14812918 -0.12373396 -4.05733511 0 0 0 Z " fill="#AB9178" transform="translate(320,435)"/>
<path d="M0 0 C10.89 0 21.78 0 33 0 C33 27.72 33 55.44 33 84 C7 85 7 85 0 85 C-1.75182812 83.24817188 -1.12610303 80.95354967 -1.13552856 78.61940002 C-1.13350433 77.84845505 -1.1314801 77.07751007 -1.12939453 76.28320312 C-1.13114685 75.47511703 -1.13289917 74.66703094 -1.13470459 73.8344574 C-1.13912376 71.1500334 -1.13618489 68.46567472 -1.1328125 65.78125 C-1.13348552 63.92419421 -1.13445553 62.0671385 -1.13571167 60.21008301 C-1.13718873 56.31273563 -1.13503382 52.41541113 -1.13037109 48.51806641 C-1.1246738 43.510655 -1.12795276 38.50329719 -1.13394356 33.49588776 C-1.13754895 29.65960279 -1.13641069 25.82333063 -1.13381577 21.98704529 C-1.13314644 20.14017226 -1.13397513 18.29329808 -1.13629532 16.44642639 C-1.13882149 13.86985168 -1.13498177 11.29336499 -1.12939453 8.71679688 C-1.13141876 7.9458519 -1.13344299 7.17490692 -1.13552856 6.38059998 C-1.11426255 1.11426255 -1.11426255 1.11426255 0 0 Z " fill="#F0F0EF" transform="translate(240,152)"/>
<path d="M0 0 C0 24.75 0 49.5 0 75 C-10.65345806 75.626674 -21.32812627 76 -32 76 C-32 51.25 -32 26.5 -32 1 C-21.4105358 -0.32368303 -10.67187373 0 0 0 Z " fill="#F1F1F1" transform="translate(272,249)"/>
<path d="M0 0 C0.02312566 8.97920777 0.04091623 17.95840537 0.05181217 26.93763638 C0.05704051 31.10662828 0.06413726 35.27559987 0.07543945 39.44458008 C0.08627008 43.46457686 0.09227721 47.48455405 0.09487724 51.50456429 C0.09673118 53.04162975 0.10035119 54.57869409 0.10573006 56.11575127 C0.11294284 58.26135487 0.11399084 60.40687655 0.11352539 62.55249023 C0.115746 63.77604721 0.11796661 64.99960419 0.12025452 66.26023865 C0 69 0 69 -1 70 C-8.61485288 71.05979911 -16.30498774 71.06073033 -23.9765625 71.02734375 C-24.84837158 71.02536987 -25.72018066 71.023396 -26.6184082 71.0213623 C-28.74561127 71.01625935 -30.87280746 71.00841474 -33 71 C-33.02312589 62.1511761 -33.04091634 53.30236253 -33.05181217 44.45351505 C-33.05704046 40.34505715 -33.06413713 36.23661986 -33.07543945 32.12817383 C-33.08627025 28.16653172 -33.09227724 24.20490948 -33.09487724 20.24325371 C-33.09673114 18.72851689 -33.1003511 17.21378121 -33.10573006 15.69905281 C-33.11294307 13.58458187 -33.11399083 11.47019406 -33.11352539 9.35571289 C-33.115746 8.14992081 -33.11796661 6.94412872 -33.12025452 5.70179749 C-33 3 -33 3 -32 2 C-30.31722347 1.77166473 -28.62600693 1.60488473 -26.93359375 1.46484375 C-25.89009766 1.37783203 -24.84660156 1.29082031 -23.77148438 1.20117188 C-22.12116211 1.0706543 -22.12116211 1.0706543 -20.4375 0.9375 C-19.36435547 0.84662109 -18.29121094 0.75574219 -17.18554688 0.66210938 C-11.42992129 0.19334134 -5.77294838 -0.04004402 0 0 Z " fill="#F1F0F0" transform="translate(273,343)"/>
<path d="M0 0 C0 24.42 0 48.84 0 74 C-11 75 -11 75 -26 75 C-26 50.58 -26 26.16 -26 1 C-17.34189194 0.49069953 -8.67307455 0 0 0 Z " fill="#F0F0F0" transform="translate(349,245)"/>
<path d="M0 0 C0 19.47 0 38.94 0 59 C-7.92 59.99 -7.92 59.99 -16 61 C-19.465 61.495 -19.465 61.495 -23 62 C-25.97 62 -28.94 62 -32 62 C-32 42.2 -32 22.4 -32 2 C-28.24198177 1.06049544 -24.91738471 0.69233498 -21.0625 0.4375 C-19.85722656 0.35371094 -18.65195313 0.26992188 -17.41015625 0.18359375 C-11.61147066 -0.05780414 -5.80370808 0 0 0 Z " fill="#F1F1F1" transform="translate(272,441)"/>
<path d="M0 0 C4.95 0 9.9 0 15 0 C15 4.62 15 9.24 15 14 C18.3 14 21.6 14 25 14 C25 35.78 25 57.56 25 80 C16.75 80 8.5 80 0 80 C0 53.6 0 27.2 0 0 Z " fill="#F1F1F1" transform="translate(324,152)"/>
<path d="M0 0 C0.79611694 0.00133942 1.59223389 0.00267883 2.41247559 0.00405884 C3.0117688 0.00578094 3.61106201 0.00750305 4.22851562 0.00927734 C4.27479893 8.71043315 4.31036434 17.41154677 4.33213997 26.11279869 C4.34258969 30.15287999 4.35677043 34.19287724 4.37939453 38.23291016 C4.40108074 42.12972467 4.41307529 46.02645821 4.41827011 49.9233284 C4.42197349 51.41212871 4.429205 52.90092445 4.43997574 54.3896904 C4.45443482 56.47050401 4.45649595 58.5509804 4.45556641 60.63183594 C4.46000763 61.81764252 4.46444885 63.0034491 4.46902466 64.22518921 C4.22851562 67.00927734 4.22851562 67.00927734 2.22851562 69.00927734 C-0.42382812 69.42333984 -0.42382812 69.42333984 -3.70898438 69.63427734 C-5.30033203 69.74642578 -5.30033203 69.74642578 -6.92382812 69.86083984 C-10.12800068 69.98445259 -13.30647445 70.02420889 -16.51196289 70.01855469 C-17.99129051 70.01654556 -17.99129051 70.01654556 -19.50050354 70.01449585 C-20.24992722 70.01277374 -20.99935089 70.01105164 -21.77148438 70.00927734 C-21.79462606 61.30810805 -21.81240881 52.60694931 -21.82329655 43.905756 C-21.82852137 39.86570781 -21.83561177 35.82568063 -21.84692383 31.78564453 C-21.85776692 27.88883634 -21.86376424 23.9920484 -21.86636162 20.09522629 C-21.86821329 18.60643571 -21.87182901 17.11764628 -21.87721443 15.62886429 C-21.88444372 13.5481245 -21.88547452 11.46746902 -21.88500977 9.38671875 C-21.88723038 8.20091217 -21.88945099 7.01510559 -21.89173889 5.79336548 C-21.77148438 3.00927734 -21.77148438 3.00927734 -20.77148438 1.00927734 C-18.24205603 0.69008758 -15.81174643 0.4943248 -13.27148438 0.38427734 C-12.24667969 0.32626953 -12.24667969 0.32626953 -11.20117188 0.26708984 C-7.46525625 0.07119914 -3.74102274 -0.00820779 0 0 Z " fill="#F0F0EF" transform="translate(344.771484375,337.99072265625)"/>
<path d="M0 0 C0 19.14 0 38.28 0 58 C-19 61 -19 61 -26 61 C-26 41.2 -26 21.4 -26 1 C-17.34613494 0.42307566 -8.67307455 0 0 0 Z " fill="#F0F0EF" transform="translate(349,432)"/>
<path d="M0 0 C6.65050424 -0.24991456 12.56986533 0.26044666 19 2 C19 1.34 19 0.68 19 0 C20.32 0 21.64 0 23 0 C23 0.99 23 1.98 23 3 C20.03 3 17.06 3 14 3 C14 6.96 14 10.92 14 15 C17.3 15 20.6 15 24 15 C24.02320072 24.02323797 24.04095447 33.04646562 24.05181217 42.06972694 C24.0570241 46.25987428 24.064091 50.45000116 24.07543945 54.64013672 C24.08632847 58.68609187 24.09228957 62.73202738 24.09487724 66.77799606 C24.09672066 68.31930221 24.10032037 69.86060731 24.10573006 71.40190506 C24.11302035 73.56564889 24.11398758 75.72931222 24.11352539 77.89306641 C24.115746 79.12328522 24.11796661 80.35350403 24.12025452 81.6210022 C24.00579651 84.83712539 23.60871646 87.84367429 23 91 C23.62865967 90.96970703 24.25731934 90.93941406 24.9050293 90.90820312 C47.99644479 89.80991939 47.99644479 89.80991939 59 90 C59 90.99 59 91.98 59 93 C47.45 93.66 35.9 94.32 24 95 C24 107.54 24 120.08 24 133 C23.67 133 23.34 133 23 133 C23 120.46 23 107.92 23 95 C18.545 95.495 18.545 95.495 14 96 C8.39 96 2.78 96 -3 96 C-3 115.47 -3 134.94 -3 155 C-3.66 155.33 -4.32 155.66 -5 156 C-5 136.2 -5 116.4 -5 96 C-15.395 96.495 -15.395 96.495 -26 97 C-30.77801133 97.06029797 -35.5368662 97.10010342 -40.3125 97.0625 C-41.45783203 97.05798828 -42.60316406 97.05347656 -43.78320312 97.04882812 C-46.52219943 97.03736789 -49.26106473 97.02116642 -52 97 C-52 96.34 -52 95.68 -52 95 C-29.23 93.515 -29.23 93.515 -6 92 C-5.67 62.3 -5.34 32.6 -5 2 C-4.01 2 -3.02 2 -2 2 C-2 28.4 -2 54.8 -2 82 C6.25 82 14.5 82 23 82 C23 60.22 23 38.44 23 16 C19.7 16 16.4 16 13 16 C13 11.38 13 6.76 13 2 C8.38 2 3.76 2 -1 2 C-0.67 1.34 -0.34 0.68 0 0 Z " fill="#D9CEC3" transform="translate(326,150)"/>
<path d="M0 0 C2.92885014 0.00096453 5.85769485 0.00001475 8.7865448 -0.0012207 C27.13765077 -0.00414324 45.48115582 0.07534349 63.82475281 0.63769531 C65.13107666 0.67619095 66.43740051 0.71468658 67.78330994 0.75434875 C68.95682007 0.79537216 70.1303302 0.83639557 71.33940125 0.87866211 C72.360802 0.91412643 73.38220276 0.94959076 74.43455505 0.98612976 C76.71537781 1.18847656 76.71537781 1.18847656 77.71537781 2.18847656 C77.81358367 3.77071377 77.8416972 5.35734511 77.84236145 6.94262695 C77.84659496 8.49009818 77.84659496 8.49009818 77.850914 10.06883144 C77.84888725 11.2130409 77.8468605 12.35725035 77.84477234 13.53613281 C77.846502 14.73702325 77.84823166 15.93791368 77.85001373 17.17519474 C77.85363755 20.50080678 77.85269392 23.82635852 77.84960222 27.15196729 C77.84771069 29.96399318 77.84930009 32.77601255 77.85093915 35.58803827 C77.85530225 43.10773502 77.85238527 50.62741283 77.84594285 58.14710742 C77.84130386 63.60150016 77.83890176 69.05588991 77.83769226 74.51028442 C77.82570441 119.74177806 77.63697021 164.96488563 76.71537781 210.18847656 C76.38537781 210.18847656 76.05537781 210.18847656 75.71537781 210.18847656 C75.71537781 141.87847656 75.71537781 73.56847656 75.71537781 3.18847656 C28.20658835 3.16096253 28.20658835 3.16096253 -19.28462219 4.18847656 C-26.57722594 4.22414812 -33.86133796 4.25237365 -41.15257263 4.20706177 C-58.0241536 4.10490939 -74.8589875 4.18053788 -91.71601868 4.92089844 C-92.8536969 4.96923828 -93.99137512 5.01757812 -95.16352844 5.06738281 C-96.62641296 5.13807983 -96.62641296 5.13807983 -98.11885071 5.21020508 C-100.28462219 5.18847656 -100.28462219 5.18847656 -101.28462219 4.18847656 C-103.35546939 4.03005006 -105.43140248 3.93723234 -107.50727844 3.87207031 C-109.39736633 3.80922852 -109.39736633 3.80922852 -111.32563782 3.74511719 C-112.66612955 3.7053006 -114.00662439 3.66558843 -115.34712219 3.62597656 C-116.69153742 3.58279614 -118.03593879 3.53918201 -119.38032532 3.49511719 C-122.6816456 3.38862298 -125.98304455 3.28661196 -129.28462219 3.18847656 C-129.28462219 2.85847656 -129.28462219 2.52847656 -129.28462219 2.18847656 C-86.19101218 0.89617729 -43.11489405 -0.01757022 0 0 Z " fill="#E9E5E2" transform="translate(332.2846221923828,138.8115234375)"/>
<path d="M0 0 C0 29.37 0 58.74 0 89 C-4.29 88.67 -8.58 88.34 -13 88 C-12.505 87.01 -12.505 87.01 -12 86 C-10.68 86 -9.36 86 -8 86 C-8.00666183 84.96683151 -8.01332367 83.93366302 -8.02018738 82.8691864 C-8.08094564 73.14278298 -8.12594719 63.41641796 -8.15543652 53.68986797 C-8.17110684 48.68907971 -8.19237004 43.68844438 -8.22631836 38.68774414 C-8.25886309 33.86372686 -8.27684271 29.03985687 -8.28463173 24.2157383 C-8.29018404 22.37328586 -8.30102608 20.53084167 -8.31719017 18.68845177 C-8.33889965 16.11202816 -8.34196967 13.53621683 -8.34057617 10.9597168 C-8.351362 10.19439133 -8.36214783 9.42906586 -8.3732605 8.64054871 C-8.35614472 5.72497256 -8.32279159 3.53340333 -6.79121399 1.0025177 C-5 0 -5 0 0 0 Z " fill="#A1876C" transform="translate(319,341)"/>
<path d="M0 0 C2.31 0 4.62 0 7 0 C7 29.37 7 58.74 7 89 C0.07 88.505 0.07 88.505 -7 88 C-6.505 87.01 -6.505 87.01 -6 86 C-4.35 86.33 -2.7 86.66 -1 87 C-1.00222061 86.29352325 -1.00444122 85.58704651 -1.00672913 84.85916138 C-1.02710472 78.0684068 -1.04215832 71.27765701 -1.05181217 64.48687935 C-1.05694271 60.99905171 -1.06385134 57.51125014 -1.07543945 54.0234375 C-1.13378362 35.99432864 -0.87141266 18.01192841 0 0 Z " fill="#A2886D" transform="translate(312,247)"/>
<path d="M0 0 C-0.33 0.66 -0.66 1.32 -1 2 C-3.63798134 2.62794772 -6.20351084 3.1327387 -8.875 3.5625 C-9.65149902 3.69180908 -10.42799805 3.82111816 -11.22802734 3.9543457 C-19.802603 5.34662305 -28.14245641 6.05348608 -36.8359375 6.01953125 C-37.5271167 6.01812134 -38.2182959 6.01671143 -38.93041992 6.01525879 C-40.62028366 6.0116074 -42.31014298 6.00600376 -44 6 C-43.98952637 6.98919434 -43.97905273 7.97838867 -43.96826172 8.99755859 C-43.93210981 12.66142164 -43.90911718 16.32526886 -43.89013672 19.98925781 C-43.88006812 21.57619883 -43.86641233 23.16312125 -43.84912109 24.75 C-43.82490999 27.02869247 -43.81352578 29.30714006 -43.8046875 31.5859375 C-43.79436493 32.29744965 -43.78404236 33.00896179 -43.77340698 33.74203491 C-43.77300578 35.49631665 -43.87797791 37.24996709 -44 39 C-44.99 39.99 -44.99 39.99 -46 41 C-46 29.78 -46 18.56 -46 7 C-54.78117466 6.27847209 -54.78117466 6.27847209 -62 9 C-63.68317897 9.21619157 -65.37428515 9.37132814 -67.06640625 9.5 C-68.63165039 9.62375 -68.63165039 9.62375 -70.22851562 9.75 C-71.87883789 9.87375 -71.87883789 9.87375 -73.5625 10 C-75.70975841 10.16507452 -77.85689744 10.33171027 -80.00390625 10.5 C-81.43972046 10.60828125 -81.43972046 10.60828125 -82.90454102 10.71875 C-86.61233137 11.05563575 -90.30568653 11.53821082 -94 12 C-94 31.8 -94 51.6 -94 72 C-94.33 72 -94.66 72 -95 72 C-95 52.86 -95 33.72 -95 14 C-110.84 14.99 -110.84 14.99 -127 16 C-126.34 14.68 -125.68 13.36 -125 12 C-122.11753359 11.39426431 -119.53803694 11.02783246 -116.625 10.8125 C-115.0961654 10.67526401 -113.56751075 10.53600527 -112.0390625 10.39453125 C-111.36053223 10.34143799 -110.68200195 10.28834473 -109.98291016 10.23364258 C-108.00141046 10.04577791 -108.00141046 10.04577791 -106.12458801 9.51345825 C-104.07019451 9.01696421 -102.12611677 8.74696864 -100.02368164 8.55102539 C-99.25089371 8.4774733 -98.47810577 8.4039212 -97.68190002 8.32814026 C-96.84972458 8.25208054 -96.01754913 8.17602081 -95.16015625 8.09765625 C-93.84500282 7.97371742 -93.84500282 7.97371742 -92.50328064 7.84727478 C-89.68994881 7.5827961 -86.87624399 7.3225534 -84.0625 7.0625 C-82.2349993 6.89156169 -80.40752505 6.72034032 -78.58007812 6.54882812 C-74.912741 6.20490417 -71.24524078 5.86279323 -67.57763672 5.52172852 C-63.78189145 5.16792328 -59.98670874 4.80872378 -56.19189453 4.44506836 C-55.24930283 4.35474838 -54.30671112 4.26442841 -53.33555603 4.17137146 C-51.55096611 4.00002945 -49.76642666 3.82816063 -47.98194885 3.65565491 C-42.32015617 3.11218332 -36.65882153 2.63881674 -30.984375 2.24609375 C-29.00174199 2.20664378 -29.00174199 2.20664378 -28 1 C-18.69662965 -0.00745053 -9.34883581 -0.1418879 0 0 Z " fill="#D9CDC0" transform="translate(367,427)"/>
<path d="M0 0 C0 0.33 0 0.66 0 1 C-25.06159708 2.90906817 -50.14288404 3.07363362 -75.26113892 2.98901367 C-90.00234031 2.94130886 -104.70379883 3.0856161 -119.43164062 3.73242188 C-120.56923828 3.78076172 -121.70683594 3.82910156 -122.87890625 3.87890625 C-124.34179077 3.94960327 -124.34179077 3.94960327 -125.83422852 4.02172852 C-128 4 -128 4 -129 3 C-131.0708472 2.8415735 -133.14678029 2.74875578 -135.22265625 2.68359375 C-137.11274414 2.62075195 -137.11274414 2.62075195 -139.04101562 2.55664062 C-140.38150736 2.51682404 -141.7220022 2.47711186 -143.0625 2.4375 C-144.40691523 2.39431958 -145.7513166 2.35070544 -147.09570312 2.30664062 C-150.3970234 2.20014642 -153.69842236 2.0981354 -157 2 C-157 1.67 -157 1.34 -157 1 C-142.73125344 0.86725254 -128.46248707 0.73683396 -114.19369698 0.60884857 C-107.56304072 0.54933626 -100.93239259 0.4891194 -94.30175781 0.42724609 C-62.86705473 0.13442858 -31.43616879 -0.08597158 0 0 Z " fill="#DED6CF" transform="translate(360,140)"/>
<path d="M0 0 C0 0.33 0 0.66 0 1 C-1.21115479 1.12060791 -1.21115479 1.12060791 -2.44677734 1.24365234 C-6.09050708 1.61164752 -9.73269774 1.99314573 -13.375 2.375 C-14.64601563 2.50132812 -15.91703125 2.62765625 -17.2265625 2.7578125 C-19.04414063 2.95117188 -19.04414063 2.95117188 -20.8984375 3.1484375 C-22.01911621 3.26364746 -23.13979492 3.37885742 -24.29443359 3.49755859 C-27.13917466 3.76176572 -27.13917466 3.76176572 -29 6 C-29.29296143 8.5083592 -29.29296143 8.5083592 -29.22705078 11.45947266 C-29.22689972 12.60050446 -29.22674866 13.74153625 -29.22659302 14.91714478 C-29.21627045 16.15362762 -29.20594788 17.39011047 -29.1953125 18.6640625 C-29.1924826 19.92640717 -29.18965271 21.18875183 -29.18673706 22.48934937 C-29.17742131 25.84646944 -29.15944835 29.20331912 -29.1373291 32.56036377 C-29.1168755 35.98553122 -29.1077364 39.41072659 -29.09765625 42.8359375 C-29.07556458 49.55736671 -29.04206377 56.27866773 -29 63 C-29.66 63 -30.32 63 -31 63 C-30.76023437 64.49080078 -30.76023437 64.49080078 -30.515625 66.01171875 C-29.95642405 69.94892971 -29.79760097 73.83385222 -29.75 77.8125 C-29.72421875 79.11832031 -29.6984375 80.42414063 -29.671875 81.76953125 C-29.78015625 82.83558594 -29.8884375 83.90164063 -30 85 C-31.485 85.99 -31.485 85.99 -33 87 C-33.33 79.74 -33.66 72.48 -34 65 C-33.34 65 -32.68 65 -32 65 C-32 44.54 -32 24.08 -32 3 C-21.22137908 0.30534477 -11.06998651 -0.17664872 0 0 Z " fill="#BAA898" transform="translate(305,436)"/>
<path d="M0 0 C4.95 0 9.9 0 15 0 C15 0.33 15 0.66 15 1 C10.38 1 5.76 1 1 1 C1.24556641 3.1500354 1.24556641 3.1500354 1.49609375 5.34350586 C2.03443994 10.74827134 2.11229191 16.07685975 2.0625 21.50390625 C2.05871338 22.46723373 2.05492676 23.43056122 2.05102539 24.42308044 C2.03892726 27.46960182 2.02030823 30.516023 2 33.5625 C1.97323464 37.58463321 1.95332603 41.60671672 1.9375 45.62890625 C1.92920166 46.53540421 1.92090332 47.44190216 1.91235352 48.37586975 C1.89341192 53.35309059 2.14580906 58.16494093 2.82235718 63.09831238 C3.07934577 65.84940594 2.54915633 68.30414164 2 71 C1.72042748 73.74565255 1.54651072 76.49573954 1.375 79.25 C1.29765625 80.32894531 1.29765625 80.32894531 1.21875 81.4296875 C0.86991437 85.33621624 0.86991437 85.33621624 2 89 C14.01825946 89.20760909 25.99917584 88.57827885 38 88 C38 88.33 38 88.66 38 89 C9.84846857 92.58165209 9.84846857 92.58165209 -2 92 C-2.02894547 88.54168414 -2.04678 85.08339928 -2.0625 81.625 C-2.07087891 80.64015625 -2.07925781 79.6553125 -2.08789062 78.640625 C-2.09111328 77.69960938 -2.09433594 76.75859375 -2.09765625 75.7890625 C-2.10289307 74.91975098 -2.10812988 74.05043945 -2.11352539 73.15478516 C-2 71 -2 71 -1 69 C-0.87913832 66.81525817 -0.8225238 64.62687 -0.79467773 62.43896484 C-0.78477814 61.76567642 -0.77487854 61.092388 -0.76467896 60.3986969 C-0.73304885 58.16947974 -0.70830066 55.94024126 -0.68359375 53.7109375 C-0.66302552 52.16679322 -0.64202908 50.62265459 -0.62062073 49.07852173 C-0.56538651 45.01135833 -0.51598322 40.94414401 -0.46777344 36.87689209 C-0.41756825 32.72777771 -0.36187707 28.57873741 -0.30664062 24.4296875 C-0.19904252 16.28651923 -0.0981081 8.14328814 0 0 Z " fill="#BDA998" transform="translate(274,343)"/>
<path d="M0 0 C0.33 0 0.66 0 1 0 C1.36780462 2.79045157 1.71939841 5.58148896 2.0625 8.375 C2.16626953 9.14972656 2.27003906 9.92445313 2.37695312 10.72265625 C2.85886518 14.74412927 3.04164533 18.44018974 2.52514648 22.46411133 C1.83948533 28.80964884 1.89345895 35.11229751 1.9375 41.48828125 C1.94128662 42.74964401 1.94507324 44.01100677 1.94897461 45.31059265 C1.96111753 49.31126541 1.97955853 53.31186362 2 57.3125 C2.02688877 62.60025537 2.04656554 67.88797835 2.0625 73.17578125 C2.07079834 74.38728348 2.07909668 75.59878571 2.08764648 76.84700012 C2.09094971 77.97554916 2.09425293 79.10409821 2.09765625 80.2668457 C2.10289307 81.25594437 2.10812988 82.24504303 2.11352539 83.26411438 C2.00225037 85.94576765 1.60221674 88.3886142 1 91 C1.63446045 90.83701416 2.2689209 90.67402832 2.92260742 90.50610352 C7.04704147 89.82780508 11.06597407 89.87698356 15.23828125 89.90234375 C16.11904831 89.9037587 16.99981537 89.90517365 17.90727234 89.90663147 C20.70905003 89.91221063 23.51074662 89.92475929 26.3125 89.9375 C28.21679572 89.94251769 30.12109269 89.94708013 32.02539062 89.95117188 C36.68362481 89.96217323 41.34179867 89.97942351 46 90 C46 90.33 46 90.66 46 91 C30.28332584 92.08390856 14.8128121 92 -1 92 C-0.67 61.64 -0.34 31.28 0 0 Z " fill="#BEAC9B" transform="translate(274,152)"/>
<path d="M0 0 C1.85779316 3.71558632 2.24834452 4.80129677 2.22705078 8.67675781 C2.22689972 9.59741028 2.22674866 10.51806274 2.22659302 11.46661377 C2.21627045 12.45216248 2.20594788 13.43771118 2.1953125 14.453125 C2.1924826 15.46848328 2.18965271 16.48384155 2.18673706 17.52996826 C2.17555001 20.77009916 2.15044791 24.00995276 2.125 27.25 C2.1149683 29.44791267 2.10584278 31.64582968 2.09765625 33.84375 C2.07561551 39.22926114 2.04215251 44.61461076 2 50 C2.99 49.505 2.99 49.505 4 49 C6.84208026 48.84293669 9.66337307 48.7415043 12.5078125 48.68359375 C13.34843231 48.66281265 14.18905212 48.64203156 15.05514526 48.62062073 C17.74501235 48.55514561 20.43497843 48.4962498 23.125 48.4375 C24.94662489 48.39431284 26.76823971 48.35069848 28.58984375 48.30664062 C33.05979394 48.19946632 37.52984386 48.09819315 42 48 C39.03651571 49.9756562 38.31979627 50.26376859 34.98828125 50.4140625 C33.85229492 50.47207031 33.85229492 50.47207031 32.69335938 50.53125 C31.90767578 50.5621875 31.12199219 50.593125 30.3125 50.625 C29.11657227 50.68300781 29.11657227 50.68300781 27.89648438 50.7421875 C25.93136525 50.83632494 23.9657146 50.91924632 22 51 C26.29 51.33 30.58 51.66 35 52 C35 52.33 35 52.66 35 53 C33.85660156 53.06058594 32.71320313 53.12117188 31.53515625 53.18359375 C30.04425695 53.26798428 28.55337225 53.35263302 27.0625 53.4375 C25.93038086 53.49647461 25.93038086 53.49647461 24.77539062 53.55664062 C21.08055813 53.44038024 21.08055813 53.44038024 18 55 C15.64686445 55.07271741 13.29166332 55.08370868 10.9375 55.0625 C9.64714844 55.05347656 8.35679687 55.04445313 7.02734375 55.03515625 C6.02832031 55.02355469 5.02929688 55.01195312 4 55 C4.33 53.68 4.66 52.36 5 51 C3.35 51 1.7 51 0 51 C0 34.17 0 17.34 0 0 Z " fill="#CFBFAF" transform="translate(349,283)"/>
<path d="M0 0 C0 29.04 0 58.08 0 88 C-2.31 88 -4.62 88 -7 88 C-7 87.67 -7 87.34 -7 87 C-5.02 87 -3.04 87 -1 87 C-1 58.62 -1 30.24 -1 1 C-23.01458056 1.72154317 -23.01458056 1.72154317 -45 3 C-46.14814997 5.29629994 -46.30769809 7.07698086 -46.5625 9.625 C-46.64628906 10.44226563 -46.73007812 11.25953125 -46.81640625 12.1015625 C-46.87699219 12.72804687 -46.93757813 13.35453125 -47 14 C-47.33 14 -47.66 14 -48 14 C-48.33 12.35 -48.66 10.7 -49 9 C-49.33 19.23 -49.66 29.46 -50 40 C-50.33 40 -50.66 40 -51 40 C-51 27.46 -51 14.92 -51 2 C-35 0 -35 0 0 0 Z " fill="#C0AE9C" transform="translate(401,243)"/>
<path d="M0 0 C-0.33 0.66 -0.66 1.32 -1 2 C-12.22 2.33 -23.44 2.66 -35 3 C-34.67 4.65 -34.34 6.3 -34 8 C-34.28529363 9.34443164 -34.62132063 10.67882975 -35 12 C-35.33511194 16.1795353 -35.42684413 20.37221008 -35.5625 24.5625 C-35.6049585 25.81635498 -35.64741699 27.07020996 -35.69116211 28.36206055 C-36.17308108 44.23823616 -36.09155656 60.11845814 -36 76 C-36.99 76.495 -36.99 76.495 -38 77 C-38 52.25 -38 27.5 -38 2 C-34.33918884 1.38986481 -31.09960576 0.86629007 -27.4609375 0.68359375 C-26.63819336 0.64161865 -25.81544922 0.59964355 -24.96777344 0.55639648 C-24.1121582 0.51716064 -23.25654297 0.4779248 -22.375 0.4375 C-21.49360352 0.3950415 -20.61220703 0.35258301 -19.70410156 0.30883789 C-13.1334668 0.00968019 -6.57756247 -0.12032126 0 0 Z " fill="#BCA997" transform="translate(312,246)"/>
<path d="M0 0 C2.31 0 4.62 0 7 0 C7 28.71 7 57.42 7 87 C-1.17507494 88.88655576 -8.4172863 90.45954153 -16.625 91.0625 C-23.11731872 91.60352656 -29.46479339 92.25070523 -35.84375 93.6328125 C-38.26117652 94.04447571 -40.55236204 94.0603291 -43 94 C-39.98540676 91.41100154 -37.85512519 90.55441184 -33.921875 90.12109375 C-32.43844604 89.94767456 -32.43844604 89.94767456 -30.92504883 89.77075195 C-29.87728271 89.66077881 -28.8295166 89.55080566 -27.75 89.4375 C-25.58201598 89.19023801 -23.41404727 88.94284179 -21.24609375 88.6953125 C-20.18374512 88.57833008 -19.12139648 88.46134766 -18.02685547 88.34082031 C-13.94856178 87.88160931 -9.88117326 87.34921652 -5.8125 86.8125 C-1.76646622 86.28250835 1.89949856 86 6 86 C6 57.95 6 29.9 6 1 C4.02 1 2.04 1 0 1 C0 0.67 0 0.34 0 0 Z " fill="#C0AB97" transform="translate(393,426)"/>
<path d="M0 0 C3.63 0 7.26 0 11 0 C11.77061883 3.85309413 12.11499552 6.71468225 12.08178711 10.55297852 C12.0752562 11.64083145 12.06872528 12.72868439 12.06199646 13.84950256 C12.05056107 15.01420578 12.03912567 16.178909 12.02734375 17.37890625 C12.01470211 19.85091008 12.00234081 22.32291536 11.99023438 24.79492188 C11.96537111 28.68811554 11.93733982 32.58123413 11.90405273 36.47436523 C11.87390936 40.23421721 11.8560975 43.99397224 11.83984375 47.75390625 C11.82638412 48.9206337 11.8129245 50.08736115 11.79905701 51.28944397 C11.79567825 52.37414474 11.7922995 53.45884552 11.78881836 54.57641602 C11.78136093 55.52952164 11.7739035 56.48262726 11.76622009 57.46461487 C12.01099763 60.11927127 12.77871769 61.67013315 14 64 C13.36959957 65.35085807 12.69748583 66.68252676 12 68 C11.960008 69.99960012 11.95653201 72.00047242 12 74 C11.505 74.99 11.505 74.99 11 76 C11.53915039 75.83701416 12.07830078 75.67402832 12.63378906 75.50610352 C15.43395024 74.90718336 17.99549433 74.88773211 20.859375 74.90234375 C21.97441406 74.90556641 23.08945312 74.90878906 24.23828125 74.91210938 C25.39714844 74.92048828 26.55601562 74.92886719 27.75 74.9375 C28.92433594 74.94201172 30.09867187 74.94652344 31.30859375 74.95117188 C34.20578072 74.96294906 37.10286454 74.97939674 40 75 C40 75.33 40 75.66 40 76 C29.7411285 77.28235894 19.33870828 77 9 77 C9.495 39.38 9.495 39.38 10 1 C6.7 1 3.4 1 0 1 C0 0.67 0 0.34 0 0 Z " fill="#CEC1B6" transform="translate(340,164)"/>
<path d="M0 0 C0.33 0 0.66 0 1 0 C1 36.96 1 73.92 1 112 C0.67 112 0.34 112 0 112 C-0.02505615 111.38592285 -0.0501123 110.7718457 -0.07592773 110.13916016 C-0.19345264 107.30097366 -0.31545526 104.4629956 -0.4375 101.625 C-0.47681641 100.65949219 -0.51613281 99.69398438 -0.55664062 98.69921875 C-0.79672967 93.19563914 -1.1714915 87.74175882 -1.78881836 82.26708984 C-2.70669935 72.41339869 -2.70669935 72.41339869 -1 69 C-0.92560215 67.03645475 -0.91667587 65.0703126 -0.9375 63.10546875 C-0.95006836 61.23181641 -0.95006836 61.23181641 -0.96289062 59.3203125 C-0.96909424 58.64774414 -0.97529785 57.97517578 -0.98168945 57.28222656 C-1.10059785 43.67910621 -0.8956424 30.09738612 -0.5 16.5 C-0.47599121 15.67156586 -0.45198242 14.84313171 -0.42724609 13.98959351 C-0.29082951 9.32619938 -0.14818297 4.66303445 0 0 Z " fill="#DED7CF" transform="translate(407,399)"/>
<path d="M0 0 C6.65050424 -0.24991456 12.56986533 0.26044666 19 2 C19 1.34 19 0.68 19 0 C20.32 0 21.64 0 23 0 C23 0.99 23 1.98 23 3 C20.03 3 17.06 3 14 3 C14 6.96 14 10.92 14 15 C17.3 15 20.6 15 24 15 C24 36.78 24 58.56 24 81 C23.67 81 23.34 81 23 81 C23 59.55 23 38.1 23 16 C19.7 16 16.4 16 13 16 C13 11.38 13 6.76 13 2 C8.38 2 3.76 2 -1 2 C-0.67 1.34 -0.34 0.68 0 0 Z " fill="#E0DAD6" transform="translate(326,150)"/>
<path d="M0 0 C0.33 0 0.66 0 1 0 C1.20004418 10.50901228 1.38378316 21.01817011 1.54658794 31.52782917 C1.62269618 36.40765256 1.70446322 41.2872455 1.79907227 46.16674805 C1.89013275 50.8738929 1.96644673 55.58106514 2.03244972 60.28862572 C2.06026622 62.08648819 2.09343668 63.88427589 2.13199425 65.68194008 C2.18501022 68.19593265 2.21914845 70.70951541 2.2487793 73.22387695 C2.26891586 73.97050095 2.28905243 74.71712494 2.30979919 75.4863739 C2.32279968 77.56416321 2.32279968 77.56416321 2 81 C1.01 81.99 0.02 82.98 -1 84 C-1.33 76.74 -1.66 69.48 -2 62 C-1.34 62 -0.68 62 0 62 C0 41.54 0 21.08 0 0 Z " fill="#C7BBB1" transform="translate(273,439)"/>
<path d="M0 0 C0.97710937 0.00902344 1.95421875 0.01804688 2.9609375 0.02734375 C5.3075842 0.05035009 7.65363399 0.08282251 10 0.125 C10 0.455 10 0.785 10 1.125 C9.03586182 1.1751123 8.07172363 1.22522461 7.07836914 1.27685547 C3.51269273 1.46472871 -0.05217902 1.66523338 -3.61694336 1.86962891 C-5.16199975 1.95643165 -6.70725447 2.0397743 -8.25268555 2.11962891 C-10.46984739 2.23478768 -12.68600591 2.36223792 -14.90234375 2.4921875 C-15.94454323 2.54232498 -15.94454323 2.54232498 -17.00779724 2.59347534 C-18.67803499 2.69748364 -20.34148168 2.9017762 -22 3.125 C-23.14814997 5.42129994 -23.30769809 7.20198086 -23.5625 9.75 C-23.64628906 10.56726563 -23.73007812 11.38453125 -23.81640625 12.2265625 C-23.87699219 12.85304687 -23.93757813 13.47953125 -24 14.125 C-24.33 14.125 -24.66 14.125 -25 14.125 C-25.33 12.475 -25.66 10.825 -26 9.125 C-26.33 19.355 -26.66 29.585 -27 40.125 C-27.33 40.125 -27.66 40.125 -28 40.125 C-28 27.585 -28 15.045 -28 2.125 C-18.32713891 0.91589236 -9.58532177 -0.17550589 0 0 Z " fill="#C8B9A8" transform="translate(378,242.875)"/>
<path d="M0 0 C1.29922995 2.5984599 0.81286289 3.75961451 0.1875 6.5625 C0.01605469 7.36816406 -0.15539062 8.17382812 -0.33203125 9.00390625 C-1 11 -1 11 -3 12 C-5.3329866 12.04022391 -7.66706666 12.04320247 -10 12 C-10 8.37 -10 4.74 -10 1 C-6.7 0.67 -3.4 0.34 0 0 Z " fill="#C09E7C" transform="translate(350,152)"/>
<path d="M0 0 C0.99 0.33 1.98 0.66 3 1 C2.67 1.33 2.34 1.66 2 2 C1.8768483 3.74838835 1.82212189 5.50164504 1.79467773 7.25415039 C1.77473251 8.37523697 1.75478729 9.49632355 1.73423767 10.65138245 C1.71752518 11.8711528 1.70081268 13.09092316 1.68359375 14.34765625 C1.66281265 15.58921982 1.64203156 16.83078339 1.62062073 18.10997009 C1.56616391 21.41599123 1.51595795 24.72202245 1.46777344 28.02813721 C1.41760144 31.39967491 1.36189299 34.77112053 1.30664062 38.14257812 C1.19929962 44.76164551 1.09755802 51.3807816 1 58 C1.66 58.33 2.32 58.66 3 59 C2.505 60.4540625 2.505 60.4540625 2 61.9375 C0.73126248 66.29766837 0.81614472 70.49554566 1 75 C-1 73 -1 73 -1.20254517 69.98812866 C-1.18033905 68.69573273 -1.15813293 67.40333679 -1.13525391 66.07177734 C-1.12579239 65.35947464 -1.11633087 64.64717194 -1.10658264 63.9132843 C-1.07284762 61.55391074 -1.024749 59.19505656 -0.9765625 56.8359375 C-0.95040123 55.20213181 -0.92513376 53.56831159 -0.90072632 51.93447876 C-0.83401773 47.63034701 -0.75513767 43.32652025 -0.67376709 39.02264404 C-0.59290301 34.63240279 -0.5234881 30.24198239 -0.453125 25.8515625 C-0.31332238 17.23415753 -0.16066785 8.61704107 0 0 Z " fill="#C5B6A8" transform="translate(349,431)"/>
<path d="M0 0 C-1.98 0.99 -1.98 0.99 -4 2 C-2.68 2.66 -1.36 3.32 0 4 C-4.29 4 -8.58 4 -13 4 C-13 4.66 -13 5.32 -13 6 C-14.05960937 6.13277344 -15.11921875 6.26554687 -16.2109375 6.40234375 C-17.59898279 6.58053875 -18.98700231 6.7589346 -20.375 6.9375 C-21.07367188 7.02451172 -21.77234375 7.11152344 -22.4921875 7.20117188 C-26.36783575 7.66318128 -26.36783575 7.66318128 -30 9 C-30 8.01 -30 7.02 -30 6 C-25.71 5.34 -21.42 4.68 -17 4 C-19.31 3.67 -21.62 3.34 -24 3 C-24 2.67 -24 2.34 -24 2 C-21.50072231 1.66029235 -19.00080405 1.32811968 -16.5 1 C-15.80390625 0.90460938 -15.1078125 0.80921875 -14.390625 0.7109375 C-9.55299871 0.0838378 -4.87818804 -0.08789528 0 0 Z " fill="#CFBFAD" transform="translate(383,424)"/>
<path d="M0 0 C1.10408203 0.01353516 1.10408203 0.01353516 2.23046875 0.02734375 C4.0287888 0.05069856 5.82693911 0.08656164 7.625 0.125 C4.8111801 1.6722228 2.41103822 2.48134457 -0.76171875 2.94140625 C-1.61032471 3.06539795 -2.45893066 3.18938965 -3.33325195 3.31713867 C-4.23390381 3.43935791 -5.13455566 3.56157715 -6.0625 3.6875 C-7.44924927 3.88146362 -7.44924927 3.88146362 -8.86401367 4.0793457 C-17.35034964 5.21682475 -25.82302232 5.7999576 -34.375 6.125 C-33.375 4.125 -33.375 4.125 -31.7734375 3.52734375 C-27.25670056 2.76965009 -22.67050579 2.71907693 -18.1015625 2.50390625 C-14.44618796 2.27741014 -14.44618796 2.27741014 -11.421875 1.09765625 C-7.52220707 -0.14723774 -4.05967171 -0.09543532 0 0 Z " fill="#BDA58D" transform="translate(311.375,522.875)"/>
<path d="M0 0 C1.32 0.33 2.64 0.66 4 1 C3.34 1.66 2.68 2.32 2 3 C1.66745753 5.79171088 1.66745753 5.79171088 1.68115234 9.10205078 C1.66128265 10.38322784 1.64141296 11.66440491 1.62094116 12.98440552 C1.60906383 14.38803942 1.59740102 15.79167516 1.5859375 17.1953125 C1.56723308 18.62736131 1.54766022 20.05939902 1.5272522 21.49142456 C1.47584794 25.26264917 1.43626689 29.03390955 1.39910889 32.80529785 C1.359121 36.65284126 1.30800496 40.50023483 1.2578125 44.34765625 C1.16095513 51.89833483 1.07658205 59.44908568 1 67 C0.67 67 0.34 67 0 67 C0 44.89 0 22.78 0 0 Z " fill="#D0C1B6" transform="translate(349,338)"/>
<path d="M0 0 C2.64 0 5.28 0 8 0 C7.01 0.66 6.02 1.32 5 2 C4.83330682 5.45828022 4.83330682 5.45828022 5 9 C4.67 9.99 4.34 10.98 4 12 C1.36 12 -1.28 12 -4 12 C-3.34 11.67 -2.68 11.34 -2 11 C-1.57038779 8.94068468 -1.57038779 8.94068468 -1.4375 6.5625 C-1.09333333 2.18666667 -1.09333333 2.18666667 0 0 Z " fill="#B79774" transform="translate(351,152)"/>
<path d="M0 0 C2 2 2 2 2.1875 5 C2 8 2 8 1 10 C1.53915039 9.83701416 2.07830078 9.67402832 2.63378906 9.50610352 C5.43395024 8.90718336 7.99549433 8.88773211 10.859375 8.90234375 C11.97441406 8.90556641 13.08945312 8.90878906 14.23828125 8.91210938 C15.39714844 8.92048828 16.55601562 8.92886719 17.75 8.9375 C18.92433594 8.94201172 20.09867187 8.94652344 21.30859375 8.95117188 C24.20578072 8.96294906 27.10286454 8.97939674 30 9 C30 9.33 30 9.66 30 10 C23.30139078 11.02250405 16.7684802 11.11756273 10 11.0625 C8.93910156 11.05798828 7.87820313 11.05347656 6.78515625 11.04882812 C4.19007945 11.03713859 1.59503205 11.01920665 -1 11 C-0.67 7.37 -0.34 3.74 0 0 Z " fill="#C6B3A0" transform="translate(350,230)"/>
<path d="M0 0 C-0.33 0.66 -0.66 1.32 -1 2 C-4.59464424 3.00946307 -8.0214252 3.11753249 -11.73828125 3.09765625 C-12.80498047 3.09443359 -13.87167969 3.09121094 -14.97070312 3.08789062 C-16.62489258 3.07532227 -16.62489258 3.07532227 -18.3125 3.0625 C-19.43462891 3.05798828 -20.55675781 3.05347656 -21.71289062 3.04882812 C-24.4753151 3.03707313 -27.23762998 3.02064077 -30 3 C-29.67 2.34 -29.34 1.68 -29 1 C-19.32153574 0.35782702 -9.70618661 -0.16831537 0 0 Z " fill="#DCCFC4" transform="translate(400,332)"/>
<path d="M0 0 C0.33 0 0.66 0 1 0 C1.07347656 1.28197266 1.07347656 1.28197266 1.1484375 2.58984375 C1.22320312 3.69457031 1.29796875 4.79929687 1.375 5.9375 C1.44460938 7.03964844 1.51421875 8.14179688 1.5859375 9.27734375 C1.72257812 10.17582031 1.85921875 11.07429688 2 12 C2.66 12.33 3.32 12.66 4 13 C4 15.97 4 18.94 4 22 C2.37536158 22.05395478 0.75021459 22.09277195 -0.875 22.125 C-1.77992188 22.14820313 -2.68484375 22.17140625 -3.6171875 22.1953125 C-6 22 -6 22 -8 20 C-2.25 19.875 -2.25 19.875 0 21 C0 14.07 0 7.14 0 0 Z " fill="#A98B6D" transform="translate(394,489)"/>
<path d="M0 0 C2.7889256 4.1833884 2.33066174 7.64793291 2.3125 12.5625 C2.32861328 13.43841797 2.34472656 14.31433594 2.36132812 15.21679688 C2.36197266 16.05404297 2.36261719 16.89128906 2.36328125 17.75390625 C2.36775269 18.90354858 2.36775269 18.90354858 2.37231445 20.07641602 C2.24945068 20.71119873 2.12658691 21.34598145 2 22 C1.01 22.66 0.02 23.32 -1 24 C-1.33 16.74 -1.66 9.48 -2 2 C-1.34 2 -0.68 2 0 2 C0 1.34 0 0.68 0 0 Z " fill="#BBA793" transform="translate(273,499)"/>
<path d="M0 0 C0.96099609 0.00902344 1.92199219 0.01804687 2.91210938 0.02734375 C5.25417805 0.05064792 7.59569792 0.08335942 9.9375 0.125 C6.33593738 2.52604174 4.29210583 2.51081144 0 2.75 C-0.66008057 2.78794678 -1.32016113 2.82589355 -2.00024414 2.86499023 C-8.02051961 3.18413214 -14.03497825 3.22601992 -20.0625 3.125 C-20.0625 2.795 -20.0625 2.465 -20.0625 2.125 C-13.22591143 0.34398103 -7.04638717 -0.12749204 0 0 Z " fill="#DBD0C2" transform="translate(309.0625,337.875)"/>
<path d="M0 0 C6.65050424 -0.24991456 12.56986533 0.26044666 19 2 C19 1.34 19 0.68 19 0 C20.32 0 21.64 0 23 0 C23 0.99 23 1.98 23 3 C20.03 3 17.06 3 14 3 C14 6.63 14 10.26 14 14 C13.67 14 13.34 14 13 14 C13 10.04 13 6.08 13 2 C8.38 2 3.76 2 -1 2 C-0.67 1.34 -0.34 0.68 0 0 Z " fill="#DFD4C8" transform="translate(326,150)"/>
<path d="M0 0 C1.258125 -0.020625 2.51625 -0.04125 3.8125 -0.0625 C4.52019531 -0.07410156 5.22789062 -0.08570313 5.95703125 -0.09765625 C8 0 8 0 11 1 C12.72532263 1.22008052 14.45534033 1.40503094 16.1875 1.5625 C17.53908203 1.68818359 17.53908203 1.68818359 18.91796875 1.81640625 C19.94857422 1.90728516 19.94857422 1.90728516 21 2 C21 2.33 21 2.66 21 3 C15.06 3 9.12 3 3 3 C3 2.34 3 1.68 3 1 C2.01 0.67 1.02 0.34 0 0 Z " fill="#A78C73" transform="translate(295,239)"/>
<path d="M0 0 C1.75570313 0.01353516 1.75570313 0.01353516 3.546875 0.02734375 C4.43890625 0.03894531 5.3309375 0.05054688 6.25 0.0625 C2.59827367 2.33099666 -0.7627118 2.4520951 -5 2.6875 C-6.26328125 2.76226562 -7.5265625 2.83703125 -8.828125 2.9140625 C-9.79234375 2.96304687 -10.7565625 3.01203125 -11.75 3.0625 C-10.75 1.0625 -10.75 1.0625 -9.109375 0.44140625 C-6.04728012 -0.05035402 -3.10003047 -0.0310003 0 0 Z " fill="#DCCDBD" transform="translate(389.75,423.9375)"/>
<path d="M0 0 C1.65 0 3.3 0 5 0 C4.67 0.99 4.34 1.98 4 3 C3.78196693 4.55853267 3.59633644 6.12182651 3.4375 7.6875 C3.31181641 8.89986328 3.31181641 8.89986328 3.18359375 10.13671875 C3.12300781 10.75160156 3.06242187 11.36648438 3 12 C2.67 12 2.34 12 2 12 C1.67 9.69 1.34 7.38 1 5 C0.67 5 0.34 5 0 5 C0 3.35 0 1.7 0 0 Z " fill="#BCAB96" transform="translate(351,245)"/>
<path d="M0 0 C5.0302076 0.52537724 10.01885239 1.10594786 15 2 C15 2.33 15 2.66 15 3 C10.38 3 5.76 3 1 3 C0.67 2.01 0.34 1.02 0 0 Z " fill="#AC9073" transform="translate(384,327)"/>
<path d="M0 0 C0.33 0 0.66 0 1 0 C1.04898437 0.67546875 1.09796875 1.3509375 1.1484375 2.046875 C1.22320312 2.93890625 1.29796875 3.8309375 1.375 4.75 C1.44460938 5.63171875 1.51421875 6.5134375 1.5859375 7.421875 C1.99850055 9.99066382 2.71160957 11.75841015 4 14 C2.02 14.99 2.02 14.99 0 16 C0 10.72 0 5.44 0 0 Z " fill="#CCBCB0" transform="translate(350,214)"/>
<path d="M0 0 C0.98484375 0.00902344 1.9696875 0.01804687 2.984375 0.02734375 C4.10585938 0.04474609 4.10585938 0.04474609 5.25 0.0625 C5.25 0.3925 5.25 0.7225 5.25 1.0625 C-0.13027025 2.25338986 -5.20291384 3.3544519 -10.75 3.0625 C-9.75 1.0625 -9.75 1.0625 -8.046875 0.44140625 C-5.32835155 -0.00705765 -2.75442923 -0.03279082 0 0 Z " fill="#B9A18A" transform="translate(287.75,525.9375)"/>
</svg>
