<?xml version="1.0" encoding="UTF-8"?>
<svg version="1.1" xmlns="http://www.w3.org/2000/svg" width="445" height="291">
<path d="M0 0 C146.85 0 293.7 0 445 0 C445 96.03 445 192.06 445 291 C298.15 291 151.3 291 0 291 C0 194.97 0 98.94 0 0 Z " fill="#F1F1F1" transform="translate(0,0)"/>
<path d="M0 0 C2.04434042 -0.00983329 4.08772318 -0.0411024 6.13183594 -0.07226562 C16.85104602 -0.15847458 26.36821486 1.52501753 36.28027344 5.67773438 C37.23933594 6.06832031 38.19839844 6.45890625 39.18652344 6.86132812 C41.9931697 8.35341567 43.78307486 9.77038091 45.78027344 12.24023438 C46.40969028 17.81506931 45.97099421 21.45415322 42.78027344 26.24023438 C40.59277344 27.61523438 40.59277344 27.61523438 38.78027344 28.24023438 C39.11027344 30.22023438 39.44027344 32.20023438 39.78027344 34.24023438 C40.93462891 33.87671875 40.93462891 33.87671875 42.11230469 33.50585938 C55.08832197 29.71936724 68.39512439 27.96181076 81.78027344 26.24023438 C82.97704712 26.08119629 82.97704712 26.08119629 84.19799805 25.91894531 C104.35272993 23.55058669 128.8090833 22.21733886 147.78027344 30.24023438 C148.5152002 30.55089844 149.25012695 30.8615625 150.00732422 31.18164062 C157.03322862 34.25537963 163.73891534 37.24714325 168.78027344 43.24023438 C169.74340089 49.66108407 168.15134503 54.72295 164.78027344 60.24023438 C160.68271246 64.24023438 160.68271246 64.24023438 157.78027344 64.24023438 C160.450405 80.6401161 160.450405 80.6401161 163.40527344 96.99023438 C164.28431067 101.61118418 165.15774065 106.23162024 165.96777344 110.86523438 C166.20560547 112.21488281 166.20560547 112.21488281 166.44824219 113.59179688 C166.81417991 116.51068838 166.9023673 119.3015615 166.78027344 122.24023438 C164.90383582 124.11667199 162.28221643 123.42008424 159.78808594 123.47070312 C157.78027344 123.24023438 157.78027344 123.24023438 154.78027344 121.24023438 C154.15376282 119.42784119 154.15376282 119.42784119 153.79711914 117.20874023 C153.65720047 116.37704819 153.5172818 115.54535614 153.37312317 114.6884613 C153.23549057 113.78644485 153.09785797 112.88442841 152.95605469 111.95507812 C152.80492722 111.02482315 152.65379974 110.09456818 152.49809265 109.13612366 C152.18028122 107.16245552 151.86883607 105.18775342 151.56323242 103.2121582 C151.09804132 100.21171181 150.61181801 97.21527488 150.12207031 94.21875 C149.81546649 92.29772756 149.51008958 90.37650882 149.20605469 88.45507812 C149.0623494 87.56723129 148.9186441 86.67938446 148.77058411 85.76463318 C147.91875577 80.19018623 147.65013288 74.87977721 147.78027344 69.24023438 C146.78060547 69.63855469 146.78060547 69.63855469 145.76074219 70.04492188 C137.90963676 73.05359724 130.23604851 75.24023438 121.78027344 75.24023438 C121.88049805 76.08577881 121.98072266 76.93132324 122.08398438 77.80249023 C124.43350541 97.72946545 126.56401388 117.66815339 128.47265625 137.64233398 C128.55298599 138.48250565 128.63331573 139.32267731 128.71607971 140.18830872 C128.86467388 141.7466479 129.01248405 143.30506217 129.1592865 144.86357117 C129.58353222 149.33335395 130.05949371 153.79410272 130.58123779 158.25361633 C130.85068435 160.94302102 130.8769654 163.6015692 130.84277344 166.30273438 C130.83375 167.24246094 130.82472656 168.1821875 130.81542969 169.15039062 C130.79802734 170.18486328 130.79802734 170.18486328 130.78027344 171.24023438 C127.24144509 173.16633533 124.84277584 173.58597926 120.78027344 173.24023438 C117.78027344 171.24023438 117.78027344 171.24023438 117.00683594 167.48242188 C116.79113088 165.69512656 116.59239459 163.90574796 116.40527344 162.11523438 C116.29006348 161.10549561 116.17485352 160.09575684 116.05615234 159.05541992 C115.70270187 155.90281194 115.36492378 152.74883319 115.03149414 149.59405518 C114.75200158 146.97534028 114.46488361 144.35752502 114.17675781 141.73974609 C113.60804129 136.56817463 113.04844483 131.39568069 112.49481201 126.22247314 C112.27167929 124.13943308 112.04715262 122.05654178 111.82110596 119.97381592 C110.31974617 106.06811806 109.283549 92.2183953 108.78027344 78.24023438 C108.2016304 78.305896 107.62298737 78.37155762 107.02680969 78.43920898 C105.43078854 78.62031777 103.83474366 78.8012176 102.23867798 78.98193359 C100.58057175 79.17053251 98.92285641 79.36257718 97.26538086 79.55664062 C91.08670525 80.2310429 84.9922893 80.34686571 78.78027344 80.24023438 C78.69986816 81.1385498 78.61946289 82.03686523 78.53662109 82.96240234 C78.23435981 86.29158837 77.92411505 89.61982762 77.60839844 92.94775391 C77.47334525 94.38886227 77.34149131 95.83027416 77.21289062 97.27197266 C77.02759545 99.34300254 76.83086063 101.412672 76.63183594 103.48242188 C76.51662598 104.72878418 76.40141602 105.97514648 76.28271484 107.25927734 C75.78027344 110.24023438 75.78027344 110.24023438 73.78027344 112.24023438 C67.45769279 112.57894405 67.45769279 112.57894405 64.78027344 111.24023438 C64.37206462 101.1484053 65.61918668 91.24424082 66.78027344 81.24023438 C65.85408203 81.29244141 65.85408203 81.29244141 64.90917969 81.34570312 C63.63880859 81.38630859 63.63880859 81.38630859 62.34277344 81.42773438 C61.5190625 81.46253906 60.69535156 81.49734375 59.84667969 81.53320312 C55.5804407 81.12560067 51.78776909 79.70849073 47.78027344 78.24023438 C47.90144531 78.97137451 48.02261719 79.70251465 48.14746094 80.45581055 C48.69585318 83.77912025 49.23812319 87.10340093 49.78027344 90.42773438 C49.97105469 91.57822266 50.16183594 92.72871094 50.35839844 93.9140625 C50.53886719 95.02587891 50.71933594 96.13769531 50.90527344 97.28320312 C51.07285156 98.30438232 51.24042969 99.32556152 51.41308594 100.37768555 C51.75442051 103.0386881 51.84912046 105.56165506 51.78027344 108.24023438 C50.3223446 108.29423174 48.86384632 108.33302614 47.40527344 108.36523438 C46.59316406 108.3884375 45.78105469 108.41164063 44.94433594 108.43554688 C42.78027344 108.24023438 42.78027344 108.24023438 40.78027344 106.24023438 C40.14746094 103.63085938 40.14746094 103.63085938 39.65527344 100.49023438 C39.48769531 99.46414062 39.32011719 98.43804687 39.14746094 97.38085938 C38.78737865 94.30100665 38.71535531 91.3377564 38.78027344 88.24023438 C38.12027344 88.24023438 37.46027344 88.24023438 36.78027344 88.24023438 C36.72911377 88.97687317 36.6779541 89.71351196 36.62524414 90.47247314 C36.09200752 97.53701547 35.20299919 104.43881523 33.96777344 111.41210938 C33.7939917 112.41937073 33.62020996 113.42663208 33.44116211 114.4644165 C32.89241072 117.64055852 32.33674609 120.81543693 31.78027344 123.99023438 C31.2249878 127.17950538 30.67121451 130.36902814 30.11938477 133.55889893 C29.77774159 135.53158337 29.43395719 137.50389864 29.08764648 139.47576904 C28.37447136 143.57506082 27.71918892 147.64069986 27.29199219 151.78027344 C26.78027344 155.24023438 26.78027344 155.24023438 24.78027344 157.24023438 C22.68652344 157.50585938 22.68652344 157.50585938 20.28027344 157.49023438 C19.48621094 157.49539062 18.69214844 157.50054687 17.87402344 157.50585938 C15.78027344 157.24023438 15.78027344 157.24023438 13.78027344 155.24023438 C13.74369812 153.01591492 13.74369812 153.01591492 14.04858398 150.28588867 C14.15866791 149.29495209 14.26875183 148.3040155 14.38217163 147.28305054 C14.98530706 142.6730985 15.70213126 138.09197591 16.48730469 133.50976562 C16.65397141 132.51684006 16.82063812 131.52391449 16.99235535 130.50090027 C17.52197581 127.35084778 18.05721451 124.20178206 18.59277344 121.05273438 C18.94016173 118.99355417 19.28716934 116.93430971 19.63378906 114.875 C19.89154617 113.34587479 19.89154617 113.34587479 20.1545105 111.78585815 C20.50087753 109.7297394 20.84668402 107.67352614 21.19192505 105.61721802 C22.09572666 100.2457589 23.01836427 94.87847717 23.96923828 89.51513672 C24.15951096 88.42335617 24.34978363 87.33157562 24.54582214 86.20671082 C24.9095482 84.1202308 25.28021725 82.03494534 25.65888977 79.9511261 C25.90206184 78.54288826 25.90206184 78.54288826 26.15014648 77.10620117 C26.36939034 75.87416206 26.36939034 75.87416206 26.59306335 74.61723328 C26.80486626 71.92798028 26.51821811 69.83119552 25.78027344 67.24023438 C25.16152344 66.66273438 24.54277344 66.08523437 23.90527344 65.49023438 C19.9732555 61.32692127 19.02097029 56.04546074 18.28027344 50.49023438 C18.93557838 46.23075224 20.49069339 44.93170896 23.78027344 42.24023438 C24.50214844 41.64210937 25.22402344 41.04398438 25.96777344 40.42773438 C27.78027344 39.24023438 27.78027344 39.24023438 29.78027344 39.24023438 C29.78027344 37.59023437 29.78027344 35.94023438 29.78027344 34.24023438 C28.12705078 34.72943359 28.12705078 34.72943359 26.44042969 35.22851562 C18.50706028 37.5305583 10.60920303 39.6240506 2.46777344 41.05273438 C1.76982666 41.17624268 1.07187988 41.29975098 0.3527832 41.42700195 C-3.21731623 42.02150965 -6.60748512 42.2878811 -10.21972656 42.24023438 C-10.14455811 42.98031738 -10.06938965 43.72040039 -9.99194336 44.48291016 C-8.23816481 61.87222759 -6.69535569 79.26784237 -5.35205078 96.69360352 C-5.22855636 98.29508778 -5.10502107 99.89656889 -4.98144531 101.49804688 C-4.92017456 102.29260788 -4.85890381 103.08716888 -4.79577637 103.9058075 C-4.34104906 109.76662647 -3.8593322 115.62488103 -3.36425781 121.48242188 C-3.29419525 122.31250259 -3.22413269 123.14258331 -3.15194702 123.99781799 C-2.81549226 127.97625957 -2.47615576 131.95443614 -2.13378906 135.93237305 C-2.01263603 137.35920721 -1.89153918 138.78604614 -1.77050781 140.21289062 C-1.66391846 141.45304932 -1.5573291 142.69320801 -1.44750977 143.97094727 C-1.37234131 145.04981201 -1.29717285 146.12867676 -1.21972656 147.24023438 C-1.1464917 148.16892334 -1.07325684 149.0976123 -0.99780273 150.05444336 C-1.0710376 150.77575439 -1.14427246 151.49706543 -1.21972656 152.24023438 C-5.28822065 154.95256377 -7.38449441 154.54723324 -12.21972656 154.24023438 C-14.69248876 151.76747218 -14.57132843 150.77705185 -14.8581543 147.35205078 C-14.94851959 146.32597717 -15.03888489 145.29990356 -15.13198853 144.24273682 C-15.22152802 143.12042664 -15.3110675 141.99811646 -15.40332031 140.84179688 C-15.50349457 139.67598083 -15.60366882 138.51016479 -15.70687866 137.309021 C-16.03244099 133.49511057 -16.34509951 129.68026591 -16.65722656 125.86523438 C-16.87680796 123.25270675 -17.09710603 120.64023926 -17.31811523 118.02783203 C-17.7563858 112.83272826 -18.18964336 107.63724236 -18.61914062 102.44140625 C-19.12973288 96.28391884 -19.66423002 90.12889169 -20.21191406 83.97460938 C-20.42175512 81.58589497 -20.63082548 79.1971151 -20.83938599 76.80828857 C-20.96551355 75.37391942 -21.09343121 73.93970626 -21.22335815 72.50567627 C-22.07652138 63.04388765 -22.36430279 53.73153718 -22.21972656 44.24023438 C-24.85972656 44.57023437 -27.49972656 44.90023437 -30.21972656 45.24023438 C-30.208125 45.90410156 -30.19652344 46.56796875 -30.18457031 47.25195312 C-30.17554688 48.13496094 -30.16652344 49.01796875 -30.15722656 49.92773438 C-30.145625 50.79785156 -30.13402344 51.66796875 -30.12207031 52.56445312 C-30.21972656 55.24023438 -30.21972656 55.24023438 -30.68530273 57.38916016 C-31.37826145 61.08599516 -31.61497675 64.78676517 -31.86816406 68.53320312 C-31.98728969 70.14848676 -32.1071016 71.7637199 -32.22753906 73.37890625 C-32.41393718 75.91327955 -32.59606679 78.44766068 -32.76660156 80.9831543 C-32.93349684 83.43845878 -33.11805073 85.89190655 -33.30566406 88.34570312 C-33.35266449 89.10715134 -33.39966492 89.86859955 -33.4480896 90.65312195 C-33.61962891 92.7878418 -33.61962891 92.7878418 -34.21972656 96.24023438 C-37.67634987 98.54464991 -39.16830538 98.49883573 -43.21972656 98.24023438 C-43.87972656 97.91023438 -44.53972656 97.58023438 -45.21972656 97.24023438 C-44.68525865 86.48055147 -44.00081335 75.73488735 -43.21972656 64.99023438 C-43.13674316 63.82451904 -43.05375977 62.65880371 -42.96826172 61.45776367 C-42.84523682 59.79547729 -42.84523682 59.79547729 -42.71972656 58.09960938 C-42.61144531 56.62186035 -42.61144531 56.62186035 -42.50097656 55.11425781 C-42.20843998 52.1248996 -41.74589762 49.19665799 -41.21972656 46.24023438 C-42.38761719 46.34851563 -42.38761719 46.34851563 -43.57910156 46.45898438 C-50.89604921 47.06592012 -58.19179225 47.3970051 -65.53222656 47.49023438 C-66.3549707 47.51150391 -67.17771484 47.53277344 -68.02539062 47.5546875 C-73.92292334 47.58783301 -78.74842291 46.41595747 -84.21972656 44.24023438 C-84.25710937 45.0884375 -84.29449219 45.93664062 -84.33300781 46.81054688 C-84.39875 47.98359375 -84.46449219 49.15664062 -84.53222656 50.36523438 C-84.59023437 51.5021875 -84.64824219 52.63914063 -84.70800781 53.81054688 C-85.03308543 57.42482282 -85.75804434 60.87953312 -86.54785156 64.41992188 C-88.4565579 73.03172081 -89.8279149 81.71247303 -91.20880127 90.42211914 C-91.816374 94.24039164 -92.43810356 98.05631548 -93.059021 101.87243652 C-94.48160887 110.5950083 -94.48160887 110.5950083 -95.85009766 119.32617188 C-96.33148275 122.4671987 -96.83471972 125.60376101 -97.34472656 128.74023438 C-97.4664624 129.59746094 -97.58819824 130.4546875 -97.71362305 131.33789062 C-98.33123279 135.00400347 -98.74129886 136.84726744 -101.66894531 139.25195312 C-104.44162369 140.32620677 -106.27617093 140.63801216 -109.21972656 140.24023438 C-111.21972656 138.24023438 -111.21972656 138.24023438 -111.26152039 136.03953552 C-110.50962396 129.26194149 -109.53793249 122.55511381 -108.36425781 115.83789062 C-108.18176987 114.77327606 -107.99928192 113.7086615 -107.81126404 112.61178589 C-107.42214663 110.34406311 -107.03120056 108.07665345 -106.6385498 105.80953979 C-106.02620805 102.26792498 -105.42127951 98.72511484 -104.81835938 95.18188477 C-103.13389772 85.29600917 -101.4410212 75.41226256 -99.66191101 65.54292297 C-99.05910665 62.19103168 -98.46856684 58.83704787 -97.87997437 55.4826355 C-97.60798659 53.95452267 -97.32942977 52.42756351 -97.0440979 50.90188599 C-96.65447414 48.81792389 -96.28629873 46.73123772 -95.92285156 44.64257812 C-95.71305664 43.49265381 -95.50326172 42.34272949 -95.28710938 41.15795898 C-95.20710874 37.69387354 -95.90848515 36.72617886 -98.21972656 34.24023438 C-100.38763694 30.13261471 -101.3422628 25.80222164 -100.21972656 21.24023438 C-92.93142807 10.59384613 -74.86689717 8.0476082 -63.0552063 5.8347168 C-58.69484135 5.08979254 -54.32049327 4.45654832 -49.93798828 3.85717773 C-47.71897642 3.55263142 -45.50264387 3.23234912 -43.28613281 2.91015625 C-28.89609801 0.86162323 -14.53282556 0.04206317 0 0 Z " fill="#664229" transform="translate(197.2197265625,63.759765625)"/>
<path d="M0 0 C2.04434042 -0.00983329 4.08772318 -0.0411024 6.13183594 -0.07226562 C16.85104602 -0.15847458 26.36821486 1.52501753 36.28027344 5.67773438 C37.23933594 6.06832031 38.19839844 6.45890625 39.18652344 6.86132812 C41.99940714 8.35673166 43.78977451 9.75442525 45.78027344 12.24023438 C46.41769892 15.10324716 46.06887812 17.25798601 45.78027344 20.24023438 C45.12027344 20.90023437 44.46027344 21.56023437 43.78027344 22.24023438 C43.12027344 22.24023438 42.46027344 22.24023438 41.78027344 22.24023438 C40.49839125 22.92837065 39.23014551 23.6419293 37.96777344 24.36523438 C23.79371959 31.55437984 7.41577072 34.30964484 -8.21972656 36.24023438 C-9.66871338 36.42730957 -9.66871338 36.42730957 -11.14697266 36.61816406 C-32.4373213 39.32074711 -53.79397358 40.31107333 -75.21972656 41.24023438 C-74.72472656 43.71523437 -74.72472656 43.71523437 -74.21972656 46.24023438 C-67.94972656 46.24023438 -61.67972656 46.24023438 -55.21972656 46.24023438 C-55.21972656 46.57023437 -55.21972656 46.90023437 -55.21972656 47.24023438 C-58.36537702 47.32868453 -61.51070031 47.38110272 -64.65722656 47.42773438 C-65.9749707 47.46543945 -65.9749707 47.46543945 -67.31933594 47.50390625 C-73.49986562 47.5723254 -78.49512743 46.56839551 -84.21972656 44.24023438 C-84.25710937 45.0884375 -84.29449219 45.93664062 -84.33300781 46.81054688 C-84.39875 47.98359375 -84.46449219 49.15664062 -84.53222656 50.36523438 C-84.59023437 51.5021875 -84.64824219 52.63914063 -84.70800781 53.81054688 C-85.03308543 57.42482282 -85.75804434 60.87953312 -86.54785156 64.41992188 C-88.4565579 73.03172081 -89.8279149 81.71247303 -91.20880127 90.42211914 C-91.816374 94.24039164 -92.43810356 98.05631548 -93.059021 101.87243652 C-94.48160887 110.5950083 -94.48160887 110.5950083 -95.85009766 119.32617188 C-96.33148275 122.4671987 -96.83471972 125.60376101 -97.34472656 128.74023438 C-97.4664624 129.59746094 -97.58819824 130.4546875 -97.71362305 131.33789062 C-98.33123279 135.00400347 -98.74129886 136.84726744 -101.66894531 139.25195312 C-104.44162369 140.32620677 -106.27617093 140.63801216 -109.21972656 140.24023438 C-111.21972656 138.24023438 -111.21972656 138.24023438 -111.26152039 136.03953552 C-110.50962396 129.26194149 -109.53793249 122.55511381 -108.36425781 115.83789062 C-108.18176987 114.77327606 -107.99928192 113.7086615 -107.81126404 112.61178589 C-107.42214663 110.34406311 -107.03120056 108.07665345 -106.6385498 105.80953979 C-106.02620805 102.26792498 -105.42127951 98.72511484 -104.81835938 95.18188477 C-103.13389772 85.29600917 -101.4410212 75.41226256 -99.66191101 65.54292297 C-99.05910665 62.19103168 -98.46856684 58.83704787 -97.87997437 55.4826355 C-97.60798659 53.95452267 -97.32942977 52.42756351 -97.0440979 50.90188599 C-96.65447414 48.81792389 -96.28629873 46.73123772 -95.92285156 44.64257812 C-95.71305664 43.49265381 -95.50326172 42.34272949 -95.28710938 41.15795898 C-95.20710874 37.69387354 -95.90848515 36.72617886 -98.21972656 34.24023438 C-100.38763694 30.13261471 -101.3422628 25.80222164 -100.21972656 21.24023438 C-92.93142807 10.59384613 -74.86689717 8.0476082 -63.0552063 5.8347168 C-58.69484135 5.08979254 -54.32049327 4.45654832 -49.93798828 3.85717773 C-47.71897642 3.55263142 -45.50264387 3.23234912 -43.28613281 2.91015625 C-28.89609801 0.86162323 -14.53282556 0.04206317 0 0 Z " fill="#AD9383" transform="translate(197.2197265625,63.759765625)"/>
<path d="M0 0 C0.73492676 0.31066406 1.46985352 0.62132813 2.22705078 0.94140625 C9.26005552 4.01825156 15.94193477 7.01290239 21 13 C22.01577761 17.84447784 22.01577761 17.84447784 21 21 C10.14987704 35.90739274 -16.50715676 37.86798168 -33.53515625 40.55859375 C-64.25362942 44.94694706 -93.32145618 48.28898211 -121 32 C-123.4609375 29.75 -123.4609375 29.75 -125 28 C-123.515 27.505 -123.515 27.505 -122 27 C-122 26.34 -122 25.68 -122 25 C-120.12671346 23.80415985 -118.19910603 22.69281168 -116.25 21.625 C-110.55584213 18.5178292 -110.55584213 18.5178292 -106 14 C-105.52077641 11.64475339 -105.52077641 11.64475339 -105.75 9.25 C-105.80414063 8.05117187 -105.80414063 8.05117187 -105.859375 6.828125 C-105.90578125 6.22484375 -105.9521875 5.6215625 -106 5 C-106.99 5 -107.98 5 -109 5 C-108.67 3.68 -108.34 2.36 -108 1 C-108 1.99 -108 2.98 -108 4 C-107.23042969 3.75765625 -106.46085937 3.5153125 -105.66796875 3.265625 C-92.69195147 -0.52086714 -79.38514905 -2.27842362 -66 -4 C-65.20215088 -4.10602539 -64.40430176 -4.21205078 -63.58227539 -4.32128906 C-43.42754351 -6.68964769 -18.97119013 -8.02289551 0 0 Z " fill="#A98F7F" transform="translate(345,94)"/>
<path d="M0 0 C0.36625971 4.51720311 0.36625971 4.51720311 -1.375 6.8125 C-3 8 -3 8 -5 8 C-4.91878906 9.02480469 -4.83757812 10.04960938 -4.75390625 11.10546875 C-4.16267635 21.57812965 -4.16267635 21.57812965 -6.2421875 25.109375 C-10.69581844 28.59839463 -15.56299873 28.55479605 -21 28 C-21.3125 25.75 -21.3125 25.75 -21 23 C-16.89189189 19 -16.89189189 19 -14 19 C-14 17.35 -14 15.7 -14 14 C-15.10214844 14.32613281 -16.20429688 14.65226562 -17.33984375 14.98828125 C-25.27321315 17.29032392 -33.17107041 19.38381622 -41.3125 20.8125 C-42.01044678 20.9360083 -42.70839355 21.0595166 -43.42749023 21.18676758 C-46.99758967 21.78127528 -50.38775856 22.04764672 -54 22 C-53.92483154 22.74008301 -53.84966309 23.48016602 -53.7722168 24.24267578 C-52.01843825 41.63199322 -50.47562913 59.02760799 -49.13232422 76.45336914 C-49.00882979 78.0548534 -48.8852945 79.65633451 -48.76171875 81.2578125 C-48.700448 82.0523735 -48.63917725 82.84693451 -48.5760498 83.66557312 C-48.12132249 89.52639209 -47.63960564 95.38464666 -47.14453125 101.2421875 C-47.07446869 102.07226822 -47.00440613 102.90234894 -46.93222046 103.75758362 C-46.5957657 107.73602519 -46.25642919 111.71420177 -45.9140625 115.69213867 C-45.79290947 117.11897283 -45.67181262 118.54581176 -45.55078125 119.97265625 C-45.44419189 121.21281494 -45.33760254 122.45297363 -45.2277832 123.73071289 C-45.11503052 125.34901001 -45.11503052 125.34901001 -45 127 C-44.92676514 127.92868896 -44.85353027 128.85737793 -44.77807617 129.81420898 C-44.85131104 130.53552002 -44.9245459 131.25683105 -45 132 C-49.06849409 134.71232939 -51.16476784 134.30699887 -56 134 C-58.4727622 131.5272378 -58.35160187 130.53681747 -58.63842773 127.11181641 C-58.72879303 126.0857428 -58.81915833 125.05966919 -58.91226196 124.00250244 C-59.00180145 122.88019226 -59.09134094 121.75788208 -59.18359375 120.6015625 C-59.28376801 119.43574646 -59.38394226 118.26993042 -59.4871521 117.06878662 C-59.81271443 113.2548762 -60.12537295 109.44003154 -60.4375 105.625 C-60.65708139 103.01247237 -60.87737947 100.40000488 -61.09838867 97.78759766 C-61.53665924 92.59249389 -61.9699168 87.39700798 -62.39941406 82.20117188 C-62.91000632 76.04368447 -63.44450346 69.88865731 -63.9921875 63.734375 C-64.20202856 61.34566059 -64.41109892 58.95688073 -64.61965942 56.5680542 C-64.74578698 55.13368505 -64.87370465 53.69947189 -65.00363159 52.26544189 C-65.85679482 42.80365327 -66.14457623 33.49130281 -66 24 C-69.96 24.495 -69.96 24.495 -74 25 C-73.98839844 25.66386719 -73.97679687 26.32773438 -73.96484375 27.01171875 C-73.95582031 27.89472656 -73.94679687 28.77773437 -73.9375 29.6875 C-73.92589844 30.55761719 -73.91429687 31.42773438 -73.90234375 32.32421875 C-74 35 -74 35 -74.46557617 37.14892578 C-75.15853488 40.84576079 -75.39525019 44.54653079 -75.6484375 48.29296875 C-75.76756313 49.90825238 -75.88737504 51.52348552 -76.0078125 53.13867188 C-76.19421061 55.67304517 -76.37634022 58.20742631 -76.546875 60.74291992 C-76.71377027 63.19822441 -76.89832416 65.65167218 -77.0859375 68.10546875 C-77.13293793 68.86691696 -77.17993835 69.62836517 -77.22836304 70.41288757 C-77.39990234 72.54760742 -77.39990234 72.54760742 -78 76 C-81.45662331 78.30441554 -82.94857881 78.25860135 -87 78 C-87.99 77.505 -87.99 77.505 -89 77 C-88.46553209 66.2403171 -87.78108678 55.49465297 -87 44.75 C-86.9170166 43.58428467 -86.8340332 42.41856934 -86.74853516 41.2175293 C-86.62551025 39.55524292 -86.62551025 39.55524292 -86.5 37.859375 C-86.39171875 36.38162598 -86.39171875 36.38162598 -86.28125 34.87402344 C-85.99017018 31.89955156 -85.49133603 28.94801616 -85 26 C-95.89 26 -106.78 26 -118 26 C-118.66 24.02 -119.32 22.04 -120 20 C-118.98204346 19.96036133 -117.96408691 19.92072266 -116.9152832 19.87988281 C-78.99506892 18.36311898 -34.32444519 0 0 0 Z " fill="#61381A" transform="translate(241,84)"/>
<path d="M0 0 C0.99 0 1.98 0 3 0 C4.10579326 3.48146523 4.63814811 6.37696558 4 10 C-0.68568502 15.12391455 -6.4101288 18.04164303 -13 20 C-13 20.66 -13 21.32 -13 22 C-13.66 22.66 -14.32 23.32 -15 24 C-5.91233057 29.56585225 2.80992371 33.74623801 13 37 C15.00045835 37.66529005 17.00060304 38.33152692 19 39 C19.495 41.475 19.495 41.475 20 44 C22.97 44.33 25.94 44.66 29 45 C29 47.64 29 50.28 29 53 C30.98 52.505 30.98 52.505 33 52 C32.8583467 54.87526069 32.71181468 57.75013536 32.5625 60.625 C32.52318359 61.43324219 32.48386719 62.24148437 32.44335938 63.07421875 C32.21203918 67.45150865 31.83079083 71.68547281 31 76 C32.32 76.33 33.64 76.66 35 77 C28.25 77.125 28.25 77.125 26 76 C25.59179118 65.90817093 26.83891324 56.00400644 28 46 C27.07380859 46.05220703 27.07380859 46.05220703 26.12890625 46.10546875 C25.28199219 46.13253906 24.43507813 46.15960938 23.5625 46.1875 C22.73878906 46.22230469 21.91507812 46.25710937 21.06640625 46.29296875 C16.80016727 45.8853663 13.00749565 44.46825636 9 43 C9.12117188 43.73114014 9.24234375 44.46228027 9.3671875 45.21557617 C9.91557974 48.53888587 10.45784975 51.86316655 11 55.1875 C11.19078125 56.33798828 11.3815625 57.48847656 11.578125 58.67382812 C11.75859375 59.78564453 11.9390625 60.89746094 12.125 62.04296875 C12.37636719 63.57473755 12.37636719 63.57473755 12.6328125 65.13745117 C12.97414707 67.79845372 13.06884702 70.32142068 13 73 C11.54207116 73.05399736 10.08357288 73.09279177 8.625 73.125 C7.81289062 73.14820313 7.00078125 73.17140625 6.1640625 73.1953125 C4 73 4 73 2 71 C1.3671875 68.390625 1.3671875 68.390625 0.875 65.25 C0.70742187 64.22390625 0.53984375 63.1978125 0.3671875 62.140625 C0.00710522 59.06077228 -0.06491813 56.09752203 0 53 C-0.66 53 -1.32 53 -2 53 C-2.05115967 53.73663879 -2.10231934 54.47327759 -2.1550293 55.23223877 C-2.68826591 62.2967811 -3.57727425 69.19858085 -4.8125 76.171875 C-4.98628174 77.17913635 -5.16006348 78.18639771 -5.33911133 79.22418213 C-5.88786272 82.40032414 -6.44352735 85.57520256 -7 88.75 C-7.55528564 91.939271 -8.10905893 95.12879376 -8.66088867 98.31866455 C-9.00253185 100.291349 -9.34631625 102.26366427 -9.69262695 104.23553467 C-10.40580208 108.33482645 -11.06108452 112.40046549 -11.48828125 116.54003906 C-12 120 -12 120 -14 122 C-16.09375 122.265625 -16.09375 122.265625 -18.5 122.25 C-19.2940625 122.25515625 -20.088125 122.2603125 -20.90625 122.265625 C-23 122 -23 122 -25 120 C-25.03657532 117.77568054 -25.03657532 117.77568054 -24.73168945 115.0456543 C-24.62160553 114.05471771 -24.51152161 113.06378113 -24.39810181 112.04281616 C-23.79496638 107.43286413 -23.07814218 102.85174154 -22.29296875 98.26953125 C-22.12630203 97.27660568 -21.95963531 96.28368011 -21.78791809 95.26066589 C-21.25829763 92.11061341 -20.72305893 88.96154769 -20.1875 85.8125 C-19.84011171 83.7533198 -19.49310409 81.69407534 -19.14648438 79.63476562 C-18.9746463 78.61534882 -18.80280823 77.59593201 -18.62576294 76.54562378 C-18.2793959 74.48950503 -17.93358942 72.43329176 -17.58834839 70.37698364 C-16.68454678 65.00552452 -15.76190917 59.6382428 -14.81103516 54.27490234 C-14.62076248 53.1831218 -14.43048981 52.09134125 -14.23445129 50.96647644 C-13.87072523 48.87999642 -13.50005619 46.79471097 -13.12138367 44.71089172 C-12.95926895 43.7720665 -12.79715424 42.83324127 -12.63012695 41.8659668 C-12.48396439 41.04460739 -12.33780182 40.22324799 -12.18721008 39.3769989 C-11.97540718 36.6877459 -12.26205533 34.59096115 -13 32 C-13.61875 31.4225 -14.2375 30.845 -14.875 30.25 C-18.82265573 26.07012922 -19.79592953 20.77832836 -20.4375 15.1875 C-19.92269907 11.4368075 -18.93617594 10.29388745 -16 8 C-16 9.65 -16 11.3 -16 13 C-15.29875 12.855625 -14.5975 12.71125 -13.875 12.5625 C-11 12 -11 12 -7.875 11.625 C-4.79951218 10.95641569 -3.99969601 10.29965041 -2 8 C-1.34 8 -0.68 8 0 8 C0 5.36 0 2.72 0 0 Z " fill="#7E4D27" transform="translate(236,99)"/>
<path d="M0 0 C0.33 0 0.66 0 1 0 C2.84202866 18.13598636 4.46659267 36.27809155 5.86767578 54.45336914 C5.99117021 56.0548534 6.1147055 57.65633451 6.23828125 59.2578125 C6.33018738 60.44965401 6.33018738 60.44965401 6.4239502 61.66557312 C6.87867751 67.52639209 7.36039436 73.38464666 7.85546875 79.2421875 C7.92553131 80.07226822 7.99559387 80.90234894 8.06777954 81.75758362 C8.4042343 85.73602519 8.74357081 89.71420177 9.0859375 93.69213867 C9.20709053 95.11897283 9.32818738 96.54581176 9.44921875 97.97265625 C9.60910278 99.83289429 9.60910278 99.83289429 9.7722168 101.73071289 C9.84738525 102.80957764 9.92255371 103.88844238 10 105 C10.07323486 105.92868896 10.14646973 106.85737793 10.22192383 107.81420898 C10.11207153 108.89617554 10.11207153 108.89617554 10 110 C5.93150591 112.71232939 3.83523216 112.30699887 -1 112 C-3.4727622 109.5272378 -3.35160187 108.53681747 -3.63842773 105.11181641 C-3.72879303 104.0857428 -3.81915833 103.05966919 -3.91226196 102.00250244 C-4.00180145 100.88019226 -4.09134094 99.75788208 -4.18359375 98.6015625 C-4.28376801 97.43574646 -4.38394226 96.26993042 -4.4871521 95.06878662 C-4.81271443 91.2548762 -5.12537295 87.44003154 -5.4375 83.625 C-5.65708139 81.01247237 -5.87737947 78.40000488 -6.09838867 75.78759766 C-6.53665924 70.59249389 -6.9699168 65.39700798 -7.39941406 60.20117188 C-7.91000632 54.04368447 -8.44450346 47.88865731 -8.9921875 41.734375 C-9.20202856 39.34566059 -9.41109892 36.95688073 -9.61965942 34.5680542 C-9.74578698 33.13368505 -9.87370465 31.69947189 -10.00363159 30.26544189 C-10.85679482 20.80365327 -11.14457623 11.49130281 -11 2 C-7.7 2 -4.4 2 -1 2 C-0.67 1.34 -0.34 0.68 0 0 Z " fill="#694935" transform="translate(186,106)"/>
<path d="M0 0 C6.15234375 -0.09765625 6.15234375 -0.09765625 8 0 C10.14468649 2.14468649 9.7395788 6.58444894 10.0625 9.5625 C10.15337891 10.36880859 10.24425781 11.17511719 10.33789062 12.00585938 C10.56247449 14.00347377 10.78173236 16.0016856 11 18 C11.33 16.02 11.66 14.04 12 12 C12.33 12 12.66 12 13 12 C13.33 14.31 13.66 16.62 14 19 C14.99 18.67 15.98 18.34 17 18 C17.33 17.01 17.66 16.02 18 15 C18.91942064 23.67542212 19.83260168 32.35147268 20.73806 41.02836323 C21.15879636 45.05837616 21.58159165 49.08814981 22.00927734 53.11743164 C22.42277172 57.01376585 22.83061598 60.91065558 23.23472595 64.80797386 C23.38902685 66.2867415 23.54528305 67.76530661 23.70362854 69.24364662 C24.58796561 77.513089 25.24284652 85.67459075 25 94 C21.46117165 95.92610096 19.0625024 96.34574488 15 96 C12 94 12 94 11.2265625 90.2421875 C11.01085744 88.45489218 10.81212115 86.66551359 10.625 84.875 C10.50979004 83.86526123 10.39458008 82.85552246 10.27587891 81.81518555 C9.92242843 78.66257756 9.58465034 75.50859882 9.2512207 72.3538208 C8.97172814 69.7351059 8.68461017 67.11729064 8.39648438 64.49951172 C7.82776785 59.32794026 7.26817139 54.15544632 6.71453857 48.98223877 C6.49140585 46.89919871 6.26687919 44.8163074 6.04083252 42.73358154 C4.53947274 28.82788369 3.50327557 14.97816092 3 1 C2.01 0.67 1.02 0.34 0 0 Z " fill="#906B4F" transform="translate(303,141)"/>
<path d="M0 0 C2.48046875 1.11328125 2.48046875 1.11328125 5 3 C5.48828125 5.91796875 5.48828125 5.91796875 5.3125 9.1875 C5.24482422 10.81751953 5.24482422 10.81751953 5.17578125 12.48046875 C5.11777344 13.31191406 5.05976563 14.14335937 5 15 C5.33 15 5.66 15 6 15 C5.979375 16.11375 5.95875 17.2275 5.9375 18.375 C5.73619282 21.83215921 5.73619282 21.83215921 7 24 C7.66 24 8.32 24 9 24 C7.14161278 36.20055415 5.26788526 48.39866417 3.37353516 60.59368896 C3.03325257 62.78578718 2.69427855 64.97808396 2.35546875 67.17041016 C1.82954945 70.55266156 1.29257868 73.93288763 0.75 77.3125 C0.59950195 78.28767578 0.44900391 79.26285156 0.29394531 80.26757812 C0.15053711 81.14478516 0.00712891 82.02199219 -0.140625 82.92578125 C-0.25954102 83.67255127 -0.37845703 84.41932129 -0.50097656 85.1887207 C-1 87 -1 87 -3 89 C-5.09375 89.265625 -5.09375 89.265625 -7.5 89.25 C-8.2940625 89.25515625 -9.088125 89.2603125 -9.90625 89.265625 C-12 89 -12 89 -14 87 C-14.03533936 84.77073669 -14.03533936 84.77073669 -13.72949219 82.03686523 C-13.61939819 81.04588837 -13.5093042 80.0549115 -13.39587402 79.03390503 C-12.8009634 74.47462048 -12.09978939 69.94266256 -11.328125 65.41015625 C-11.16528015 64.43469345 -11.0024353 63.45923065 -10.83465576 62.45420837 C-10.31061608 59.32292048 -9.78053316 56.19269364 -9.25 53.0625 C-8.88782904 50.90823536 -8.52585076 48.75393832 -8.1640625 46.59960938 C-5.54558351 31.04787196 -2.84768782 15.51152306 0 0 Z " fill="#76533B" transform="translate(225,132)"/>
<path d="M0 0 C1.98 0.66 3.96 1.32 6 2 C5.91028003 4.20896744 5.8021624 6.41718675 5.6875 8.625 C5.62949219 9.85476562 5.57148437 11.08453125 5.51171875 12.3515625 C5.19777935 16.05546375 4.48093798 19.58423293 3.671875 23.2109375 C1.75850033 31.81165138 0.39026844 40.48197219 -0.98907471 49.18188477 C-1.59664744 53.00015726 -2.218377 56.81608111 -2.83929443 60.63220215 C-4.2618823 69.35477392 -4.2618823 69.35477392 -5.63037109 78.0859375 C-6.11175619 81.22696432 -6.61499316 84.36352664 -7.125 87.5 C-7.24673584 88.35722656 -7.36847168 89.21445313 -7.49389648 90.09765625 C-8.11074006 93.7592211 -8.52650089 95.60832153 -11.44140625 98.01953125 C-14.16171665 99.06197081 -16.11272931 99.24748034 -19 99 C-20.42522759 94.72431723 -18.89529581 91.82747647 -16.95703125 87.87109375 C-15.63163979 83.89491937 -15.61916433 80.10332059 -15.5 75.9375 C-14.70285249 56.72881657 -14.70285249 56.72881657 -10 49 C-9.76738934 47.17234481 -9.54287791 45.34289956 -9.37890625 43.5078125 C-8.70425225 39.04257675 -7.25644719 34.77566746 -5.9375 30.46484375 C-4.99410382 26.97820871 -4.47544053 23.5765121 -4 20 C-3.51730851 18.39102838 -3.03412348 16.78218959 -2.54296875 15.17578125 C-1.30149294 10.20094654 -0.71698288 5.07227251 0 0 Z " fill="#79563E" transform="translate(107,105)"/>
<path d="M0 0 C-4.05481712 4.37493427 -8.32301803 7.18279359 -13.53515625 10.13671875 C-17.22267854 12.2219682 -17.22267854 12.2219682 -19 16 C-18.33613281 15.59007813 -17.67226562 15.18015625 -16.98828125 14.7578125 C-15.66376953 13.94957031 -15.66376953 13.94957031 -14.3125 13.125 C-13.00732422 12.32449219 -13.00732422 12.32449219 -11.67578125 11.5078125 C-9.16608918 10.09359186 -6.69700931 9.00105211 -4 8 C-4.66 8.78375 -5.32 9.5675 -6 10.375 C-8.20201441 12.71512812 -8.20201441 12.71512812 -8 15 C-10.31 16.32 -12.62 17.64 -15 19 C-15 20.32 -15 21.64 -15 23 C-15 23.33 -15 23.66 -15 24 C-13.02 22.68 -11.04 21.36 -9 20 C-8.25 22.75 -8.25 22.75 -8 26 C-9.32 27.32 -10.64 28.64 -12 30 C-7.545 26.535 -7.545 26.535 -3 23 C-1.68 23.66 -0.36 24.32 1 25 C1 25.66 1 26.32 1 27 C-0.4609375 28.2890625 -0.4609375 28.2890625 -2.375 29.625 C-3.00148438 30.07101563 -3.62796875 30.51703125 -4.2734375 30.9765625 C-6 32 -6 32 -8 32 C-8 32.66 -8 33.32 -8 34 C-10.63549513 36.9856213 -13.44450849 39.20365302 -17 41 C-25.21856759 41.24779601 -34.17480623 34.1403553 -41 30 C-41 29.01 -41 28.02 -41 27 C-40.34 27 -39.68 27 -39 27 C-39 26.34 -39 25.68 -39 25 C-37.12671346 23.80415985 -35.19910603 22.69281168 -33.25 21.625 C-27.55584213 18.5178292 -27.55584213 18.5178292 -23 14 C-22.52077641 11.64475339 -22.52077641 11.64475339 -22.75 9.25 C-22.80414063 8.05117187 -22.80414063 8.05117187 -22.859375 6.828125 C-22.90578125 6.22484375 -22.9521875 5.6215625 -23 5 C-23.99 5 -24.98 5 -26 5 C-25.67 3.68 -25.34 2.36 -25 1 C-25 1.99 -25 2.98 -25 4 C-24.03320312 3.71125 -23.06640625 3.4225 -22.0703125 3.125 C-14.59637948 0.96789316 -7.86056141 -0.66583579 0 0 Z " fill="#AC8F7D" transform="translate(262,94)"/>
<path d="M0 0 C0.33 0.66 0.66 1.32 1 2 C-0.80288943 6.60738411 -2.88550128 9.25700085 -7 12 C-7.66 12 -8.32 12 -9 12 C-6.32986843 28.39988173 -6.32986843 28.39988173 -3.375 44.75 C-2.49596277 49.3709498 -1.62253279 53.99138587 -0.8125 58.625 C-0.65394531 59.52476562 -0.49539063 60.42453125 -0.33203125 61.3515625 C0.03390648 64.27045401 0.12209386 67.06132712 0 70 C-1.87643761 71.87643761 -4.49805701 71.17984987 -6.9921875 71.23046875 C-9 71 -9 71 -12 69 C-12.62651062 67.16741943 -12.62651062 67.16741943 -12.9831543 64.92089844 C-13.12307297 64.07952332 -13.26299164 63.23814819 -13.40715027 62.37127686 C-13.54478287 61.45984924 -13.68241547 60.54842163 -13.82421875 59.609375 C-14.05090996 58.20332001 -14.05090996 58.20332001 -14.28218079 56.76885986 C-14.59990379 54.78258282 -14.91135462 52.79529395 -15.21704102 50.80712891 C-15.68380028 47.77404144 -16.16921986 44.74441936 -16.65820312 41.71484375 C-16.96464772 39.78402939 -17.270021 37.85304463 -17.57421875 35.921875 C-17.78977669 34.56687897 -17.78977669 34.56687897 -18.00968933 33.18450928 C-18.68820041 28.74308872 -19.16885382 24.50955342 -19 20 C-18.34 20.66 -17.68 21.32 -17 22 C-16.67 20.35 -16.34 18.7 -16 17 C-15.01 17 -14.02 17 -13 17 C-12.7525 16.236875 -12.505 15.47375 -12.25 14.6875 C-10.87869328 11.73919055 -9.7648921 10.64165468 -7 9 C-6.34 9 -5.68 9 -5 9 C-5.103125 8.2575 -5.20625 7.515 -5.3125 6.75 C-5 4 -5 4 -2.5 1.6875 C-1.675 1.130625 -0.85 0.57375 0 0 Z " fill="#7E5D46" transform="translate(364,116)"/>
<path d="M0 0 C1.65 0 3.3 0 5 0 C5.74736336 7.39737204 6.18899161 14.75830671 6.4375 22.1875 C6.74490198 30.38909103 7.3877171 38.41103662 8.59765625 46.52734375 C9.04679468 50.40388803 9.06420625 54.10054013 9 58 C9.66 58 10.32 58 11 58 C11.28795662 63.79819029 11.57266767 69.59652795 11.85449219 75.39501953 C11.95062528 77.36381231 12.04761454 79.33256349 12.14550781 81.30126953 C12.28680969 84.14605121 12.42493756 86.99097283 12.5625 89.8359375 C12.60624756 90.70302338 12.64999512 91.57010925 12.69506836 92.46347046 C12.97387833 98.31322055 13.04921439 104.14397584 13 110 C9.125 109.125 9.125 109.125 8 108 C7.7749493 106.41475368 7.61229095 104.82059467 7.47509766 103.2253418 C7.38465683 102.19919266 7.294216 101.17304352 7.20103455 100.11579895 C7.10633377 98.98832748 7.011633 97.86085602 6.9140625 96.69921875 C6.8124733 95.53198776 6.71088409 94.36475677 6.60621643 93.16215515 C6.27456224 89.33764972 5.94951847 85.51261704 5.625 81.6875 C5.40041221 79.07045244 5.17555812 76.45342773 4.95043945 73.83642578 C4.50334893 68.63025647 4.05909738 63.42385517 3.61669922 58.21728516 C3.16499685 52.91150154 2.70364763 47.60669386 2.23223877 42.30262756 C1.94418914 39.05775739 1.66113648 35.81246511 1.3793335 32.56704712 C1.2538428 31.13308736 1.12635981 29.6993002 0.99664307 28.26571655 C0.14333858 18.80379206 -0.1445785 9.49145141 0 0 Z " fill="#8B674E" transform="translate(175,108)"/>
<path d="M0 0 C5.28 0 10.56 0 16 0 C16.12560348 9.42026122 16.12560348 9.42026122 15.53442383 12.14892578 C14.84146512 15.84576079 14.60474981 19.54653079 14.3515625 23.29296875 C14.23243687 24.90825238 14.11262496 26.52348552 13.9921875 28.13867188 C13.80578939 30.67304517 13.62365978 33.20742631 13.453125 35.74291992 C13.28622973 38.19822441 13.10167584 40.65167218 12.9140625 43.10546875 C12.86706207 43.86691696 12.82006165 44.62836517 12.77163696 45.41288757 C12.60009766 47.54760742 12.60009766 47.54760742 12 51 C8.54337669 53.30441554 7.05142119 53.25860135 3 53 C2.34 52.67 1.68 52.34 1 52 C1.53446791 41.2403171 2.21891322 30.49465297 3 19.75 C3.0829834 18.58428467 3.1659668 17.41856934 3.25146484 16.2175293 C3.33348145 15.10933838 3.41549805 14.00114746 3.5 12.859375 C3.5721875 11.87420898 3.644375 10.88904297 3.71875 9.87402344 C4.01128658 6.88466522 4.47382895 3.95642361 5 1 C3.35 1 1.7 1 0 1 C0 0.67 0 0.34 0 0 Z " fill="#7B573E" transform="translate(151,109)"/>
<path d="M0 0 C1.85251078 3.21237551 2.39805841 5.92937606 2.77783203 9.60375977 C2.89780548 10.72915665 3.01777893 11.85455353 3.14138794 13.01405334 C3.26230804 14.2275798 3.38322815 15.44110626 3.5078125 16.69140625 C3.63815887 17.94702866 3.76850525 19.20265106 3.90280151 20.49632263 C4.17710739 23.15650378 4.44832973 25.81678285 4.71435547 28.4777832 C5.05262114 31.85852028 5.40266289 35.2379046 5.75671577 38.61702061 C6.0962406 41.8703887 6.42671495 45.12467138 6.7578125 48.37890625 C6.88278107 49.57826309 7.00774963 50.77761993 7.13650513 52.01332092 C7.83223048 59.03649792 8.15989666 65.94303733 8 73 C4.535 73.495 4.535 73.495 1 74 C-0.20966624 66.914812 -1.12828282 60.18383812 -1 53 C-1.31802943 51.33034549 -1.64984951 49.66321482 -2 48 C-2 46 -2 44 -2 42 C-2.31769852 39.66448652 -2.65362922 37.33143364 -3 35 C-6.70979661 7.65040452 -6.70979661 7.65040452 -3.48046875 2.64453125 C-2.99191406 2.10183594 -2.50335938 1.55914062 -2 1 C-1.34 1.33 -0.68 1.66 0 2 C0 1.34 0 0.68 0 0 Z " fill="#72523E" transform="translate(320,162)"/>
<path d="M0 0 C0.65484375 0.37511719 1.3096875 0.75023438 1.984375 1.13671875 C8.03601303 4.53008075 14.10209955 7.40003884 20.56640625 9.921875 C23 11 23 11 25 13 C25 14.32 25 15.64 25 17 C31.27 17 37.54 17 44 17 C44 17.33 44 17.66 44 18 C31.85002575 18.5451135 22.0568679 18.63937243 11 13 C10.34 12.67 9.68 12.34 9 12 C8.90912109 13.28583984 8.90912109 13.28583984 8.81640625 14.59765625 C8.38856464 20.43604873 7.940837 26.22057272 7 32 C6.34 32 5.68 32 5 32 C5.03867188 33.01449219 5.07734375 34.02898437 5.1171875 35.07421875 C4.99906632 39.03127835 4.30360577 42.04870421 3.125 45.8125 C1.59635845 50.86132316 0.34919319 55.80846993 -0.5078125 61.01171875 C-1 63 -1 63 -3 66 C-5.11049555 73.945395 -5.33746877 82.23709676 -5.57055664 90.41210938 C-5.72634182 94.71195789 -6.06534701 98.0742078 -8 102 C-8.28101562 102.66644531 -8.56203125 103.33289063 -8.8515625 104.01953125 C-9.56770833 105.6796875 -10.28385417 107.33984375 -11 109 C-11.33 109 -11.66 109 -12 109 C-11.42205642 101.45042892 -10.44738853 94.05422257 -9.14453125 86.59765625 C-8.9620433 85.53304169 -8.77955536 84.46842712 -8.59153748 83.37155151 C-8.20242007 81.10382874 -7.811474 78.83641908 -7.41882324 76.56930542 C-6.80648149 73.02769061 -6.20155295 69.48488047 -5.59863281 65.94165039 C-3.91417115 56.05577479 -2.22129464 46.17202819 -0.44218445 36.3026886 C0.16061991 32.9507973 0.75115972 29.5968135 1.3397522 26.24240112 C1.61173997 24.71428829 1.89029679 23.18732913 2.17562866 21.66165161 C2.56525242 19.57768952 2.93342783 17.49100335 3.296875 15.40234375 C3.50666992 14.25241943 3.71646484 13.10249512 3.93261719 11.91772461 C4.0127941 8.44600626 3.26274698 7.52626997 1 5 C0.3125 2.25 0.3125 2.25 0 0 Z " fill="#8E664C" transform="translate(98,93)"/>
<path d="M0 0 C-0.625 1.875 -0.625 1.875 -2 4 C-5.59478264 5.51779711 -9.19151171 6.23830234 -13 7 C-15.00744615 7.64389782 -17.00945124 8.30562253 -19 9 C-19 9.66 -19 10.32 -19 11 C-23.22949995 13.41685712 -26.12335991 14.34833144 -31 14 C-31 14.66 -31 15.32 -31 16 C-36.00720162 17.76921124 -40.75607653 19.12601276 -46 20 C-49.02714886 20.9241296 -52.01596525 21.94564106 -55 23 C-55 22.34 -55 21.68 -55 21 C-56.24716797 21.55880859 -56.24716797 21.55880859 -57.51953125 22.12890625 C-58.60621094 22.60199219 -59.69289063 23.07507813 -60.8125 23.5625 C-61.89144531 24.03816406 -62.97039062 24.51382813 -64.08203125 25.00390625 C-67 26 -67 26 -70 25 C-67.2100561 23.82905995 -64.41821403 22.66309073 -61.625 21.5 C-60.8309375 21.16613281 -60.036875 20.83226563 -59.21875 20.48828125 C-58.45820312 20.17246094 -57.69765625 19.85664062 -56.9140625 19.53125 C-56.2123291 19.23798828 -55.5105957 18.94472656 -54.78759766 18.64257812 C-53 18 -53 18 -51 18 C-50.7525 17.38125 -50.505 16.7625 -50.25 16.125 C-48.79371361 13.64931313 -47.62187494 13.04874998 -45 12 C-46.83284443 10.87483915 -46.83284443 10.87483915 -49 10 C-49.99 10.33 -50.98 10.66 -52 11 C-52.33 10.01 -52.66 9.02 -53 8 C-42.00411543 5.23262878 -30.98358493 3.29791005 -19.75 1.75 C-18.48905518 1.57500977 -17.22811035 1.40001953 -15.92895508 1.21972656 C-10.56941567 0.50353618 -5.415481 -0.09536441 0 0 Z " fill="#B89B89" transform="translate(173,65)"/>
<path d="M0 0 C0.99 0.66 1.98 1.32 3 2 C3.66738316 9.19575943 2.20716193 16.33384587 1.125 23.4375 C-0.30022049 33.001939 -1.58209591 42.54240545 -2.5078125 52.16796875 C-2.67023438 53.10253906 -2.83265625 54.03710938 -3 55 C-3.99 55.495 -3.99 55.495 -5 56 C-5.73270937 58.44046572 -5.73270937 58.44046572 -6.1875 61.3125 C-6.36667969 62.27800781 -6.54585937 63.24351562 -6.73046875 64.23828125 C-6.99158913 66.91381904 -6.75068969 68.4664223 -6 71 C-5.64607407 75.28826533 -5.530685 78.29602751 -8 82 C-8.99 82 -9.98 82 -11 82 C-11 83.65 -11 85.3 -11 87 C-11.99 87 -12.98 87 -14 87 C-13.42855732 79.7344911 -12.55107581 72.59337258 -11.328125 65.41015625 C-11.16528015 64.43469345 -11.0024353 63.45923065 -10.83465576 62.45420837 C-10.31061608 59.32292048 -9.78053316 56.19269364 -9.25 53.0625 C-8.88782904 50.90823536 -8.52585076 48.75393832 -8.1640625 46.59960938 C-5.54558351 31.04787196 -2.84768782 15.51152306 0 0 Z " fill="#8D674B" transform="translate(225,132)"/>
<path d="M0 0 C-4.45622255 4.80671196 -9.33334553 7.69947298 -15.0390625 10.9375 C-18.08039774 13.05600264 -19.38807685 14.70756122 -21 18 C-20.34 18.33 -19.68 18.66 -19 19 C-21.25329396 23.49088552 -23.85408354 25.5705222 -28.0625 28.25 C-29.12597656 28.93578125 -30.18945312 29.6215625 -31.28515625 30.328125 C-34 32 -34 32 -36 33 C-37.98 31.68 -39.96 30.36 -42 29 C-41.67 28.34 -41.34 27.68 -41 27 C-40.34 27 -39.68 27 -39 27 C-39 26.34 -39 25.68 -39 25 C-37.12671346 23.80415985 -35.19910603 22.69281168 -33.25 21.625 C-27.55584213 18.5178292 -27.55584213 18.5178292 -23 14 C-22.52077641 11.64475339 -22.52077641 11.64475339 -22.75 9.25 C-22.80414063 8.05117187 -22.80414063 8.05117187 -22.859375 6.828125 C-22.90578125 6.22484375 -22.9521875 5.6215625 -23 5 C-23.99 5 -24.98 5 -26 5 C-25.67 3.68 -25.34 2.36 -25 1 C-25 1.99 -25 2.98 -25 4 C-24.03320312 3.71125 -23.06640625 3.4225 -22.0703125 3.125 C-14.59637948 0.96789316 -7.86056141 -0.66583579 0 0 Z " fill="#A68269" transform="translate(262,94)"/>
<path d="M0 0 C-5.74416049 4.11620717 -11.57496876 8.08737944 -17.5 11.9375 C-18.11117676 12.3389624 -18.72235352 12.7404248 -19.35205078 13.15405273 C-23.76478449 16 -23.76478449 16 -26 16 C-26 16.66 -26 17.32 -26 18 C-25.34 18.33 -24.68 18.66 -24 19 C-24.66 19.433125 -25.32 19.86625 -26 20.3125 C-26.66 20.869375 -27.32 21.42625 -28 22 C-28 22.99 -28 23.98 -28 25 C-28.99 25 -29.98 25 -31 25 C-33.15017528 25.74172877 -33.15017528 25.74172877 -35 27 C-35.33 27.99 -35.66 28.98 -36 30 C-36.66 29.01 -37.32 28.02 -38 27 C-37.01 25.68 -36.02 24.36 -35 23 C-35.66 22.67 -36.32 22.34 -37 22 C-31.25 18 -31.25 18 -29 18 C-29.33 17.01 -29.66 16.02 -30 15 C-29.01 14.01 -28.02 13.02 -27 12 C-28.15628906 12.75796875 -28.15628906 12.75796875 -29.3359375 13.53125 C-30.33882812 14.1809375 -31.34171875 14.830625 -32.375 15.5 C-33.37273437 16.1496875 -34.37046875 16.799375 -35.3984375 17.46875 C-38 19 -38 19 -40 19 C-39.63153923 16.42799933 -39.31285426 15.27357068 -37.32592773 13.53613281 C-36.61895752 13.09624023 -35.9119873 12.65634766 -35.18359375 12.203125 C-34.41982422 11.71972656 -33.65605469 11.23632812 -32.86914062 10.73828125 C-32.06669922 10.24714844 -31.26425781 9.75601563 -30.4375 9.25 C-29.63119141 8.74339844 -28.82488281 8.23679687 -27.99414062 7.71484375 C-26.00254085 6.46567466 -24.00465111 5.22807456 -22 4 C-22.99 3.34 -23.98 2.68 -25 2 C-21.58518736 1.46649143 -18.16796104 0.95041814 -14.75 0.4375 C-13.78191406 0.28603516 -12.81382812 0.13457031 -11.81640625 -0.02148438 C-10.88183594 -0.16005859 -9.94726562 -0.29863281 -8.984375 -0.44140625 C-8.12553711 -0.57232666 -7.26669922 -0.70324707 -6.38183594 -0.83813477 C-3.98957886 -1.0007082 -2.27197422 -0.71976511 0 0 Z " fill="#B59986" transform="translate(283,91)"/>
<path d="M0 0 C0.33 0 0.66 0 1 0 C1.43364843 4.2311477 1.86059854 8.46290583 2.28173828 12.6953125 C2.42547123 14.13071269 2.5709349 15.56594079 2.71826172 17.00097656 C3.54047125 25.02171443 4.18963617 32.92465975 4 41 C3 39 2 37 1 35 C-0.0541518 38.16245541 -0.31275672 40.86948218 -0.5625 44.1875 C-0.64628906 45.27417969 -0.73007813 46.36085937 -0.81640625 47.48046875 C-0.87699219 48.31191406 -0.93757812 49.14335937 -1 50 C-1.66 50 -2.32 50 -3 50 C-4.5601955 40.58814137 -5.38485386 31.3860788 -5.63305664 21.86401367 C-5.6884835 19.77544013 -5.75854368 17.68768762 -5.83007812 15.59960938 C-6.13851997 5.41555991 -6.13851997 5.41555991 -5 2 C-3.68 2 -2.36 2 -1 2 C-0.67 1.34 -0.34 0.68 0 0 Z " fill="#745039" transform="translate(186,106)"/>
<path d="M0 0 C1.32 0 2.64 0 4 0 C6.125 7.625 6.125 7.625 5 11 C5.63008966 12.35100305 6.30273512 13.68240981 7 15 C10.84917355 30.30165289 10.84917355 30.30165289 8 36 C7.960008 37.99960012 7.95653201 40.00047242 8 42 C7.67 42 7.34 42 7 42 C6.34 43.98 5.68 45.96 5 48 C2.777242 44.29380566 2.19109627 40.36094944 1.4921875 36.1640625 C1.36184113 35.40709076 1.23149475 34.65011902 1.09719849 33.87020874 C0.82358898 32.27207162 0.55313889 30.67339078 0.28564453 29.07421875 C-0.12263884 26.63908271 -0.54296576 24.20625086 -0.96484375 21.7734375 C-1.22989074 20.21626891 -1.49423669 18.65898079 -1.7578125 17.1015625 C-1.94526535 16.01846298 -1.94526535 16.01846298 -2.13650513 14.91348267 C-2.80056721 10.89786919 -3.12667755 7.0688193 -3 3 C-2.34 3.66 -1.68 4.32 -1 5 C-0.67 3.35 -0.34 1.7 0 0 Z " fill="#76553E" transform="translate(348,133)"/>
<path d="M0 0 C6.15234375 -0.09765625 6.15234375 -0.09765625 8 0 C10.14468649 2.14468649 9.7395788 6.58444894 10.0625 9.5625 C10.15337891 10.36880859 10.24425781 11.17511719 10.33789062 12.00585938 C10.56247449 14.00347377 10.78173236 16.0016856 11 18 C11.33 16.02 11.66 14.04 12 12 C12.33 12 12.66 12 13 12 C13.85373239 19.02804699 14.12109311 25.92278069 14 33 C13.67 33 13.34 33 13 33 C12.67 35.31 12.34 37.62 12 40 C9.8614515 37.8614515 9.57344937 36.86724686 9 34 C8.34 34.66 7.68 35.32 7 36 C5.50787467 32.60346154 4.68764981 29.67212414 4.3671875 25.98046875 C4.28339844 25.04009766 4.19960938 24.09972656 4.11328125 23.13085938 C4.03464844 22.15955078 3.95601563 21.18824219 3.875 20.1875 C3.74544922 18.74793945 3.74544922 18.74793945 3.61328125 17.27929688 C3.14469902 11.83109876 2.90941388 6.46751916 3 1 C2.01 0.67 1.02 0.34 0 0 Z M17 15 C17.33 15 17.66 15 18 15 C18.125 20.75 18.125 20.75 17 23 C16.01 22.67 15.02 22.34 14 22 C14.33 20.68 14.66 19.36 15 18 C15.66 18 16.32 18 17 18 C17 17.01 17 16.02 17 15 Z " fill="#8C674E" transform="translate(303,141)"/>
<path d="M0 0 C2.23782255 6.71346764 -0.29420515 15.28343276 -2 22 C-2.33 22.33 -2.66 22.66 -3 23 C-3.83190932 26.21352769 -4.36468365 29.48198001 -4.9375 32.75 C-5.22077148 34.11125 -5.22077148 34.11125 -5.50976562 35.5 C-5.95562482 38.11774838 -6.27248073 40.35575722 -6 43 C-3.10803723 45.72254988 -3.10803723 45.72254988 0 48 C0.32421875 51.4453125 0.32421875 51.4453125 -0.3125 55.125 C-0.49425781 56.34445313 -0.67601563 57.56390625 -0.86328125 58.8203125 C-2 62 -2 62 -4.4296875 63.91796875 C-7.17817953 65.07500871 -9.04970247 65.25288265 -12 65 C-13.42522759 60.72431723 -11.89529581 57.82747647 -9.95703125 53.87109375 C-8.63163979 49.89491937 -8.61916433 46.10332059 -8.5 41.9375 C-7.70492732 22.77881317 -7.70492732 22.77881317 -3 15 C-2.71379343 13.02835472 -2.43105546 11.05437859 -2.25 9.0703125 C-1.8693171 5.91778224 -0.945783 3.0265056 0 0 Z " fill="#825E45" transform="translate(100,139)"/>
<path d="M0 0 C0.99 0 1.98 0 3 0 C4.10579326 3.48146523 4.63814811 6.37696558 4 10 C-0.68568502 15.12391455 -6.4101288 18.04164303 -13 20 C-13 20.66 -13 21.32 -13 22 C-13.66 22.66 -14.32 23.32 -15 24 C-12.36 25.65 -9.72 27.3 -7 29 C-7.33 30.98 -7.66 32.96 -8 35 C-15.21485312 30.35042799 -17.95305667 27.31224961 -20 19 C-20.4375 15.1875 -20.4375 15.1875 -20 12 C-18 9.5625 -18 9.5625 -16 8 C-16 9.65 -16 11.3 -16 13 C-15.29875 12.855625 -14.5975 12.71125 -13.875 12.5625 C-11 12 -11 12 -7.875 11.625 C-4.79951218 10.95641569 -3.99969601 10.29965041 -2 8 C-1.34 8 -0.68 8 0 8 C0 5.36 0 2.72 0 0 Z " fill="#896550" transform="translate(236,99)"/>
<path d="M0 0 C0.33 0 0.66 0 1 0 C1.84681133 5.08086796 2.09038099 9.84828377 2 15 C2.66 15 3.32 15 4 15 C4.28795662 20.79819029 4.57266767 26.59652795 4.85449219 32.39501953 C4.95062528 34.36381231 5.04761454 36.33256349 5.14550781 38.30126953 C5.28680969 41.14605121 5.42493756 43.99097283 5.5625 46.8359375 C5.60624756 47.70302338 5.64999512 48.57010925 5.69506836 49.46347046 C5.97387833 55.31322055 6.04921439 61.14397584 6 67 C2.125 66.125 2.125 66.125 1 65 C0.6967211 62.61374905 0.45178658 60.24679527 0.24609375 57.8515625 C0.18092056 57.12440033 0.11574738 56.39723816 0.04859924 55.64804077 C-0.0888994 54.09970491 -0.22408703 52.55116239 -0.35717773 51.00244141 C-0.55870635 48.66892696 -0.76998935 46.33645006 -0.98242188 44.00390625 C-1.69440825 35.98543764 -2.2279661 28.0592075 -2 20 C0.07416667 23.11125001 0.32744094 24.2876968 0.6328125 27.88671875 C0.71660156 28.82451172 0.80039063 29.76230469 0.88671875 30.72851562 C0.96535156 31.70498047 1.04398438 32.68144531 1.125 33.6875 C1.21136719 34.67556641 1.29773438 35.66363281 1.38671875 36.68164062 C1.59879723 39.12054315 1.80291201 41.55984788 2 44 C1.93941406 42.98687744 1.87882813 41.97375488 1.81640625 40.92993164 C1.59009689 37.13370028 1.36730023 33.3372692 1.14550781 29.54077148 C1.0494454 27.90464815 0.95245885 26.26857878 0.85449219 24.63256836 C0.7129999 22.26690396 0.5749475 19.9010587 0.4375 17.53515625 C0.39375244 16.81602554 0.35000488 16.09689484 0.30493164 15.35597229 C0.01174519 10.23018682 -0.03539329 5.134239 0 0 Z " fill="#835D43" transform="translate(182,151)"/>
<path d="M0 0 C1.98 0.66 3.96 1.32 6 2 C5.59307576 12.01875543 4.39107538 21.24020175 2 31 C0.35 31.33 -1.3 31.66 -3 32 C-5.21253103 25.3624069 -3.90976591 19.47198447 -2 13 C-1.24931826 8.67850783 -0.61387623 4.34284778 0 0 Z " fill="#70523E" transform="translate(107,105)"/>
<path d="M0 0 C0.66 0.33 1.32 0.66 2 1 C2 4.96 2 8.92 2 13 C2.33 13 2.66 13 3 13 C2.979375 14.11375 2.95875 15.2275 2.9375 16.375 C2.73619282 19.83215921 2.73619282 19.83215921 4 22 C4.66 22 5.32 22 6 22 C4.50164236 25.11197356 2.86022073 28.08835016 1 31 C0.67 31 0.34 31 0 31 C0 28.03 0 25.06 0 22 C-0.2493357 23.60115576 -0.47378648 25.20620159 -0.6875 26.8125 C-0.81511719 27.70582031 -0.94273437 28.59914062 -1.07421875 29.51953125 C-1.27026641 32.06232936 -1.27026641 32.06232936 0.4921875 33.609375 C0.98976562 34.06828125 1.48734375 34.5271875 2 35 C1.76939193 39.22781463 0.91509554 42.2895024 -1 46 C-1.38290462 47.99110401 -1.72604615 49.99100513 -2 52 C-4.03125 50.56640625 -4.03125 50.56640625 -6 48 C-6.34078312 44.93214819 -5.90067911 41.98647995 -5.5 38.9375 C-5.3983252 38.03878174 -5.29665039 37.14006348 -5.19189453 36.21411133 C-3.76393975 24.10517774 -1.8834507 12.04503733 0 0 Z " fill="#7F5940" transform="translate(228,134)"/>
<path d="M0 0 C2.31 0 4.62 0 7 0 C7.02730408 1.56240032 7.04653226 3.1249427 7.0625 4.6875 C7.07410156 5.55761719 7.08570313 6.42773438 7.09765625 7.32421875 C7 10 7 10 6.54101562 12.14453125 C5.83631152 15.86394427 5.54524816 19.59466314 5.24609375 23.36328125 C5.18092056 24.15526413 5.11574738 24.94724701 5.04859924 25.76322937 C4.8421663 28.27943843 4.63977616 30.79595372 4.4375 33.3125 C4.29779322 35.02411037 4.15782217 36.73569919 4.01757812 38.44726562 C3.67532434 42.63126705 3.33669463 46.8155477 3 51 C1.02 51.495 1.02 51.495 -1 52 C-1.17089774 44.8668768 -0.4984228 38.06581021 0.4375 31 C1.70656964 21.00191902 2.59836633 11.06854063 3 1 C2.34 1 1.68 1 1 1 C1 3.97 1 6.94 1 10 C0.67 10 0.34 10 0 10 C0 6.7 0 3.4 0 0 Z " fill="#705544" transform="translate(160,109)"/>
<path d="M0 0 C1.04674362 12.27846882 1.04674362 12.27846882 -1.2421875 16.04296875 C-5.72653845 19.56638735 -10.51337348 19.55985985 -16 19 C-16.3125 16.75 -16.3125 16.75 -16 14 C-11.89189189 10 -11.89189189 10 -9 10 C-9 8.35 -9 6.7 -9 5 C-9.66 4.67 -10.32 4.34 -11 4 C-9.35500958 3.33125616 -7.70898352 2.66505926 -6.0625 2 C-5.14597656 1.62875 -4.22945312 1.2575 -3.28515625 0.875 C-1 0 -1 0 0 0 Z " fill="#5F4331" transform="translate(236,93)"/>
<path d="M0 0 C0.33 0 0.66 0 1 0 C1 2.31 1 4.62 1 7 C1.99 7.33 2.98 7.66 4 8 C4.26213592 25.21359223 4.26213592 25.21359223 2 32 C2.4012178 34.41011251 2.89129702 36.80605499 3.4375 39.1875 C3.72496094 40.45980469 4.01242188 41.73210937 4.30859375 43.04296875 C4.53675781 44.01878906 4.76492187 44.99460938 5 46 C-0.75 46.125 -0.75 46.125 -3 45 C-2.25395545 29.9809452 -1.14677457 14.99320119 0 0 Z " fill="#8E6B54" transform="translate(155,116)"/>
<path d="M0 0 C2.890625 0.671875 2.890625 0.671875 6 2 C7.171875 4.328125 7.171875 4.328125 7.75 7.25 C7.96785156 8.31863281 8.18570313 9.38726562 8.41015625 10.48828125 C11.1505645 26.80369193 11.1505645 26.80369193 11 33 C9.35 33 7.7 33 6 33 C3.74720437 22.0312912 1.53882509 11.09573878 0 0 Z " fill="#644631" transform="translate(238,139)"/>
<path d="M0 0 C0.33 0 0.66 0 1 0 C1.21564835 7.31818035 0.70559739 14.07608345 -0.71484375 21.25 C-1.07494376 23.17837161 -1.43496731 25.10675749 -1.79492188 27.03515625 C-2.36180799 30.00576615 -2.93277417 32.97554569 -3.5065918 35.94482422 C-5.62277176 46.96808932 -7.451544 57.72905036 -7.67576599 68.9753418 C-7.77546099 73.09289151 -8.1814335 76.28743464 -10 80 C-10.28101562 80.66644531 -10.56203125 81.33289063 -10.8515625 82.01953125 C-11.56770833 83.6796875 -12.28385417 85.33984375 -13 87 C-13.33 87 -13.66 87 -14 87 C-13.4150591 79.29620016 -12.39728918 71.75009281 -11.07421875 64.140625 C-10.88535599 63.03434753 -10.69649323 61.92807007 -10.50190735 60.78826904 C-9.90109096 57.27481573 -9.29438281 53.76240995 -8.6875 50.25 C-8.29193308 47.94147212 -7.89674804 45.63287878 -7.50195312 43.32421875 C-5.02813189 28.87817749 -2.51806991 14.43838634 0 0 Z " fill="#B29A8A" transform="translate(100,115)"/>
<path d="M0 0 C0.99 0.66 1.98 1.32 3 2 C3.49262105 8.13039528 2.52919671 13.96390038 1.5 20 C1.28537109 21.30517578 1.28537109 21.30517578 1.06640625 22.63671875 C0.71661973 24.75875695 0.3591135 26.87952028 0 29 C-0.66 29 -1.32 29 -2 29 C-2.04898438 29.65484375 -2.09796875 30.3096875 -2.1484375 30.984375 C-3.33785986 45.50353069 -3.33785986 45.50353069 -5 52 C-5.99 52.495 -5.99 52.495 -7 53 C-8.37505641 47.41861973 -7.56260899 42.70541354 -6.6015625 37.1484375 C-6.44714691 36.21198395 -6.29273132 35.2755304 -6.13363647 34.31069946 C-5.6397764 31.33054794 -5.13238452 28.35287537 -4.625 25.375 C-4.29081757 23.3647243 -3.95747521 21.35430876 -3.625 19.34375 C-3.01220507 15.66371782 -2.39845162 11.98388194 -1.77197266 8.30615234 C-1.64682281 7.56924164 -1.52167297 6.83233093 -1.39273071 6.0730896 C-1.00458691 4.02421271 -0.52651765 2.01732767 0 0 Z " fill="#95735D" transform="translate(225,132)"/>
<path d="M0 0 C0.99 0.33 1.98 0.66 3 1 C3.65268078 4.45707638 4.29584965 7.91586077 4.9375 11.375 C5.11990234 12.34050781 5.30230469 13.30601562 5.49023438 14.30078125 C6.6381138 20.52020069 7.48177673 26.69653637 8 33 C3.125 32.125 3.125 32.125 2 31 C-0.3276215 20.44504308 -1.57844404 10.76384734 0 0 Z " fill="#78533B" transform="translate(236,139)"/>
<path d="M0 0 C3.63 0 7.26 0 11 0 C11 2.64 11 5.28 11 8 C12.32 7.67 13.64 7.34 15 7 C14.8583467 9.87526069 14.71181468 12.75013536 14.5625 15.625 C14.50352539 16.83736328 14.50352539 16.83736328 14.44335938 18.07421875 C14.21203918 22.45150865 13.83079083 26.68547281 13 31 C14.32 31.33 15.64 31.66 17 32 C10.25 32.125 10.25 32.125 8 31 C7.59179118 20.90817093 8.83891324 11.00400644 10 1 C6.7 1 3.4 1 0 1 C0 0.67 0 0.34 0 0 Z " fill="#745441" transform="translate(254,144)"/>
<path d="M0 0 C0.33 0.66 0.66 1.32 1 2 C-0.80288943 6.60738411 -2.88550128 9.25700085 -7 12 C-7.66 12 -8.32 12 -9 12 C-8.82609741 13.0355603 -8.82609741 13.0355603 -8.64868164 14.09204102 C-8.11908447 17.24871543 -7.59078176 20.40560519 -7.0625 23.5625 C-6.78889648 25.19155273 -6.78889648 25.19155273 -6.50976562 26.85351562 C-5.61120979 32.22851325 -4.73598237 37.60021353 -4 43 C-4.99 43 -5.98 43 -7 43 C-8.96276032 40.05585952 -9.25476379 39.19795067 -9.5 35.875 C-9.7475 33.956875 -9.7475 33.956875 -10 32 C-10.66 31.67 -11.32 31.34 -12 31 C-12.625 28.9375 -12.625 28.9375 -13 27 C-12.34 27 -11.68 27 -11 27 C-11.19529297 25.55367187 -11.19529297 25.55367187 -11.39453125 24.078125 C-11.53246094 22.81484375 -11.67039062 21.5515625 -11.8125 20.25 C-12.03873047 18.37054688 -12.03873047 18.37054688 -12.26953125 16.453125 C-12 13 -12 13 -9.63671875 10.546875 C-7 9 -7 9 -5 9 C-5.103125 8.2575 -5.20625 7.515 -5.3125 6.75 C-5 4 -5 4 -2.5 1.6875 C-1.675 1.130625 -0.85 0.57375 0 0 Z " fill="#80604A" transform="translate(364,116)"/>
<path d="M0 0 C0.33 0 0.66 0 1 0 C1.70623318 3.26921967 2.17652581 6.43081342 2.38891602 9.76757812 C2.44890274 10.68623657 2.50888947 11.60489502 2.57069397 12.5513916 C2.66138405 14.02642151 2.66138405 14.02642151 2.75390625 15.53125 C2.81907944 16.55875366 2.88425262 17.58625732 2.95140076 18.64489746 C3.08836704 20.82012429 3.22358419 22.99546186 3.35717773 25.17089844 C3.5600737 28.46065991 3.77085954 31.74984839 3.98242188 35.0390625 C4.63298786 45.36801242 5.2639523 55.64592896 5 66 C4.67 66 4.34 66 4 66 C3.91959473 65.13197754 3.83918945 64.26395508 3.75634766 63.36962891 C3.45405959 60.1522662 3.14381318 56.9357999 2.828125 53.71972656 C2.69308532 52.32712986 2.56123076 50.9342205 2.43261719 49.54101562 C2.24729836 47.53957231 2.04960452 45.53928693 1.8515625 43.5390625 C1.73635254 42.33459473 1.62114258 41.13012695 1.50244141 39.88916016 C1.26483351 36.88116735 1.26483351 36.88116735 -1 35 C-1.56441927 32.07649685 -1.60586363 29.096069 -1.75 26.125 C-1.80542969 25.30902344 -1.86085937 24.49304688 -1.91796875 23.65234375 C-1.96050781 22.86214844 -2.00304687 22.07195312 -2.046875 21.2578125 C-2.08651367 20.5373877 -2.12615234 19.81696289 -2.16699219 19.07470703 C-1.97185809 16.65036561 -1.13044602 15.13087268 0 13 C-0.00815657 10.76088825 -0.00815657 10.76088825 -0.4375 8.5 C-0.95479975 5.31996788 -0.96233329 3.09070545 0 0 Z " fill="#9C7558" transform="translate(180,137)"/>
<path d="M0 0 C0.33 0 0.66 0 1 0 C1.66 2.64 2.32 5.28 3 8 C3.99 7.34 4.98 6.68 6 6 C8.29612756 25.96810934 8.29612756 25.96810934 8 35 C7 33 6 31 5 29 C4.34 29.99 3.68 30.98 3 32 C2.67 30.35 2.34 28.7 2 27 C1.67 27 1.34 27 1 27 C0.16069406 17.97746114 -0.12224626 9.0598059 0 0 Z " fill="#785843" transform="translate(182,112)"/>
<path d="M0 0 C-4.22010285 4.78278323 -9.22735764 8.26855459 -15 11 C-16.32 11 -17.64 11 -19 11 C-19.12375 9.865625 -19.2475 8.73125 -19.375 7.5625 C-19.58125 6.386875 -19.7875 5.21125 -20 4 C-20.66 3.67 -21.32 3.34 -22 3 C-14.52678392 0.84278299 -7.78961124 -0.46530864 0 0 Z " fill="#978579" transform="translate(262,94)"/>
<path d="M0 0 C2.28789903 3.43184855 2.44671102 5.35105162 2.8515625 9.41796875 C2.98046875 10.67158203 3.109375 11.92519531 3.2421875 13.21679688 C3.36851562 14.52712891 3.49484375 15.83746094 3.625 17.1875 C3.75965308 18.52286368 3.89506108 19.85815146 4.03125 21.19335938 C4.36161045 24.46156808 4.68420558 27.73035698 5 31 C5.33 31 5.66 31 6 31 C6.33 36.28 6.66 41.56 7 47 C5.68 46.34 4.36 45.68 3 45 C2.41923898 42.47345632 2.11792363 40.31468728 1.953125 37.75390625 C1.89219666 37.02815903 1.83126831 36.3024118 1.76849365 35.55467224 C1.57790665 33.22497222 1.41419354 30.89419266 1.25 28.5625 C1.12533733 27.02655877 0.99905263 25.49074827 0.87109375 23.95507812 C0.22789822 15.96121459 -0.19715149 8.02516086 0 0 Z " fill="#8A664D" transform="translate(180,171)"/>
<path d="M0 0 C0.33 0 0.66 0 1 0 C1.797837 6.69613196 2.12910853 13.25766581 2 20 C1.34 20.33 0.68 20.66 0 21 C-1.01187895 22.65948148 -2.0126546 24.32580562 -3 26 C-3.33 26 -3.66 26 -4 26 C-4.94120241 17.83325905 -4.94120241 10.16674095 -4 2 C-3.34 2 -2.68 2 -2 2 C-1.67 2.66 -1.34 3.32 -1 4 C-0.67 2.68 -0.34 1.36 0 0 Z " fill="#6F503C" transform="translate(318,139)"/>
<path d="M0 0 C0.33 0.99 0.66 1.98 1 3 C1.66 3.33 2.32 3.66 3 4 C2.34 4.433125 1.68 4.86625 1 5.3125 C0.34 5.869375 -0.32 6.42625 -1 7 C-1 7.99 -1 8.98 -1 10 C-2.57301041 11.8590123 -3.81619917 12.90809958 -6 14 C-7.9453125 13.22265625 -7.9453125 13.22265625 -10.125 12.0625 C-10.84945312 11.68222656 -11.57390625 11.30195313 -12.3203125 10.91015625 C-12.87460938 10.60980469 -13.42890625 10.30945313 -14 10 C-11.25531435 3.95175605 -5.84738305 2.40774596 0 0 Z " fill="#AB8A74" transform="translate(241,118)"/>
<path d="M0 0 C0.99 0.33 1.98 0.66 3 1 C4.62395257 4.6908013 4.18730428 9.06661006 4 13 C3.01 14.485 3.01 14.485 2 16 C1.01 16 0.02 16 -1 16 C-1 17.65 -1 19.3 -1 21 C-1.99 21 -2.98 21 -4 21 C-2.70020121 2.70020121 -2.70020121 2.70020121 0 0 Z " fill="#856149" transform="translate(215,198)"/>
<path d="M0 0 C3.465 1.485 3.465 1.485 7 3 C6.01 8.94 5.02 14.88 4 21 C3.34 21 2.68 21 2 21 C1.34 21.66 0.68 22.32 0 23 C0 20.03 0 17.06 0 14 C-0.33 14 -0.66 14 -1 14 C-0.67 9.38 -0.34 4.76 0 0 Z " fill="#6E4C33" transform="translate(230,135)"/>
<path d="M0 0 C0.33 0 0.66 0 1 0 C2.58680359 9.7502389 1.21319138 18.38705771 -0.6237793 27.94995117 C-1.1750328 30.95376405 -1.58168 33.97522458 -2 37 C-2.93953549 42.81880381 -3.9054537 48.46441336 -6 54 C-6.33 54 -6.66 54 -7 54 C-6.43062473 47.03358125 -5.35966702 40.28867349 -4 33.4375 C-2.39979356 25.07991937 -1.45910271 16.93216427 -1.17578125 8.43359375 C-1.0255694 5.49945558 -0.67325712 2.8517639 0 0 Z " fill="#977156" transform="translate(102,104)"/>
<path d="M0 0 C-1 2 -1 2 -2.86328125 2.67578125 C-3.67152344 2.88589844 -4.47976562 3.09601563 -5.3125 3.3125 C-10.58690854 4.77930237 -15.45361442 6.84987981 -20.43359375 9.109375 C-23 10 -23 10 -26 9 C-26.66 8.01 -27.32 7.02 -28 6 C-18.93641417 1.8458565 -9.98466563 0 0 0 Z " fill="#B09687" transform="translate(157,67)"/>
<path d="M0 0 C1.98 0.66 3.96 1.32 6 2 C5.91276622 3.77174819 5.80458345 5.54247377 5.6875 7.3125 C5.62949219 8.29863281 5.57148437 9.28476563 5.51171875 10.30078125 C4.95377187 13.24384457 4.31459868 14.18182999 2 16 C2 15.34 2 14.68 2 14 C1.34 14 0.68 14 0 14 C-0.33 15.32 -0.66 16.64 -1 18 C-1.66 17.67 -2.32 17.34 -3 17 C-2.01 11.39 -1.02 5.78 0 0 Z " fill="#6C4B35" transform="translate(107,105)"/>
<path d="M0 0 C-1.56097474 1.1063219 -3.12385327 2.20995785 -4.6875 3.3125 C-5.55761719 3.92738281 -6.42773438 4.54226562 -7.32421875 5.17578125 C-12.36872439 8.61488217 -12.36872439 8.61488217 -15 10 C-15.66 9.67 -16.32 9.34 -17 9 C-15.68 7.35 -14.36 5.7 -13 4 C-13.93972656 4.55880859 -13.93972656 4.55880859 -14.8984375 5.12890625 C-15.71570313 5.60199219 -16.53296875 6.07507813 -17.375 6.5625 C-18.59316406 7.27599609 -18.59316406 7.27599609 -19.8359375 8.00390625 C-20.55007813 8.33261719 -21.26421875 8.66132812 -22 9 C-22.66 8.67 -23.32 8.34 -24 8 C-21.69 6.35 -19.38 4.7 -17 3 C-17.99 2.34 -18.98 1.68 -20 1 C-17.41765641 0.63667026 -14.83460218 0.28405133 -12.25 -0.0625 C-11.52039063 -0.16626953 -10.79078125 -0.27003906 -10.0390625 -0.37695312 C-6.3892704 -0.85806208 -3.52327086 -1.04532842 0 0 Z " fill="#BB9F8E" transform="translate(283,91)"/>
<path d="M0 0 C0 2 0 2 -2.1875 4.25 C-7.40462104 8.45128737 -15.23524565 13 -22 13 C-20.09298581 8.14578206 -16.5745632 5.77705716 -11.9921875 3.515625 C-10.96351562 3.09796875 -9.93484375 2.6803125 -8.875 2.25 C-7.84117188 1.82203125 -6.80734375 1.3940625 -5.7421875 0.953125 C-3 0 -3 0 0 0 Z " fill="#B49A88" transform="translate(119,74)"/>
<path d="M0 0 C0.33 0 0.66 0 1 0 C1 2.64 1 5.28 1 8 C2.32 7.67 3.64 7.34 5 7 C4.51358785 13.84817102 3.64006048 20.33042073 2 27 C1.34 27 0.68 27 0 27 C-0.33 29.31 -0.66 31.62 -1 34 C-1.33 34 -1.66 34 -2 34 C-1.67 29.71 -1.34 25.42 -1 21 C-0.34 21 0.32 21 1 21 C0.67 20.34 0.34 19.68 0 19 C-0.66 19 -1.32 19 -2 19 C-1.85870713 16.58299013 -1.71213513 14.16649571 -1.5625 11.75 C-1.52318359 11.06808594 -1.48386719 10.38617188 -1.44335938 9.68359375 C-1.23333528 6.35551959 -0.98065998 3.19744598 0 0 Z " fill="#714F3A" transform="translate(228,152)"/>
<path d="M0 0 C0.33 0.99 0.66 1.98 1 3 C2.65 3 4.3 3 6 3 C8 8.625 8 8.625 8 12 C4.5642173 15.9247705 0.63186032 18.92046681 -3.625 21.875 C-4.19734375 22.29007813 -4.7696875 22.70515625 -5.359375 23.1328125 C-7.0390625 24.3046875 -7.0390625 24.3046875 -10 26 C-10.99 25.67 -11.98 25.34 -13 25 C-10.73642574 23.20342528 -8.51180019 21.72617808 -5.984375 20.30859375 C0.30511668 17.01190378 0.30511668 17.01190378 3.78125 11.25390625 C3.75264531 8.73311828 3.54411928 6.45861304 3 4 C2.01 4 1.02 4 0 4 C0 2.68 0 1.36 0 0 Z " fill="#897466" transform="translate(236,95)"/>
<path d="M0 0 C2.23782255 6.71346764 -0.29420515 15.28343276 -2 22 C-2.33 22.33 -2.66 22.66 -3 23 C-3.39943176 25.52195967 -3.75079848 28.02963656 -4.0625 30.5625 C-4.15337891 31.27341797 -4.24425781 31.98433594 -4.33789062 32.71679688 C-4.56239503 34.47738403 -4.78168397 36.23863478 -5 38 C-6.485 38.495 -6.485 38.495 -8 39 C-7.88501733 36.79112243 -7.75756495 34.58289213 -7.625 32.375 C-7.55539063 31.14523438 -7.48578125 29.91546875 -7.4140625 28.6484375 C-7.01393013 25.12274281 -6.23432382 22.31225026 -5 19 C-3.52106564 14.74383013 -2.36206628 10.52193161 -1.375 6.125 C-0.98441406 4.39636719 -0.98441406 4.39636719 -0.5859375 2.6328125 C-0.39257812 1.76398438 -0.19921875 0.89515625 0 0 Z " fill="#936D52" transform="translate(100,139)"/>
<path d="M0 0 C0.33 0 0.66 0 1 0 C1 2.31 1 4.62 1 7 C1.99 7.33 2.98 7.66 4 8 C4.10808032 15.09727428 3.93854006 21.96094956 3 29 C2.01 28.67 1.02 28.34 0 28 C-1.28912516 24.82858004 -1.04041321 21.73307591 -0.87890625 18.359375 C-0.80639648 16.75449219 -0.80639648 16.75449219 -0.73242188 15.1171875 C-0.67634766 14.00601563 -0.62027344 12.89484375 -0.5625 11.75 C-0.51029297 10.62335938 -0.45808594 9.49671875 -0.40429688 8.3359375 C-0.27477014 5.55700028 -0.13980947 2.77843576 0 0 Z " fill="#96735A" transform="translate(155,116)"/>
<path d="M0 0 C0.99 0 1.98 0 3 0 C3.32720056 4.68987468 2.94867259 7.29037964 0 11 C-2.15720077 13.0809361 -4.23574826 14.80353283 -7 16 C-10.125 15.125 -10.125 15.125 -13 14 C-15.74832154 15.28184562 -15.74832154 15.28184562 -18 17 C-18.66 17 -19.32 17 -20 17 C-20.25 14.75 -20.25 14.75 -20 12 C-18 9.6875 -18 9.6875 -16 8 C-16 9.65 -16 11.3 -16 13 C-15.29875 12.855625 -14.5975 12.71125 -13.875 12.5625 C-11 12 -11 12 -7.875 11.625 C-4.79951218 10.95641569 -3.99969601 10.29965041 -2 8 C-1.34 8 -0.68 8 0 8 C0 5.36 0 2.72 0 0 Z " fill="#6C564B" transform="translate(236,99)"/>
<path d="M0 0 C0.33 0 0.66 0 1 0 C1 5.61 1 11.22 1 17 C-2 15 -2 15 -3 11 C-3.33 14.96 -3.66 18.92 -4 23 C-4.33 23 -4.66 23 -5 23 C-5.19461488 20.06281233 -5.38097593 17.12550068 -5.5625 14.1875 C-5.61857422 13.35412109 -5.67464844 12.52074219 -5.73242188 11.66210938 C-5.78076172 10.85966797 -5.82910156 10.05722656 -5.87890625 9.23046875 C-5.9260376 8.49207764 -5.97316895 7.75368652 -6.02172852 6.99291992 C-6 5 -6 5 -5 2 C-3.68 2 -2.36 2 -1 2 C-0.67 1.34 -0.34 0.68 0 0 Z " fill="#694935" transform="translate(186,106)"/>
<path d="M0 0 C0.66 0.66 1.32 1.32 2 2 C1.34 2 0.68 2 0 2 C0 1.34 0 0.68 0 0 Z M-1 2 C-0.67 2.99 -0.34 3.98 0 5 C-0.886875 5.721875 -1.77375 6.44375 -2.6875 7.1875 C-5.62966524 9.64273346 -8.32048415 12.25668615 -11 15 C-14.85646253 18.93816724 -18.73303273 22.85389339 -22.8125 26.5625 C-23.35519531 27.05878906 -23.89789063 27.55507812 -24.45703125 28.06640625 C-25.22080078 28.52853516 -25.22080078 28.52853516 -26 29 C-26.99 28.67 -27.98 28.34 -29 28 C-24.99062795 23.93696522 -20.86346849 20.01613607 -16.6875 16.125 C-15.69544556 15.19953369 -15.69544556 15.19953369 -14.68334961 14.25537109 C-10.19718522 10.08268178 -5.66924309 5.96811074 -1 2 Z " fill="#B69B88" transform="translate(359,101)"/>
<path d="M0 0 C0.33 0 0.66 0 1 0 C1.85373239 7.02804699 2.12109311 13.92278069 2 21 C1.67 21 1.34 21 1 21 C0.67 23.31 0.34 25.62 0 28 C-2.1385485 25.8614515 -2.42655063 24.86724686 -3 22 C-3.66 22.66 -4.32 23.32 -5 24 C-6 23 -6 23 -6.0625 20.4375 C-6.041875 19.633125 -6.02125 18.82875 -6 18 C-4.35 18.33 -2.7 18.66 -1 19 C-0.67 12.73 -0.34 6.46 0 0 Z M5 3 C5.33 3 5.66 3 6 3 C6.125 8.75 6.125 8.75 5 11 C4.01 10.67 3.02 10.34 2 10 C2.33 8.68 2.66 7.36 3 6 C3.66 6 4.32 6 5 6 C5 5.01 5 4.02 5 3 Z " fill="#7B5A45" transform="translate(315,153)"/>
<path d="M0 0 C7.92 0 15.84 0 24 0 C24.33 0.66 24.66 1.32 25 2 C23.9171875 2.4021875 23.9171875 2.4021875 22.8125 2.8125 C19.94366924 3.93515158 19.94366924 3.93515158 17.3125 5.6875 C16.549375 6.120625 15.78625 6.55375 15 7 C13 6 13 6 12 4 C9.27191143 1.70379142 9.27191143 1.70379142 6.6875 2.3125 C5.800625 2.539375 4.91375 2.76625 4 3 C2.00102872 3.33944795 0.00124361 3.67421616 -2 4 C-1.34 2.68 -0.68 1.36 0 0 Z " fill="#B29A8C" transform="translate(183,64)"/>
<path d="M0 0 C0.66 0 1.32 0 2 0 C1.93359375 2.19921875 1.93359375 2.19921875 1 5 C-1.30872913 6.83589206 -3.42826374 8.31790041 -5.9375 9.8125 C-6.58396484 10.21919922 -7.23042969 10.62589844 -7.89648438 11.04492188 C-12.67924107 14 -12.67924107 14 -15 14 C-15 14.66 -15 15.32 -15 16 C-16.98 16.99 -16.98 16.99 -19 18 C-18.42655063 15.13275314 -18.1385485 14.1385485 -16 12 C-16.99 11.67 -17.98 11.34 -19 11 C-19 10.34 -19 9.68 -19 9 C-16.8125 7.875 -16.8125 7.875 -14 7 C-13.236875 7.4125 -12.47375 7.825 -11.6875 8.25 C-9.03706285 9.32193411 -9.03706285 9.32193411 -6.94140625 7.91015625 C-2.45868479 4.74601886 -2.45868479 4.74601886 0 0 Z " fill="#7E5C46" transform="translate(238,105)"/>
<path d="M0 0 C0.99 0.33 1.98 0.66 3 1 C3.33 2.65 3.66 4.3 4 6 C4.33 6 4.66 6 5 6 C4.91621094 6.94101563 4.83242187 7.88203125 4.74609375 8.8515625 C4.64425781 10.09679687 4.54242188 11.34203125 4.4375 12.625 C4.33308594 13.85476562 4.22867188 15.08453125 4.12109375 16.3515625 C4.00808939 19.75627462 4.30954437 22.67558398 5 26 C4.01 26.66 3.02 27.32 2 28 C1.66062892 25.02141273 1.32837741 22.04230315 1 19.0625 C0.90460938 18.23169922 0.80921875 17.40089844 0.7109375 16.54492188 C0.10618519 10.99415957 -0.09014973 5.583649 0 0 Z " fill="#906E55" transform="translate(176,126)"/>
<path d="M0 0 C2.31 0 4.62 0 7 0 C7.46530864 7.78961124 6.15721701 14.52678392 4 22 C3.34 21.67 2.68 21.34 2 21 C2.33 14.4 2.66 7.8 3 1 C2.34 1 1.68 1 1 1 C1 3.97 1 6.94 1 10 C0.67 10 0.34 10 0 10 C0 6.7 0 3.4 0 0 Z " fill="#715542" transform="translate(160,109)"/>
<path d="M0 0 C2 2 2 2 2.0625 5.375 C2.041875 6.57125 2.02125 7.7675 2 9 C2.165 9.639375 2.33 10.27875 2.5 10.9375 C3.30854493 14.27274782 3.057047 17.57718 3 21 C0.47097346 18.80084649 -0.34715551 17.26422245 -1 14 C-1.33 13.67 -1.66 13.34 -2 13 C-2.66 13.66 -3.32 14.32 -4 15 C-3.8864371 13.35333797 -3.75882619 11.70763918 -3.625 10.0625 C-3.55539062 9.14597656 -3.48578125 8.22945312 -3.4140625 7.28515625 C-3.27742188 6.53105469 -3.14078125 5.77695313 -3 5 C-2.34 4.67 -1.68 4.34 -1 4 C-0.34786708 1.97536745 -0.34786708 1.97536745 0 0 Z " fill="#8A6346" transform="translate(317,202)"/>
<path d="M0 0 C-0.75 6.75 -0.75 6.75 -3 9 C-6.625 9.125 -6.625 9.125 -10 9 C-10.33 8.01 -10.66 7.02 -11 6 C-8.2468457 1.87026855 -5.00969238 0 0 0 Z " fill="#3E2A1C" transform="translate(234,100)"/>
<path d="M0 0 C0.33 0 0.66 0 1 0 C1.5 2.5625 1.5 2.5625 1 6 C-2.79826997 10.56359302 -7.15615779 13.6851355 -13 15 C-13 12 -13 12 -11.42578125 10.3515625 C-10.72839844 9.78179687 -10.03101563 9.21203125 -9.3125 8.625 C-6.78889445 6.5175209 -4.350556 4.42458134 -2.0625 2.0625 C-1.381875 1.381875 -0.70125 0.70125 0 0 Z " fill="#A1897A" transform="translate(365,109)"/>
<path d="M0 0 C0.66 0 1.32 0 2 0 C2.12375 0.639375 2.2475 1.27875 2.375 1.9375 C2.684375 2.9584375 2.684375 2.9584375 3 4 C3.66 4.33 4.32 4.66 5 5 C3.125 10.875 3.125 10.875 2 12 C0.33382885 12.04063832 -1.33388095 12.042721 -3 12 C-4.27099045 8.18702864 -3.45398157 6.6732166 -2 3 C-1.34 2.01 -0.68 1.02 0 0 Z " fill="#846049" transform="translate(91,192)"/>
<path d="M0 0 C0.66 0 1.32 0 2 0 C1.03644647 14.78132118 1.03644647 14.78132118 0 21 C-0.66 21 -1.32 21 -2 21 C-1.95875 22.03125 -1.9175 23.0625 -1.875 24.125 C-1.99575149 27.86829627 -2.64872018 30.53734547 -4 34 C-4.91730967 31.01528952 -5.01274898 28.90829533 -4.44140625 25.84765625 C-4.23354492 24.68266602 -4.23354492 24.68266602 -4.02148438 23.49414062 C-3.87001953 22.69169922 -3.71855469 21.88925781 -3.5625 21.0625 C-2.68310947 16.30457484 -1.92143744 11.85342064 -2 7 C-1.38431458 4.65269935 -0.72640955 2.31543043 0 0 Z " fill="#88634A" transform="translate(105,104)"/>
<path d="M0 0 C1 3 2 6 3 9 C2.34 9 1.68 9 1 9 C0.67 10.65 0.34 12.3 0 14 C-0.66 14 -1.32 14 -2 14 C-2 15.98 -2 17.96 -2 20 C-2.33 20 -2.66 20 -3 20 C-3.24798276 17.04213336 -3.47411854 14.08538702 -3.6875 11.125 C-3.76033203 10.28324219 -3.83316406 9.44148437 -3.90820312 8.57421875 C-3.96298828 7.76855469 -4.01777344 6.96289062 -4.07421875 6.1328125 C-4.13182373 5.38918457 -4.18942871 4.64555664 -4.2487793 3.87939453 C-4.16668213 3.25919434 -4.08458496 2.63899414 -4 2 C-1 0 -1 0 0 0 Z " fill="#957157" transform="translate(313,174)"/>
<path d="M0 0 C2.97 0 5.94 0 9 0 C9 4.95 9 9.9 9 15 C7.68 14.67 6.36 14.34 5 14 C5 9.71 5 5.42 5 1 C3.35 1 1.7 1 0 1 C0 0.67 0 0.34 0 0 Z " fill="#88644B" transform="translate(151,109)"/>
<path d="M0 0 C0.33 0 0.66 0 1 0 C4.52427184 20.21359223 4.52427184 20.21359223 0 27 C-2.06946113 18.27869953 -1.40738911 8.79618191 0 0 Z " fill="#65442F" transform="translate(187,133)"/>
<path d="M0 0 C2.51083114 1.25541557 2.87125446 2.50063488 4 5 C4.33 3.35 4.66 1.7 5 0 C5.99 0 6.98 0 8 0 C8.125 2.875 8.125 2.875 8 6 C6 8 6 8 3.8359375 8.1953125 C2.61777344 8.16050781 2.61777344 8.16050781 1.375 8.125 C0.55773437 8.10695312 -0.25953125 8.08890625 -1.1015625 8.0703125 C-1.72804687 8.04710937 -2.35453125 8.02390625 -3 8 C-2.74438677 5.6568787 -2.40729228 3.32156597 -2 1 C-1.34 0.67 -0.68 0.34 0 0 Z " fill="#75543F" transform="translate(216,213)"/>
<path d="M0 0 C0.33 0.99 0.66 1.98 1 3 C1.66 3 2.32 3 3 3 C4.65077298 6.760094 5.0520099 8.71158147 4.3125 12.8125 C3.879375 13.864375 3.44625 14.91625 3 16 C2.01 16.33 1.02 16.66 0 17 C0.50603992 14.83125748 0.99983813 13.00032373 2 11 C1.01 10.67 0.02 10.34 -1 10 C-0.67 6.7 -0.34 3.4 0 0 Z " fill="#7A573F" transform="translate(94,186)"/>
<path d="M0 0 C0.66 0.33 1.32 0.66 2 1 C2.08075665 3.29109597 2.13907731 5.58299267 2.1875 7.875 C2.22230469 9.15117187 2.25710938 10.42734375 2.29296875 11.7421875 C2.19628906 12.81726563 2.09960938 13.89234375 2 15 C1.01 15.66 0.02 16.32 -1 17 C-1.22126178 14.54220024 -1.42750395 12.08472352 -1.625 9.625 C-1.68945312 8.92632812 -1.75390625 8.22765625 -1.8203125 7.5078125 C-1.96119739 5.67630889 -1.98761659 3.83687252 -2 2 C-1.34 1.34 -0.68 0.68 0 0 Z " fill="#694A37" transform="translate(322,193)"/>
<path d="M0 0 C2.97 0 5.94 0 9 0 C6.34387448 2.80427595 3.73065517 4.97824138 0.453125 7.015625 C-0.81337891 7.80839844 -0.81337891 7.80839844 -2.10546875 8.6171875 C-2.97816406 9.15601562 -3.85085937 9.69484375 -4.75 10.25 C-5.63816406 10.80429688 -6.52632812 11.35859375 -7.44140625 11.9296875 C-9.62466248 13.29128816 -11.810878 14.64785782 -14 16 C-14 15.01 -14 14.02 -14 13 C-12.43945312 11.6496582 -12.43945312 11.6496582 -10.28125 10.30078125 C-9.13076172 9.57084961 -9.13076172 9.57084961 -7.95703125 8.82617188 C-7.14621094 8.32666016 -6.33539063 7.82714844 -5.5 7.3125 C-4.28376953 6.54583008 -4.28376953 6.54583008 -3.04296875 5.76367188 C-1.03442073 4.49946812 0.97984026 3.24553341 3 2 C2.01 1.34 1.02 0.68 0 0 Z " fill="#AC9385" transform="translate(258,93)"/>
<path d="M0 0 C0.33 0 0.66 0 1 0 C1.05441656 1.89551022 1.09298035 3.7914792 1.125 5.6875 C1.14820312 6.74324219 1.17140625 7.79898438 1.1953125 8.88671875 C0.99554416 12.07102612 0.33941298 14.12982932 -1 17 C-1.28101562 17.66644531 -1.56203125 18.33289063 -1.8515625 19.01953125 C-2.56770833 20.6796875 -3.28385417 22.33984375 -4 24 C-4.33 24 -4.66 24 -5 24 C-4.85915204 22.20793453 -4.71216299 20.41635083 -4.5625 18.625 C-4.48128906 17.62726563 -4.40007812 16.62953125 -4.31640625 15.6015625 C-4 13 -4 13 -3 11 C-2.34 11 -1.68 11 -1 11 C-0.67 7.37 -0.34 3.74 0 0 Z " fill="#A07F67" transform="translate(91,178)"/>
<path d="M0 0 C0.33 0 0.66 0 1 0 C0.85756403 2.66688629 0.71113422 5.33345767 0.5625 8 C0.52318359 8.74378906 0.48386719 9.48757812 0.44335938 10.25390625 C0.16338273 15.20733918 -0.33510571 20.08313469 -1 25 C-1.66 25 -2.32 25 -3 25 C-3.27025639 17.16256482 -3.55965252 7.11930504 0 0 Z " fill="#664631" transform="translate(162,136)"/>
<path d="M0 0 C0.33 0 0.66 0 1 0 C1.75363052 3.35091771 2.11979937 6.43109812 2.09765625 9.86328125 C2.09282227 11.19262695 2.09282227 11.19262695 2.08789062 12.54882812 C2.07951172 13.46083984 2.07113281 14.37285156 2.0625 15.3125 C2.05798828 16.24384766 2.05347656 17.17519531 2.04882812 18.13476562 C2.03709234 20.42324373 2.02067363 22.71158808 2 25 C1.67 25 1.34 25 1 25 C1 22.69 1 20.38 1 18 C0.34 18 -0.32 18 -1 18 C-1.33 19.32 -1.66 20.64 -2 22 C-2.25218881 17.46060145 -2.25218881 17.46060145 -0.96484375 15.109375 C0.20063567 12.5613633 0.01688806 11.23569718 -0.4375 8.5 C-0.95479975 5.31996788 -0.96233329 3.09070545 0 0 Z " fill="#987256" transform="translate(180,137)"/>
<path d="M0 0 C1.65 0 3.3 0 5 0 C5.49230769 7.26153846 5.49230769 7.26153846 3 11 C2.34 11.66 1.68 12.32 1 13 C0 12 0 12 -0.09765625 9.27734375 C-0.08605469 8.17519531 -0.07445312 7.07304688 -0.0625 5.9375 C-0.05347656 4.83277344 -0.04445312 3.72804688 -0.03515625 2.58984375 C-0.02355469 1.73519531 -0.01195312 0.88054687 0 0 Z " fill="#7E5C46" transform="translate(175,108)"/>
<path d="M0 0 C0.66 0 1.32 0 2 0 C2.38951724 2.43598091 2.76203193 4.87254794 3.125 7.3125 C3.29322266 8.34793945 3.29322266 8.34793945 3.46484375 9.40429688 C4.2265625 14.66015625 4.2265625 14.66015625 2 18 C1.34 15.03 0.68 12.06 0 9 C-0.99 9.66 -1.98 10.32 -3 11 C-3 9.02 -3 7.04 -3 5 C-2.34 5 -1.68 5 -1 5 C-0.67 3.35 -0.34 1.7 0 0 Z " fill="#896348" transform="translate(314,183)"/>
<path d="M0 0 C2.67927341 4.01891012 2.15601248 6.24161923 2 11 C-1.75 12.125 -1.75 12.125 -4 11 C-3.67 8.69 -3.34 6.38 -3 4 C-2.34 4 -1.68 4 -1 4 C-0.67 2.68 -0.34 1.36 0 0 Z " fill="#936D51" transform="translate(312,161)"/>
<path d="M0 0 C0.99 0.33 1.98 0.66 3 1 C3.02688151 2.64574566 3.04634123 4.29161413 3.0625 5.9375 C3.07410156 6.85402344 3.08570313 7.77054688 3.09765625 8.71484375 C3 11 3 11 2 12 C1.63239269 14.32817964 1.29758419 16.6618385 1 19 C0.67 19 0.34 19 0 19 C-0.69508823 12.48755792 -1.31909709 6.4489191 0 0 Z " fill="#7F5E49" transform="translate(236,139)"/>
<path d="M0 0 C0.99 0.33 1.98 0.66 3 1 C2.71815415 3.60557491 2.42497289 6.20900398 2.125 8.8125 C2.04636719 9.55048828 1.96773437 10.28847656 1.88671875 11.04882812 C1.45539714 14.71506181 1.0803217 16.87951745 -1 20 C-2.59618954 13.13638499 -1.24720085 6.85445096 0 0 Z " fill="#A28572" transform="translate(224,136)"/>
<path d="M0 0 C-2 2 -2 2 -5.9375 2.3125 C-11.09142339 2.73851312 -15.06099625 4.68957357 -19.6171875 7.0390625 C-22 8 -22 8 -25 7 C-17.14230624 1.3873616 -9.59882561 -0.2341177 0 0 Z " fill="#C2A593" transform="translate(173,65)"/>
<path d="M0 0 C2.29013653 3.4352048 2.17842973 4.985331 2 9 C1.67 9 1.34 9 1 9 C0.34 10.98 -0.32 12.96 -1 15 C-3.10306598 11.58251778 -3.40603518 8.97914475 -3 5 C-1.5 2.125 -1.5 2.125 0 0 Z " fill="#714F38" transform="translate(354,166)"/>
<path d="M0 0 C0.33 0 0.66 0 1 0 C1.33 4.62 1.66 9.24 2 14 C1.01 14.66 0.02 15.32 -1 16 C-1.93619813 12.84493858 -2.1057123 10.03413498 -2.0625 6.75 C-2.05347656 5.85796875 -2.04445313 4.9659375 -2.03515625 4.046875 C-2.02355469 3.37140625 -2.01195312 2.6959375 -2 2 C-1.34 2 -0.68 2 0 2 C0 1.34 0 0.68 0 0 Z " fill="#6A4A37" transform="translate(320,162)"/>
<path d="M0 0 C0.680625 0.391875 1.36125 0.78375 2.0625 1.1875 C2.0625 1.8475 2.0625 2.5075 2.0625 3.1875 C-4.5625 6.3125 -4.5625 6.3125 -7.9375 5.1875 C-8.5975 4.1975 -9.2575 3.2075 -9.9375 2.1875 C-3.66057692 -1.0125 -3.66057692 -1.0125 0 0 Z " fill="#AA907F" transform="translate(138.9375,70.8125)"/>
<path d="M0 0 C0.33 0 0.66 0 1 0 C1.74464946 6.87368733 2.18225237 13.16920852 1 20 C0.34 20 -0.32 20 -1 20 C-1.02712351 17.60408962 -1.0468982 15.20849043 -1.0625 12.8125 C-1.07087891 12.13896484 -1.07925781 11.46542969 -1.08789062 10.77148438 C-1.10606538 7.04565869 -0.89299392 3.6211958 0 0 Z " fill="#A1826E" transform="translate(102,104)"/>
<path d="M0 0 C0.33 0.66 0.66 1.32 1 2 C-0.4317616 2.69937202 -1.87067032 3.38412718 -3.3125 4.0625 C-4.51326172 4.63677734 -4.51326172 4.63677734 -5.73828125 5.22265625 C-8 6 -8 6 -11 5 C-10.03558469 2.58896173 -9.31202953 1.22595242 -7.1875 -0.3125 C-4.412391 -1.18467711 -2.74613125 -0.89063716 0 0 Z " fill="#A78D7E" transform="translate(132,85)"/>
<path d="M0 0 C0.33 0 0.66 0 1 0 C1.8320582 5.72040011 2.12036664 11.22240116 2 17 C0.02 17.99 0.02 17.99 -2 19 C-2.25 12.375 -2.25 12.375 0 9 C0.24107326 6.71351152 0.24107326 6.71351152 0.125 4.3125 C0.10695313 3.50425781 0.08890625 2.69601563 0.0703125 1.86328125 C0.04710937 1.24839844 0.02390625 0.63351563 0 0 Z " fill="#7F6554" transform="translate(321,166)"/>
<path d="M0 0 C0.89203125 0.00902344 1.7840625 0.01804687 2.703125 0.02734375 C3.37859375 0.03894531 4.0540625 0.05054687 4.75 0.0625 C3.1 1.7125 1.45 3.3625 -0.25 5.0625 C-7 3.3125 -7 3.3125 -9.25 1.0625 C-6.09493858 0.12630187 -3.28413498 -0.0432123 0 0 Z " fill="#9D8578" transform="translate(257.25,93.9375)"/>
<path d="M0 0 C0 0.66 0 1.32 0 2 C-5.93576017 7.53104925 -5.93576017 7.53104925 -10 8 C-10.33 6.35 -10.66 4.7 -11 3 C-9.73160474 2.49384702 -8.46016898 1.99530901 -7.1875 1.5 C-6.12595703 1.08234375 -6.12595703 1.08234375 -5.04296875 0.65625 C-3 0 -3 0 0 0 Z " fill="#BAA190" transform="translate(119,74)"/>
<path d="M0 0 C2.28931329 6.86793986 -0.51643406 15.10069822 -2 22 C-2.66 21.67 -3.32 21.34 -4 21 C-3.54034292 13.69303751 -2.11670277 7.00242552 0 0 Z " fill="#8A6549" transform="translate(100,139)"/>
<path d="M0 0 C0.99 0.33 1.98 0.66 3 1 C2.01 6.61 1.02 12.22 0 18 C-0.66 18 -1.32 18 -2 18 C-1.48758893 11.97099313 -0.930215 5.97995357 0 0 Z " fill="#624735" transform="translate(234,138)"/>
<path d="M0 0 C0.66 0.33 1.32 0.66 2 1 C1.34 1.66 0.68 2.32 0 3 C0.99 3.66 1.98 4.32 3 5 C-0.96 5.99 -4.92 6.98 -9 8 C-9.33 7.34 -9.66 6.68 -10 6 C-8.3811004 4.96951963 -6.75467511 3.95085322 -5.125 2.9375 C-4.22007812 2.36902344 -3.31515625 1.80054687 -2.3828125 1.21484375 C-1.20332031 0.61349609 -1.20332031 0.61349609 0 0 Z " fill="#AE9282" transform="translate(223,87)"/>
<path d="M0 0 C0.66 0.33 1.32 0.66 2 1 C1.67 1.66 1.34 2.32 1 3 C1.99 3 2.98 3 4 3 C4.33 4.65 4.66 6.3 5 8 C1.08788267 6.84414715 -1.8745041 5.64465038 -5 3 C-2.625 1.4375 -2.625 1.4375 0 0 Z " fill="#A6846D" transform="translate(232,124)"/>
<path d="M0 0 C0.99 0 1.98 0 3 0 C2.154375 0.495 1.30875 0.99 0.4375 1.5 C-2.20744216 3.66350139 -2.20744216 3.66350139 -2.109375 6.046875 C-1.83980999 8.04733113 -1.42743188 10.02723747 -1 12 C-3 11 -3 11 -3.8515625 8.49609375 C-4.10679687 7.48675781 -4.36203125 6.47742188 -4.625 5.4375 C-4.88539063 4.42558594 -5.14578125 3.41367188 -5.4140625 2.37109375 C-5.60742188 1.58863281 -5.80078125 0.80617188 -6 0 C-3.47064411 -1.26467795 -2.65809097 -0.7249339 0 0 Z " fill="#8E705C" transform="translate(222,116)"/>
<path d="M0 0 C1.98 0.66 3.96 1.32 6 2 C5.67 4.97 5.34 7.94 5 11 C4.34 11 3.68 11 3 11 C2.67 8.69 2.34 6.38 2 4 C1.34 4 0.68 4 0 4 C0 2.68 0 1.36 0 0 Z " fill="#624330" transform="translate(107,105)"/>
<path d="M0 0 C0.99 0.33 1.98 0.66 3 1 C3.36923077 8.50769231 3.36923077 8.50769231 1.5 11 C1.005 11.33 0.51 11.66 0 12 C-1.16063604 7.74433453 -0.76173392 4.3164922 0 0 Z " fill="#92725D" transform="translate(213,201)"/>
<path d="M0 0 C0.33 0 0.66 0 1 0 C1 3.63 1 7.26 1 11 C-1.1385485 8.8614515 -1.42655063 7.86724686 -2 5 C-2.66 5.66 -3.32 6.32 -4 7 C-5 6 -5 6 -5.0625 3.4375 C-5.041875 2.633125 -5.02125 1.82875 -5 1 C-2.525 1.495 -2.525 1.495 0 2 C0 1.34 0 0.68 0 0 Z " fill="#8A6348" transform="translate(314,170)"/>
<path d="M0 0 C6.15234375 -0.09765625 6.15234375 -0.09765625 8 0 C9 1 9 1 9.0625 4.0625 C9.041875 5.031875 9.02125 6.00125 9 7 C7 6 5 5 3 4 C3 3.01 3 2.02 3 1 C2.01 0.67 1.02 0.34 0 0 Z " fill="#78553E" transform="translate(303,141)"/>
<path d="M0 0 C0.66 0.33 1.32 0.66 2 1 C2 1.66 2 2.32 2 3 C4.15634036 3 5.92446352 2.5534764 8 2 C7.34 3.32 6.68 4.64 6 6 C3.69 6 1.38 6 -1 6 C-1.33 5.01 -1.66 4.02 -2 3 C-1.34 2.01 -0.68 1.02 0 0 Z " fill="#4B3728" transform="translate(225,103)"/>
<path d="M0 0 C0.33 0 0.66 0 1 0 C0.67 4.62 0.34 9.24 0 14 C-3 11 -3 11 -3.14453125 8.80859375 C-3.03496094 8.02613281 -2.92539063 7.24367187 -2.8125 6.4375 C-2.71582031 5.65246094 -2.61914062 4.86742187 -2.51953125 4.05859375 C-2 2 -2 2 0 0 Z " fill="#A1816E" transform="translate(222,158)"/>
<path d="M0 0 C1.33333333 0 2.66666667 0 4 0 C4.17835515 4.54805635 3.99785435 7.8794254 2 12 C-0.60018816 8.09971775 -0.15085514 4.52565431 0 0 Z " fill="#724E36" transform="translate(350,156)"/>
<path d="M0 0 C0.66 0 1.32 0 2 0 C1.88566637 2.25056722 1.75813564 4.50046674 1.625 6.75 C1.52058594 8.62945312 1.52058594 8.62945312 1.4140625 10.546875 C1.04676696 13.60998121 0.60288714 15.41974266 -1 18 C-0.979375 16.9275 -0.95875 15.855 -0.9375 14.75 C-0.81937194 11.24745102 -0.81937194 11.24745102 -1.625 9 C-2.23113098 5.76730143 -1.0019823 3.06488703 0 0 Z " fill="#7D5B44" transform="translate(105,104)"/>
<path d="M0 0 C0.66 0 1.32 0 2 0 C1.9175 0.928125 1.835 1.85625 1.75 2.8125 C1.64696955 6.09105222 1.64696955 6.09105222 4 7.875 C4.66 8.24625 5.32 8.6175 6 9 C0.25 9.125 0.25 9.125 -2 8 C-2 6.68 -2 5.36 -2 4 C-1.34 4 -0.68 4 0 4 C0 2.68 0 1.36 0 0 Z " fill="#765540" transform="translate(355,178)"/>
<path d="M0 0 C0.66 0 1.32 0 2 0 C2.0825 0.94875 2.165 1.8975 2.25 2.875 C2.65074923 6.10461791 2.65074923 6.10461791 5.0625 7.375 C5.701875 7.58125 6.34125 7.7875 7 8 C7 8.99 7 9.98 7 11 C2.125 10.125 2.125 10.125 1 9 C0.76807135 7.48530552 0.58784762 5.96245438 0.4375 4.4375 C0.35371094 3.61121094 0.26992187 2.78492188 0.18359375 1.93359375 C0.12300781 1.29550781 0.06242188 0.65742188 0 0 Z " fill="#816048" transform="translate(237,161)"/>
<path d="M0 0 C1.65 0 3.3 0 5 0 C5.33 0.66 5.66 1.32 6 2 C5.34 2 4.68 2 4 2 C4 3.32 4 4.64 4 6 C2.68 6.33 1.36 6.66 0 7 C0 4.69 0 2.38 0 0 Z " fill="#6C4C36" transform="translate(265,145)"/>
<path d="M0 0 C0.99 0 1.98 0 3 0 C3.32613618 4.67461851 2.70582788 7.16674383 0 11 C-0.66 10.67 -1.32 10.34 -2 10 C-2 9.34 -2 8.68 -2 8 C-1.34 8 -0.68 8 0 8 C0 5.36 0 2.72 0 0 Z " fill="#6C594C" transform="translate(236,99)"/>
<path d="M0 0 C1.485 0.99 1.485 0.99 3 2 C2.91253716 3.43861294 2.80434652 4.87597508 2.6875 6.3125 C2.62949219 7.11300781 2.57148438 7.91351563 2.51171875 8.73828125 C2 11 2 11 -1 14 C-0.67 9.38 -0.34 4.76 0 0 Z " fill="#765139" transform="translate(230,135)"/>
<path d="M0 0 C0.99 0.33 1.98 0.66 3 1 C1.4050992 2.19991599 -0.20126147 3.38461318 -1.8125 4.5625 C-2.70582031 5.22378906 -3.59914062 5.88507813 -4.51953125 6.56640625 C-5.33808594 7.03949219 -6.15664062 7.51257813 -7 8 C-7.99 7.67 -8.98 7.34 -10 7 C-6.7589629 4.50689454 -3.5149613 2.0940195 0 0 Z " fill="#936D52" transform="translate(233,113)"/>
<path d="M0 0 C1.98362069 2.91708924 1.9876191 4.12380904 1.625 7.75 C1.41875 8.8225 1.2125 9.895 1 11 C0.01 11.33 -0.98 11.66 -2 12 C-1.85904936 10.3745692 -1.71207913 8.74965949 -1.5625 7.125 C-1.48128906 6.22007812 -1.40007812 5.31515625 -1.31640625 4.3828125 C-1 2 -1 2 0 0 Z " fill="#947763" transform="translate(216,187)"/>
<path d="M0 0 C0.33 0 0.66 0 1 0 C1.17835515 4.54805635 0.99785435 7.8794254 -1 12 C-3.56687367 8.1496895 -2.83288724 6.41430237 -2 2 C-1.34 2 -0.68 2 0 2 C0 1.34 0 0.68 0 0 Z " fill="#705039" transform="translate(100,176)"/>
<path d="M0 0 C0.33 0.66 0.66 1.32 1 2 C-0.59617578 5.83082186 -1.49984971 7.66656647 -5 10 C-5.3125 7.25 -5.3125 7.25 -5 4 C-2.5 1.625 -2.5 1.625 0 0 Z " fill="#816B60" transform="translate(364,116)"/>
<path d="M0 0 C1.83117102 3.13188377 2.2718057 5.44820595 2.25 9.0625 C2.25515625 9.91972656 2.2603125 10.77695313 2.265625 11.66015625 C2 14 2 14 0 17 C0.020625 15.96875 0.04125 14.9375 0.0625 13.875 C0.10355115 10.09670028 0.10355115 10.09670028 -0.5625 6.8125 C-0.98458227 4.09911398 -0.88613224 2.5599376 0 0 Z " fill="#916E56" transform="translate(217,181)"/>
<path d="M0 0 C0.66 0.66 1.32 1.32 2 2 C0.02 3.65 -1.96 5.3 -4 7 C-6.91517292 5.92598892 -8.77810176 5.22189824 -11 3 C-9.9275 3.061875 -8.855 3.12375 -7.75 3.1875 C-3.89133813 2.99456691 -2.71182212 2.60334924 0 0 Z " fill="#704E38" transform="translate(233,108)"/>
<path d="M0 0 C0.66 0 1.32 0 2 0 C1.625 2.9375 1.625 2.9375 1 6 C0.01 6.495 0.01 6.495 -1 7 C-2.13350534 9.01669827 -2.13350534 9.01669827 -3 11 C-4 9 -4 9 -3.1875 6.0625 C-2 3 -2 3 0 0 Z " fill="#8F684C" transform="translate(91,192)"/>
<path d="M0 0 C0.33 0 0.66 0 1 0 C1.66 4.62 2.32 9.24 3 14 C2.01 14.66 1.02 15.32 0 16 C0 10.72 0 5.44 0 0 Z " fill="#89664C" transform="translate(178,138)"/>
<path d="M0 0 C0.99 0.66 1.98 1.32 3 2 C2.27683594 2.61488281 2.27683594 2.61488281 1.5390625 3.2421875 C0.90742188 3.78101562 0.27578125 4.31984375 -0.375 4.875 C-1.00148437 5.40867187 -1.62796875 5.94234375 -2.2734375 6.4921875 C-3.55836651 7.61432007 -4.79371975 8.79371975 -6 10 C-6.33 9.01 -6.66 8.02 -7 7 C-6.01 6.34 -5.02 5.68 -4 5 C-3.67 4.01 -3.34 3.02 -3 2 C-2.01 1.34 -1.02 0.68 0 0 Z " fill="#9E795F" transform="translate(235,114)"/>
<path d="M0 0 C3.465 1.98 3.465 1.98 7 4 C6.34 5.65 5.68 7.3 5 9 C1.7457985 6.16569547 0.4793247 4.31392226 0 0 Z " fill="#967767" transform="translate(98,93)"/>
<path d="M0 0 C0.66 0.33 1.32 0.66 2 1 C2.19622241 5.21878192 1.80230168 8.17010894 0 12 C-0.33 12 -0.66 12 -1 12 C-1.02698189 10.37509046 -1.04638757 8.75005367 -1.0625 7.125 C-1.07410156 6.22007812 -1.08570313 5.31515625 -1.09765625 4.3828125 C-1 2 -1 2 0 0 Z " fill="#684735" transform="translate(321,182)"/>
<path d="M0 0 C1.485 0.99 1.485 0.99 3 2 C3.375 4.5 3.375 4.5 3 7 C2.01 7.66 1.02 8.32 0 9 C-0.87890625 2.84765625 -0.87890625 2.84765625 -1 1 C-0.67 0.67 -0.34 0.34 0 0 Z " fill="#815E46" transform="translate(355,144)"/>
<path d="M0 0 C0.33 0 0.66 0 1 0 C1.125 7.75 1.125 7.75 0 10 C-0.66 10 -1.32 10 -2 10 C-2.25 3.375 -2.25 3.375 0 0 Z " fill="#664837" transform="translate(318,144)"/>
<path d="M0 0 C0.99 0 1.98 0 3 0 C3.66 2.64 4.32 5.28 5 8 C3.68 8.33 2.36 8.66 1 9 C0.67 6.03 0.34 3.06 0 0 Z " fill="#6C4A35" transform="translate(103,128)"/>
<path d="M0 0 C1.485 0.99 1.485 0.99 3 2 C3 3.32 3 4.64 3 6 C2.34 6 1.68 6 1 6 C0.67 8.31 0.34 10.62 0 13 C-0.33 13 -0.66 13 -1 13 C-0.67 8.71 -0.34 4.42 0 0 Z " fill="#724E36" transform="translate(227,173)"/>
<path d="M0 0 C0.33 0 0.66 0 1 0 C1 3.96 1 7.92 1 12 C0.67 12 0.34 12 0 12 C0 9.69 0 7.38 0 5 C-0.66 5 -1.32 5 -2 5 C-2.33 6.32 -2.66 7.64 -3 9 C-3.25873987 5.89512156 -3.23307327 4.37494396 -1.5625 1.6875 C-1.046875 1.130625 -0.53125 0.57375 0 0 Z " fill="#9F7B61" transform="translate(181,150)"/>
<path d="M0 0 C1.32 0.66 2.64 1.32 4 2 C3.67 3.65 3.34 5.3 3 7 C1.68 6.34 0.36 5.68 -1 5 C-0.67 3.35 -0.34 1.7 0 0 Z " fill="#825C40" transform="translate(225,127)"/>
<path d="M0 0 C0.33 0 0.66 0 1 0 C1.25 7.625 1.25 7.625 -1 11 C-2.23076923 4.6 -2.23076923 4.6 -1.0625 1.5625 C-0.711875 1.046875 -0.36125 0.53125 0 0 Z " fill="#9F7E69" transform="translate(224,145)"/>
<path d="M0 0 C0.66 0.99 1.32 1.98 2 3 C0.7934375 3.6496875 0.7934375 3.6496875 -0.4375 4.3125 C-3.27846354 5.80474002 -3.27846354 5.80474002 -4 9 C-4.99 8.67 -5.98 8.34 -7 8 C-4.69 5.36 -2.38 2.72 0 0 Z " fill="#A18677" transform="translate(350,118)"/>
<path d="M0 0 C0.93065133 2.60582371 1.14917407 3.64198224 0.0625 6.25 C-0.4634375 7.11625 -0.4634375 7.11625 -1 8 C-1.66 8 -2.32 8 -3 8 C-3.36923077 3.44615385 -3.36923077 3.44615385 -1.5 1.1875 C-1.005 0.795625 -0.51 0.40375 0 0 Z " fill="#5A483F" transform="translate(223,104)"/>
<path d="M0 0 C0.99 0.66 1.98 1.32 3 2 C-3.625 5 -3.625 5 -7 5 C-7 4.34 -7 3.68 -7 3 C-3.6875 1.375 -3.6875 1.375 0 0 Z " fill="#A68B7C" transform="translate(119,90)"/>
<path d="M0 0 C0.25 2.3125 0.25 2.3125 0 5 C-2 6.8125 -2 6.8125 -4 8 C-4.1875 5.125 -4.1875 5.125 -4 2 C-1 0 -1 0 0 0 Z " fill="#776359" transform="translate(241,84)"/>
<path d="M0 0 C-0.33 1.98 -0.66 3.96 -1 6 C-1.66 5.34 -2.32 4.68 -3 4 C-3.66 4.66 -4.32 5.32 -5 6 C-4.625 3.5625 -4.625 3.5625 -4 1 C-2 0 -2 0 0 0 Z " fill="#755037" transform="translate(102,168)"/>
<path d="M0 0 C0.99 0.66 1.98 1.32 3 2 C1.68 2.33 0.36 2.66 -1 3 C-1 3.66 -1 4.32 -1 5 C-2.98 5.99 -2.98 5.99 -5 7 C-4.60196439 4.11424181 -4.20990931 3.17810487 -1.9375 1.25 C-1.298125 0.8375 -0.65875 0.425 0 0 Z " fill="#86644B" transform="translate(224,116)"/>
<path d="M0 0 C0.33 0.99 0.66 1.98 1 3 C0 4 0 4 -3.0625 4.0625 C-4.5165625 4.0315625 -4.5165625 4.0315625 -6 4 C-6 3.34 -6 2.68 -6 2 C-2.25 0 -2.25 0 0 0 Z " fill="#BA9C88" transform="translate(158,99)"/>
<path d="M0 0 C0.33 0 0.66 0 1 0 C1.33 3.3 1.66 6.6 2 10 C1.01 10 0.02 10 -1 10 C-0.67 6.7 -0.34 3.4 0 0 Z " fill="#947662" transform="translate(222,151)"/>
<path d="M0 0 C-0.33 0.99 -0.66 1.98 -1 3 C-2.875 3.875 -2.875 3.875 -5 4 C-6.75 2.5625 -6.75 2.5625 -8 1 C-5.10765685 0.17361624 -3.11257569 0 0 0 Z " fill="#A19187" transform="translate(256,94)"/>
<path d="M0 0 C1.65 0 3.3 0 5 0 C4.625 2.4375 4.625 2.4375 4 5 C3.01 5.495 3.01 5.495 2 6 C2 4.35 2 2.7 2 1 C1.34 0.67 0.68 0.34 0 0 Z " fill="#6F5240" transform="translate(225,97)"/>
</svg>
